<svg width="41" height="40" viewBox="0 0 41 40" fill="none" xmlns="http://www.w3.org/2000/svg">
<path d="M36.6972 7.50633H36.6952C36.6405 7.48071 36.5851 7.45717 36.5186 7.43224L17.1875 0.449383C15.1172 -0.355186 12.7741 -0.0685322 10.9122 1.2221L2.1409 7.67043C2.06474 7.7279 1.99273 7.78745 1.92695 7.85184C0.702094 9.0303 0 10.681 0 12.3808V35.0743C0 37.7899 2.20945 39.9993 4.92505 39.9993H10.4352C10.5709 40 10.7087 39.9861 10.8838 39.9529C10.9192 39.9446 10.9545 39.9349 11.0486 39.9065C11.122 39.8871 11.1954 39.865 11.2612 39.838L18.6367 36.8406C21.3793 35.7272 23.1511 33.094 23.1511 30.1319V19.4364H27.7002C27.8255 19.4364 27.9266 19.5382 27.9266 19.6628V37.8058C27.9266 39.0154 28.9112 40 30.1215 40H35.4114C38.127 40 40.3365 37.7906 40.3365 35.075V13.2082C40.3365 10.771 38.9081 8.53316 36.6972 7.50633ZM27.6995 15.0459H12.8537C10.3078 15.0459 8.2368 17.1169 8.2368 19.6635L8.23888 35.6109H4.92435C4.6287 35.6109 4.38913 35.3706 4.38913 35.0756V12.3815C4.38913 11.919 4.56915 11.4399 4.85996 11.1207L13.461 4.79627C14.0883 4.36214 14.9025 4.27351 15.6483 4.56086L34.9018 11.5139C35.5375 11.8338 35.9474 12.4965 35.9474 13.2082V35.075C35.9474 35.3706 35.7071 35.6102 35.4121 35.6102H32.3171V19.6621C32.3171 17.1169 30.2461 15.0452 27.7002 15.0452L27.6995 15.0459ZM12.8537 19.4364H18.7613V30.1319C18.7613 31.2986 18.0633 32.3351 16.9825 32.7741L12.6294 34.5439L12.6273 19.6628C12.6273 19.5382 12.7291 19.4364 12.8537 19.4364Z" fill="#353AB4"/>
</svg>
