<svg width="144" height="144" viewBox="0 0 144 144" fill="none" xmlns="http://www.w3.org/2000/svg">
<path d="M62.6622 89.1207C47.3794 83.2605 34.9571 102.467 30.6562 112.802L43.4586 121.031L55.961 110.294C55.5609 113.07 61.442 119.827 88.167 124.643C114.892 129.46 119.973 111.197 119.173 101.463C106.704 99.7908 77.9451 94.9809 62.6622 89.1207Z" fill="#343EAD"/>
<path d="M41.8396 93.8429C47.5699 88.3194 55.0087 84.6187 63.3183 87.8002L63.6773 87.9365C78.4896 93.5153 105.603 98.1457 118.593 99.9448L119.814 100.111L119.867 100.119C120.403 100.215 120.811 100.661 120.856 101.209C121.275 106.299 120.17 113.683 115.358 119.201C110.474 124.801 102.012 128.216 88.2952 125.748C74.8091 123.321 66.4763 120.388 61.5314 117.652C59.0598 116.285 57.3841 114.938 56.3403 113.683C55.9772 113.246 55.6777 112.804 55.4494 112.362L44.3814 121.853C43.9775 122.199 43.3948 122.24 42.9471 121.952L30.0867 113.699C29.594 113.383 29.399 112.758 29.6244 112.217C31.8257 106.934 36.1062 99.3692 41.8396 93.8429ZM62.4577 90.0566C55.4152 87.3602 48.9385 90.3525 43.5115 95.5836C38.4101 100.501 34.4634 107.207 32.249 112.218L43.4936 119.434L55.3724 109.248C55.754 108.921 56.2979 108.865 56.7378 109.108C57.1778 109.35 57.4216 109.841 57.3497 110.339C57.3182 110.557 57.3853 111.166 58.1929 112.137C58.9827 113.087 60.3865 114.259 62.6973 115.538C67.3173 118.094 75.3615 120.966 88.7214 123.37C101.851 125.733 109.363 122.404 113.542 117.612C117.508 113.064 118.683 106.964 118.51 102.371C105.616 100.596 78.0108 95.9163 62.8232 90.1954L62.4577 90.0566Z" fill="black"/>
<path d="M77.4308 72.1023C72.292 72.1023 62.7772 81.7534 60.4688 87.4775L70.3047 90.1732L95.9988 89.2746L86.6646 100.257C95.2627 106.414 114.627 114.055 123.299 95.3648C131.97 76.675 119.685 67.8758 112.459 65.8125L77.4308 72.1023Z" fill="white"/>
<path d="M112.425 64.6963C112.586 64.6769 112.75 64.6896 112.906 64.7341C116.753 65.8293 121.955 68.7036 125.06 73.8387C128.162 78.9682 129.045 86.1436 124.783 95.5851L124.576 96.0365C122.307 100.914 119.296 104.155 115.859 106.119C112.428 108.079 108.663 108.714 104.963 108.533C97.6073 108.173 90.3526 104.582 85.9172 101.415C85.6431 101.22 85.4637 100.919 85.4224 100.587C85.3812 100.255 85.4816 99.9199 85.6997 99.6641L93.3226 90.7201L70.2108 91.5262C70.0879 91.5305 69.965 91.5162 69.8464 91.4838L59.9522 88.7798C59.6196 88.6889 59.3417 88.4617 59.1885 88.155C59.0352 87.8484 59.0212 87.4914 59.1497 87.1737C60.4029 84.075 63.5147 80.0792 66.903 76.8855C68.6109 75.2757 70.4336 73.827 72.1888 72.7729C73.8694 71.7635 75.624 71.0329 77.2191 70.9984L112.357 64.7067L112.425 64.6963ZM77.5516 73.3812C77.4806 73.3939 77.4086 73.4003 77.3365 73.4003C76.3781 73.4003 75.0428 73.8686 73.4437 74.829C71.878 75.7694 70.1934 77.0998 68.5722 78.6279C65.7822 81.2576 63.3096 84.3485 61.9797 86.8408L70.311 89.1176L95.9717 88.2229C96.4508 88.2062 96.8948 88.4712 97.1042 88.8989C97.3135 89.3266 97.249 89.8367 96.9395 90.1998L88.4122 100.204C92.6546 102.996 98.9031 105.83 105.082 106.132C108.423 106.296 111.704 105.718 114.649 104.036C117.588 102.357 120.283 99.5259 122.376 95.0292L122.57 94.6053C126.572 85.7447 125.605 79.4127 122.982 75.0751C120.341 70.7075 115.895 68.1521 112.503 67.1226L77.5516 73.3812Z" fill="black"/>
<path d="M122.33 46.5147L124.208 38.9082C124.473 37.8334 123.891 36.6419 122.715 35.8495L104.791 23.7951C103.921 23.2112 102.819 22.9109 101.772 22.9764L86.5527 23.9198C85.1406 24.0067 84.0386 24.737 83.7187 25.797L81.4144 33.4636C80.9768 34.9241 82.1391 36.5671 84.065 37.2041L117.634 48.2582C119.754 48.9578 121.926 48.1509 122.328 46.5214L122.33 46.5147Z" fill="#343EAD"/>
<path d="M121.079 46.0886C121.474 44.4903 121.87 42.8887 122.265 41.2904C122.66 39.6921 123.523 38.1971 121.95 36.9295C119.635 35.0698 116.931 33.5555 114.469 31.8994L105.023 25.5471C103.926 24.8075 103.036 24.2917 101.604 24.3047C100.289 24.3162 98.9621 24.4695 97.6493 24.5492C94.0214 24.7743 90.2448 24.7135 86.6449 25.2283C84.8388 25.4873 84.7618 26.9287 84.3173 28.4094C83.8101 30.0965 82.894 32.0103 82.7076 33.7618C82.4806 35.9065 86.6107 36.6366 88.1581 37.1484L99.4475 40.8646L112.754 45.2452C114.286 45.748 120.211 48.5605 121.077 46.0842C121.639 44.4756 124.146 45.3216 123.581 46.9368C122.124 51.0975 117.639 49.6456 114.564 48.6321C110.569 47.3172 106.578 46.0034 102.584 44.6884C98.0809 43.204 93.5767 41.723 89.0737 40.2386C86.7648 39.4787 83.4481 38.921 81.5662 37.2571C79.6843 35.5932 79.9677 33.688 80.6041 31.5669C81.2073 29.5652 81.7127 27.5003 82.4161 25.5327C83.7862 21.7157 89.3939 22.4185 92.6713 22.2159C94.9597 22.0726 97.2503 21.9337 99.5388 21.7903C101.343 21.6799 103.059 21.4539 104.765 22.2662C107.686 23.66 110.366 25.9431 113.042 27.739C116.496 30.0612 120.08 32.2635 123.434 34.7272C125.639 36.3482 125.725 38.241 125.132 40.6418C124.615 42.7401 124.096 44.834 123.579 46.9323C123.171 48.5898 120.667 47.726 121.074 46.0797L121.079 46.0886Z" fill="black"/>
<path d="M114.717 58.9614C111.64 75.9363 79.4118 81.5907 70.2422 65.66C63.414 53.7977 73.9023 42.703 84.3286 37.4167L119.396 48.4694C122.804 49.667 124.926 52.4432 123.593 56.0525C122.18 59.8849 118.18 59.6697 114.714 58.9602" fill="white"/>
<path d="M116.04 59.0389C113.782 70.6647 100.915 76.1248 90.2005 76.3909C84.5557 76.5307 78.5741 75.23 73.9898 71.7948C68.9694 68.0317 65.8876 61.6498 66.9662 55.3398C68.1367 48.486 73.3239 42.9473 78.8672 39.1431C80.4144 38.0789 83.0148 35.7824 84.961 36.2283C85.9536 36.4542 86.936 36.8521 87.9058 37.1561C96.6556 39.9145 105.405 42.6728 114.159 45.4322C117.07 46.3487 120.77 47.007 123.096 49.1171C125.729 51.5073 126.043 55.5988 123.786 58.3969C121.472 61.2652 117.503 60.8512 114.294 60.2181C112.628 59.89 113.5 57.3824 115.148 57.7081C117.914 58.2538 121.558 58.5384 122.503 55.1628C123.252 52.4901 121.303 50.5532 118.949 49.7182C117.093 49.0604 115.184 48.5297 113.309 47.94C105.572 45.5004 97.8353 43.0609 90.0941 40.6235C88.0311 39.9735 85.9714 39.3246 83.9083 38.6746L84.9186 38.6077C79.3261 41.4839 73.7629 45.7519 70.9506 51.539C68.1384 57.326 69.3873 63.6516 73.7713 68.1129C81.0946 75.5653 94.2665 74.9667 103.044 70.7138C107.876 68.3742 112.336 64.3804 113.402 58.8874C113.722 57.2339 116.369 57.3731 116.043 59.0433L116.04 59.0389Z" fill="black"/>
<path d="M92.8597 44.9189C92.4339 46.7719 91.7735 48.4927 91.0994 50.2649C90.7777 51.1114 90.5641 52.1441 89.7725 52.685C88.7758 53.3689 87.6343 52.8907 86.6489 52.4357C85.0618 51.7013 83.6142 51.1151 81.9557 52.1227C76.7528 55.2885 83.6689 60.5109 87.3908 60.0974C89.0747 59.9126 89.6111 62.5076 87.9182 62.6969C83.2906 63.2091 76.6727 59.5521 77.6346 54.1322C78.1795 51.0538 81.0875 48.7948 84.1911 48.8841C84.9396 48.9074 85.6758 49.1094 86.3667 49.3895C86.7984 49.5663 87.3572 49.764 87.7447 50.0378C88.4508 50.5359 88.1089 50.4456 88.3173 50.1618C88.7781 49.5307 89.0172 48.3797 89.2845 47.6491C89.7179 46.4747 90.071 45.2841 90.3529 44.0618C90.7328 42.3986 93.2362 43.2658 92.8575 44.9145L92.8597 44.9189Z" fill="black"/>
<path d="M119.041 48.4505C116.11 47.8078 113.261 47.6182 110.295 47.2659C105.916 46.7424 101.522 45.8253 97.2091 44.8762C92.1889 43.7722 86.7768 43.0427 81.9535 41.2401C80.3342 40.6329 74.7317 38.8862 76.4998 36.2541C77.2473 35.1418 79.7235 35.1146 81.0915 34.9603" fill="black"/>
<path d="M118.614 49.7053C115.629 49.0812 112.581 48.895 109.561 48.5055C106.802 48.1488 104.065 47.6503 101.338 47.0993C95.4676 45.9111 89.403 44.9743 83.6734 43.218C81.0413 42.4116 76.9923 41.4104 75.3883 38.9523C74.6221 37.7766 74.6914 36.3251 75.6295 35.2552C76.8837 33.8261 79.0929 33.8388 80.8337 33.6621C82.5745 33.4854 83.0561 36.088 81.3611 36.2616C80.6855 36.3303 77.4811 36.3075 77.4844 37.2721C77.4876 38.0836 79.4863 38.8461 80.0636 39.0987C83.5221 40.6084 87.2224 41.5171 90.9061 42.2669C95.7496 43.2548 100.582 44.351 105.449 45.2048C110.316 46.0587 114.845 46.2299 119.469 47.1953C121.132 47.5413 120.263 50.05 118.614 49.7053Z" fill="black"/>
<path d="M15.7845 113.576C18.3872 111.964 27.4423 113.173 31.6445 113.979L43.0312 121.033L34.6945 129.094C27.3068 124.593 13.1819 115.188 15.7845 113.576Z" fill="black"/>
<path d="M18.9556 111.723C20.2886 111.617 21.8269 111.646 23.3807 111.747C26.297 111.938 29.3755 112.395 31.4726 112.786L31.8786 112.863L32.0965 112.905L44.7188 120.809L34.8046 130.5L34.0116 130.012C30.3795 127.775 25.0784 124.312 20.9925 121.196C18.9613 119.647 17.1715 118.14 16.0423 116.886C15.4945 116.278 15.0018 115.623 14.7712 114.977C14.6519 114.642 14.5664 114.211 14.6746 113.751C14.7922 113.251 15.1022 112.871 15.4954 112.624L15.5805 112.573C16.4716 112.048 17.7123 111.822 18.9556 111.723ZM23.225 114.135C21.7305 114.037 20.3183 114.015 19.1446 114.109C18.2623 114.179 17.6094 114.309 17.1723 114.464C17.2991 114.665 17.5041 114.938 17.815 115.283C18.7875 116.362 20.4283 117.759 22.4389 119.292C26.1522 122.124 30.9266 125.273 34.4713 127.483L40.8746 121.224L31.2087 115.171C29.1808 114.787 26.1066 114.323 23.225 114.135Z" fill="black"/>
<path d="M42.0642 113.606C37.4747 114.411 55.9868 125.52 64.4075 130.219L73.9688 118.942C63.7029 111.089 47.801 112.599 42.0642 113.606Z" fill="black"/>
<path d="M42.2126 112.442C45.2012 111.941 50.5421 111.36 56.4336 111.829C62.5009 112.311 69.2794 113.916 74.6509 117.997L75.6562 118.761L64.6736 131.625L63.8097 131.146C59.6017 128.815 52.8605 124.886 47.732 121.43C45.1859 119.714 42.9615 118.065 41.6553 116.761C41.324 116.43 41.0287 116.099 40.7965 115.775C40.575 115.466 40.3534 115.086 40.2621 114.662C40.1607 114.191 40.217 113.608 40.6504 113.131C41.0256 112.718 41.533 112.559 41.9308 112.49L42.2126 112.442ZM56.2417 114.211C50.8665 113.784 45.9523 114.271 43.0348 114.731C43.1283 114.836 43.2365 114.951 43.3608 115.075C44.4887 116.201 46.5416 117.739 49.0827 119.451C53.7944 122.626 59.9249 126.229 64.1197 128.578L72.16 119.16C67.4693 116.001 61.6751 114.643 56.2417 114.211Z" fill="black"/>
<path d="M84.5339 82.019C73.7974 79.6041 62.7044 102.746 58.5 114.619L74.1405 120.656L86.6529 105.664L98.1562 93.8919C97.7526 92.0137 95.2703 84.4338 84.5339 82.019Z" fill="#343EAD"/>
<path d="M76.0792 83.5408C78.8299 81.421 81.8905 80.2117 85.0552 80.9235L85.3186 80.9842C96.4039 83.5923 99.0773 91.5363 99.5357 93.6698C99.6203 94.0632 99.5018 94.4728 99.2203 94.761L87.7974 106.452L75.366 121.348C75.0348 121.745 74.4864 121.886 74.0036 121.7L58.427 115.687C57.8191 115.453 57.5083 114.779 57.7254 114.165C59.8392 108.196 63.6873 99.3789 68.382 92.3297C70.7263 88.8097 73.3259 85.6627 76.0792 83.5408ZM84.5244 83.2697C82.3429 82.779 80.0129 83.549 77.5541 85.4439C75.0979 87.3368 72.6687 90.2404 70.3911 93.6602C66.1188 100.075 62.5342 108.069 60.3963 113.868L74.066 119.145L85.9732 104.878L86.0042 104.842C86.0147 104.83 86.0254 104.819 86.0364 104.808L97.0191 93.5673C96.335 91.2825 93.6733 85.4197 84.7592 83.3238L84.5244 83.2697Z" fill="black"/>
<path d="M57.4644 105.912C57.751 105.125 58.6357 104.714 59.4404 104.994C60.2452 105.275 60.6652 106.14 60.3787 106.927C60.2352 107.321 59.9732 107.757 59.7337 108.124C59.4743 108.521 59.1605 108.959 58.8395 109.387C58.1966 110.245 57.4838 111.121 57.0206 111.669C56.4765 112.313 55.5015 112.404 54.843 111.872C54.1844 111.34 54.0915 110.387 54.6355 109.742C55.0704 109.227 55.7449 108.399 56.3444 107.599C56.6446 107.198 56.9157 106.818 57.1258 106.496C57.2308 106.335 57.3139 106.199 57.3753 106.088C57.4057 106.034 57.4283 105.99 57.4441 105.958C57.4602 105.924 57.4653 105.91 57.4644 105.912Z" fill="black"/>
<path d="M59.7504 87.4688H67.8197L77.9062 79.4948L70.1396 77.6472C61.1626 77.1609 59.0443 84.8108 59.7504 87.4688Z" fill="white"/>
<path d="M60.1781 80.6311C62.0073 78.0477 65.1914 76.0345 70.036 76.2321L70.2679 76.2433L70.4047 76.2507L70.5378 76.2829L81.2812 78.8668L68.4079 89.1562H58.6916L58.3936 88.0229C58.1382 87.0508 58.1698 85.8112 58.4414 84.5693C58.7189 83.3006 59.2717 81.9113 60.1781 80.6311ZM69.9709 79.2765C66.1038 79.102 63.882 80.6505 62.6459 82.3962C61.9983 83.3108 61.5985 84.3138 61.3997 85.2228C61.3289 85.5467 61.2867 85.8453 61.2654 86.1121H67.3505L74.5306 80.3732L69.9709 79.2765Z" fill="black"/>
<path d="M97.8354 86.0948C99.2042 88.0654 98.8255 90.9174 98.465 92.097C97.9481 94.3372 96.6193 99.156 95.4391 100.509C93.9637 102.201 92.8047 99.2771 87.9819 94.0601C83.1592 88.8431 88.5439 84.5652 89.996 83.3025C91.1576 82.2923 94.9403 87.7162 95.9433 89.6695C96.0132 88.3825 96.4666 84.1241 97.8354 86.0948Z" fill="black"/>
<path d="M100.002 89.3588C99.9668 88.1188 99.6894 86.6542 98.8237 85.408L98.738 85.289C98.5284 85.0095 98.2527 84.7231 97.889 84.5466C97.3875 84.3033 96.8252 84.3235 96.35 84.6096C95.9608 84.8441 95.728 85.198 95.5923 85.4503C95.4462 85.7219 95.336 86.0226 95.2503 86.3078C94.8408 85.7296 94.4002 85.1453 93.9573 84.6085C93.3307 83.8493 92.6441 83.1153 91.9923 82.6304C91.6731 82.393 91.2788 82.1515 90.8419 82.0396C90.3828 81.9221 89.7745 81.9323 89.2549 82.3522L89.2049 82.3941C88.5284 82.9824 86.6073 84.5274 85.5544 86.667C85.0135 87.7661 84.6746 89.0693 84.8629 90.512C85.0459 91.9139 85.7123 93.3355 86.973 94.7419L87.0969 94.878C88.2806 96.1584 89.2412 97.2999 90.0447 98.2736C90.834 99.2299 91.5111 100.074 92.0783 100.691C92.604 101.263 93.2374 101.879 93.982 102.103C94.415 102.233 94.8792 102.232 95.3333 102.053C95.7575 101.886 96.0876 101.598 96.346 101.301L96.4242 101.208C96.8117 100.732 97.1494 100.081 97.4383 99.4254C97.7585 98.6995 98.065 97.8601 98.3439 97.0125C98.8964 95.3341 99.3632 93.5527 99.6294 92.404C99.8405 91.6938 100.036 90.5775 100.002 89.3588ZM92.0995 86.1415C93.269 87.5587 94.4148 89.3313 94.8712 90.22L96.7627 93.9034C96.5553 94.6583 96.315 95.4729 96.056 96.2596C95.7907 97.0659 95.5114 97.8251 95.2343 98.4533C94.949 99.1002 94.7066 99.5128 94.5372 99.7105C94.5135 99.6934 94.4863 99.6733 94.4562 99.6491C94.2991 99.5229 94.1024 99.3336 93.8517 99.0608C93.342 98.5063 92.7329 97.7468 91.9024 96.7404C91.0861 95.7514 90.0932 94.5709 88.8656 93.2429L88.767 93.1347C87.7686 92.0213 87.3602 91.0351 87.2512 90.2002C87.1382 89.3342 87.3318 88.5107 87.7158 87.7304C88.4115 86.3167 89.6413 85.2033 90.4584 84.4946C90.4874 84.5143 90.5197 84.537 90.5548 84.5632C90.9703 84.8722 91.5098 85.4269 92.0995 86.1415ZM97.3585 87.8719C97.5057 88.3601 97.579 88.8895 97.5942 89.427C97.6216 90.3956 97.4568 91.2732 97.3125 91.7454L97.3002 91.7857L97.2907 91.8266C97.2028 92.2077 97.0902 92.6659 96.9589 93.1696L97.1451 89.7351C97.1685 89.3046 97.2362 88.5645 97.3585 87.8719Z" fill="black"/>
<path d="M109.29 83.082C109.423 82.4546 110.02 82.0368 110.652 82.1409C111.283 82.2451 111.719 82.8331 111.649 83.4709L111.641 83.5327C110.798 88.7844 108.386 91.8748 105.58 93.5159C102.83 95.1245 99.8341 95.2632 97.875 94.8909L98.3159 92.5066C99.8187 92.7921 102.214 92.684 104.384 91.4147C106.499 90.1778 108.538 87.759 109.279 83.1434L109.29 83.082Z" fill="black"/>
<path d="M106.796 91.1188C106.553 80.6492 113.31 71.3206 116.719 67.9649L112.669 66.6562C101.49 73.5823 99.9103 87.7296 100.518 93.9375L106.796 91.1188Z" fill="#343EAD"/>
<path d="M112.138 65.3982C112.423 65.2391 112.762 65.2061 113.074 65.3089L117.025 66.6102L117.097 66.6368C117.454 66.781 117.722 67.093 117.812 67.4752C117.901 67.8574 117.8 68.2579 117.545 68.5494L117.492 68.6063C115.92 70.1843 113.516 73.2338 111.539 77.1583C109.563 81.0813 108.052 85.8033 108.165 90.7493C108.176 91.2314 107.901 91.6733 107.468 91.8718L101.344 94.6748C100.996 94.8342 100.593 94.8137 100.263 94.6196C99.932 94.4256 99.7139 94.0819 99.6768 93.6964C99.366 90.4582 99.6157 85.229 101.346 79.9075C103.079 74.5752 106.329 69.0653 112.081 65.4318L112.138 65.3982ZM112.875 67.7695C108.006 71.0239 105.163 75.842 103.597 80.6593C102.26 84.7719 101.875 88.8257 101.94 91.7658L105.79 90.0038C105.835 84.8401 107.439 80.0145 109.428 76.0658C111.046 72.853 112.942 70.1757 114.529 68.314L112.875 67.7695Z" fill="black"/>
<path d="M76.7378 77.5257C75.7977 75.5404 76.3461 73.3897 76.7378 72.5625L80.1562 74.1135V79.5938L76.7378 77.5257Z" fill="#343EAD"/>
<path d="M76.3882 71.7927C76.6937 71.6815 77.0312 71.6962 77.3258 71.8332L80.579 73.3465L80.6187 73.3658C81.0243 73.5725 81.2812 73.9877 81.2812 74.4426V79.7894C81.2812 80.2295 81.0405 80.6349 80.6526 80.8483C80.2647 81.0616 79.7907 81.0492 79.4146 80.816L76.1615 78.7983C75.9719 78.6807 75.8188 78.5138 75.7185 78.3162L75.699 78.2762C74.6055 75.9086 75.2383 73.4224 75.699 72.4249L75.7258 72.3708C75.8659 72.1035 76.1018 71.8968 76.3882 71.7927ZM77.5915 74.6308C77.4937 75.3098 77.4995 76.1469 77.7886 76.9523L78.8414 77.6052V75.212L77.5915 74.6308Z" fill="black"/>
<path d="M76.864 77.6377C74.6522 77.4665 72.5509 79.0651 71.7768 79.8858C70.2285 81.3131 66.9992 84.5531 66.4683 86.0946C65.8048 88.0215 68.6802 87.5933 75.0945 88.9849C81.5089 90.3766 82.0619 82.8831 82.3936 81.1704C82.6591 79.8001 78.6704 79.6717 76.6428 79.7787C77.6382 79.1364 79.0759 77.809 76.864 77.6377Z" fill="black"/>
<path d="M73.2097 77.139C74.2163 76.5893 75.5224 76.1238 76.9342 76.2354L77.0468 76.2452C77.616 76.3007 78.2683 76.4499 78.7226 76.9073C79.0039 77.1906 79.1701 77.5551 79.195 77.9507C79.2054 78.1152 79.1902 78.269 79.1611 78.409C79.6192 78.4385 80.0773 78.4848 80.5077 78.5533C81.151 78.6558 81.8537 78.825 82.4081 79.137C82.6914 79.2964 83.0125 79.5353 83.2425 79.8955C83.4773 80.2632 83.5758 80.6953 83.5124 81.1418L83.4977 81.2313C83.3635 81.9385 83.1071 84.54 82.0356 86.6723C81.4843 87.7694 80.6691 88.8585 79.4446 89.5539C78.2341 90.2413 76.7526 90.4707 74.9977 90.116L74.827 90.0797C73.2711 89.7351 71.9275 89.5027 70.7878 89.3167C69.6702 89.1343 68.6859 88.9877 67.9327 88.8231C67.2396 88.6717 66.4337 88.4509 65.89 87.944C65.5718 87.6473 65.3464 87.2593 65.2744 86.7932C65.2073 86.3588 65.2875 85.9472 65.4057 85.597L65.4441 85.4895C65.6469 84.9496 66.0133 84.3726 66.3991 83.8404C66.828 83.2486 67.3526 82.6161 67.8952 82.0031C68.9682 80.7911 70.1614 79.5999 70.9486 78.8576C71.4199 78.3556 72.2205 77.6793 73.2097 77.139ZM75.7789 78.7111C75.3028 78.8128 74.824 79.0041 74.3652 79.2547C73.597 79.6743 72.9878 80.2024 72.6882 80.5266L72.6597 80.5576L72.6289 80.5864C71.8829 81.2884 70.7271 82.4411 69.7001 83.6012C69.1863 84.1816 68.7172 84.7498 68.351 85.2551C68.0216 85.7095 67.8226 86.0502 67.7283 86.2694C67.893 86.3316 68.1248 86.3974 68.4473 86.4679C69.1174 86.6143 69.9944 86.7447 71.176 86.9376C72.3354 87.1268 73.729 87.3675 75.3481 87.726L75.473 87.7525C76.7501 88.0114 77.6252 87.8146 78.2541 87.4575C78.9284 87.0745 79.4613 86.4262 79.8817 85.5898C80.6556 84.0496 80.8857 82.2611 81.0635 81.163C80.8621 81.0842 80.5526 81.0016 80.1285 80.9341C79.0406 80.7608 77.6457 80.7522 76.6852 80.804L72.2378 81.0437L75.7789 78.7111Z" fill="black"/>
<path d="M93.4044 63.4444C95.2826 62.8186 96.9047 62.8481 98.1153 63.5689C99.3915 64.3288 99.8921 65.6658 99.8401 66.9148C99.7886 68.1531 99.2036 69.4265 98.1569 70.3093C97.1128 71.19 95.6636 71.6367 93.9672 71.3521L93.8023 71.3222C89.1937 70.4285 84.3607 67.8 82.308 66.4751C81.2806 66.2618 80.4197 66.0017 79.7931 65.7523C79.17 65.5042 78.8686 64.8043 79.1199 64.189C79.3711 63.5738 80.0801 63.276 80.7032 63.5241C81.2108 63.7262 82.0061 63.9687 83.0191 64.1668L83.265 64.2131C85.8415 64.6817 89.5295 64.809 93.2221 63.5069L93.4044 63.4444ZM96.8587 65.6262C96.4917 65.4077 95.6858 65.2198 94.1876 65.7189L94.0403 65.7695C92.0317 66.4777 90.0369 66.812 88.1882 66.9114C90.065 67.7666 92.2114 68.5656 94.2712 68.965L94.3708 68.983C95.389 69.1551 96.1043 68.8808 96.5763 68.4827C97.0948 68.0455 97.3843 67.4045 97.4088 66.816C97.4328 66.2383 97.2111 65.836 96.8587 65.6262Z" fill="black"/>
<path d="M98.3626 66.0961C98.9826 66.0579 99.5186 66.4908 99.56 67.0631C99.6013 67.6353 99.1323 68.1301 98.5124 68.1683L95.6999 68.3414C95.0799 68.3796 94.5439 67.9467 94.5025 67.3744C94.4612 66.8022 94.9302 66.3074 95.5501 66.2692L98.3626 66.0961Z" fill="black"/>
<circle cx="79.4531" cy="46.8281" r="1.54688" fill="black"/>
<circle cx="98.8594" cy="51.6094" r="1.54688" fill="black"/>
<path d="M98.7019 52.6022C99.0405 52.5877 99.3956 52.5899 99.7279 52.6247C100.032 52.6565 100.359 52.7197 100.64 52.8481L100.695 52.8746L100.721 52.8883C100.982 53.0336 101.048 53.3084 100.866 53.5135C100.684 53.7185 100.32 53.7786 100.042 53.6538L100.015 53.6412L99.983 53.6268C99.9012 53.5931 99.7646 53.5587 99.5587 53.5371C99.331 53.5133 99.061 53.5096 98.7716 53.522C98.1918 53.5468 97.5985 53.6329 97.2374 53.7036L97.2066 53.7091C96.8888 53.7586 96.5716 53.6126 96.4887 53.3741C96.4033 53.128 96.5999 52.8763 96.9278 52.8121L97.0975 52.7806C97.5193 52.7059 98.11 52.6275 98.7019 52.6022Z" fill="black"/>
<path d="M76.2403 91.3306C77.3188 91.5326 78.8616 91.9581 80.2511 92.6344C81.6734 93.3266 83.1131 94.3679 83.5295 95.8588L83.5485 95.93L83.5556 95.9603C83.6185 96.2725 83.4261 96.5827 83.1139 96.6623C82.8018 96.7419 82.4843 96.5618 82.39 96.2575L82.3817 96.2276L82.356 96.1364C82.0688 95.1979 81.0738 94.3741 79.7241 93.7172C78.3681 93.0572 76.8265 92.65 75.8291 92.4804L75.7987 92.4745C75.4877 92.4052 75.2825 92.1035 75.3365 91.7859C75.3922 91.458 75.7032 91.2374 76.0311 91.2931L76.2403 91.3306Z" fill="black"/>
<path d="M76.4814 94.807C77.5318 94.4633 78.7921 94.3226 79.9769 94.8444L80.0913 94.8969L80.1189 94.911C80.3979 95.0629 80.5161 95.417 80.3825 95.7172C80.249 96.0175 79.9128 96.1537 79.6204 96.0319L79.5923 96.0194L79.5124 95.9828C78.6844 95.6182 77.7411 95.6908 76.8395 95.9858C75.9114 96.2895 75.1022 96.8058 74.6551 97.1769L74.6307 97.1963C74.375 97.3873 74.0171 97.3388 73.818 97.0806C73.6125 96.814 73.6542 96.425 73.9111 96.2118L74.0179 96.1253C74.5745 95.6852 75.4624 95.1404 76.4814 94.807Z" fill="black"/>
<path d="M37.711 78.9129C37.8377 78.257 38.4418 77.8236 39.0779 77.9195L39.1394 77.9305L54.4278 81.0552L54.4889 81.0693C55.1122 81.2308 55.5094 81.8687 55.3827 82.5246C55.2561 83.1805 54.6519 83.6139 54.0159 83.518L53.9544 83.507L38.666 80.3823L38.6048 80.3682C37.9816 80.2067 37.5844 79.5688 37.711 78.9129Z" fill="black"/>
<path d="M43.142 64.3405C43.5682 63.8572 44.2958 63.7972 44.7944 64.194L44.8418 64.2338L56.4302 74.4535L56.4758 74.4956C56.9317 74.9407 56.9631 75.67 56.5369 76.1533C56.1107 76.6366 55.3831 76.6966 54.8845 76.2998L54.8371 76.26L43.2488 66.0403L43.2032 65.9982C42.7473 65.5531 42.7159 64.8238 43.142 64.3405Z" fill="black"/>
<path d="M59.4579 63.9549C60.086 63.8112 60.7117 64.1873 60.8851 64.8003L60.9006 64.8605L62.6 72.2885L62.6123 72.3493C62.7228 72.9768 62.3228 73.5874 61.6947 73.7311C61.0665 73.8748 60.4408 73.4988 60.2675 72.8857L60.252 72.8257L58.5523 65.3977L58.5403 65.3369C58.4298 64.7094 58.8297 64.0986 59.4579 63.9549Z" fill="black"/>
<path d="M93.0478 28.8908C93.1009 28.7807 93.1466 28.6685 93.2078 28.5647C93.3841 28.265 93.6482 28.0678 93.9709 27.9508C94.6804 27.6933 95.3918 27.4362 96.1026 27.1811C96.4955 27.0403 96.8893 27.0289 97.2731 27.1994C97.4456 27.2762 97.6097 27.3824 97.7626 27.4934C98.9615 28.3682 100.155 29.2493 101.351 30.1273C101.797 30.4546 101.998 30.8931 101.955 31.4431C101.949 31.5051 101.933 31.5681 101.914 31.6283C101.78 32.085 101.647 32.54 101.512 32.9962C101.278 33.7843 101.043 34.5717 100.811 35.3603C100.696 35.7527 100.581 36.1475 100.475 36.5425C100.322 37.103 99.7649 37.3899 99.3396 37.3586C99.196 37.3476 99.0534 37.2912 98.9121 37.2511C98.6296 37.1709 98.347 37.0907 98.0655 37.0068C97.9683 36.9792 97.8673 36.9506 97.7777 36.9033C97.5706 36.7948 97.4928 36.58 97.5569 36.326C97.5642 36.3003 97.571 36.2764 97.5783 36.2506C97.9276 35.0623 98.2781 33.8763 98.6274 32.688C98.6561 32.5869 98.6843 32.4876 98.7111 32.386C98.7299 32.3198 98.7126 32.2831 98.6463 32.2583C98.5799 32.2335 98.5102 32.2137 98.4405 32.1939C98.2392 32.1348 98.0397 32.0762 97.8384 32.017C97.7302 31.9863 97.7024 32.0003 97.6703 32.1064C97.4683 32.7901 97.2608 33.4723 97.0679 34.1586C96.9807 34.4657 96.866 34.751 96.6496 34.9896C96.3502 35.3179 95.976 35.4977 95.5367 35.5439C94.9878 35.5987 94.4376 35.6511 93.8882 35.7077C93.7614 35.7214 93.6359 35.7096 93.5135 35.6729C93.1182 35.5567 92.7225 35.4423 92.3301 35.323C92.0344 35.2331 91.8021 35.0599 91.6545 34.7835C91.5064 34.509 91.4875 34.2195 91.5739 33.9222C91.5968 33.8413 91.6161 33.7594 91.6378 33.6761C91.91 32.752 92.1823 31.828 92.4545 30.9039C92.466 30.8773 92.4788 30.8532 92.4867 30.8256C92.6247 30.3601 92.761 29.8942 92.8985 29.4305C92.9064 29.403 92.9082 29.3757 92.9142 29.3476C92.957 29.1968 93.0034 29.0471 93.0462 28.8963L93.0478 28.8908ZM93.301 31.7144C93.301 31.7144 93.2973 31.7133 93.2955 31.7128C93.1754 32.1218 93.053 32.5321 92.9329 32.9411C92.8128 33.3501 92.6941 33.7614 92.5759 34.1709C92.5466 34.2738 92.5684 34.3158 92.6678 34.35C92.8235 34.4021 92.9805 34.4566 93.1362 34.5088C93.2919 34.5609 93.3846 34.5137 93.4276 34.3551C93.4657 34.2209 93.4892 34.0825 93.5267 33.9501C93.6123 33.6485 93.7035 33.3486 93.7909 33.0475C93.9877 32.3822 94.184 31.7187 94.3845 31.0544C94.4064 30.9772 94.4412 30.9036 94.4791 30.8329C94.7178 30.404 95.1994 30.195 95.6332 30.3082C95.8195 30.3571 96.0072 30.4084 96.1938 30.4634C97.1288 30.7387 98.065 31.0164 98.9989 31.2954C99.3735 31.4077 99.6069 31.6608 99.7177 32.0319C99.7816 32.2468 99.7617 32.4637 99.7016 32.6751C99.5852 33.0851 99.461 33.4949 99.3409 33.9039C99.1331 34.6078 98.9254 35.3118 98.7171 36.0176C98.6957 36.093 98.7206 36.1378 98.805 36.1617C98.9628 36.2065 99.1188 36.2508 99.2765 36.2956C99.4398 36.342 99.4676 36.328 99.5159 36.1649C99.9758 34.6007 100.438 33.037 100.897 31.4728C100.905 31.447 100.912 31.4231 100.919 31.3974C100.956 31.2451 100.922 31.1123 100.801 31.0084C100.771 30.9819 100.74 30.9592 100.709 30.9364C99.8952 30.3379 99.0818 29.7394 98.2683 29.1409C97.8519 28.834 97.4349 28.5289 97.0185 28.2219C96.853 28.0994 96.6761 28.073 96.4823 28.1412C96.4359 28.1578 96.3891 28.1763 96.3409 28.1924C95.6801 28.432 95.0174 28.6711 94.3558 28.9065C94.1775 28.9691 94.0644 29.088 94.0127 29.27C93.9558 29.4704 93.8984 29.6727 93.8415 29.8731C93.6617 30.4856 93.4819 31.0982 93.3002 31.7102L93.301 31.7144ZM94.4294 34.5977C94.4571 34.5977 94.4723 34.6 94.4867 34.5981C94.7982 34.5693 95.1097 34.5405 95.4199 34.5094C95.759 34.4745 95.9691 34.2858 96.0652 33.9614C96.2732 33.2496 96.4844 32.5406 96.6924 31.8288C96.7279 31.7038 96.7166 31.6807 96.5942 31.6439C96.2485 31.5418 95.9009 31.4392 95.5552 31.3371C95.4231 31.2996 95.3972 31.3141 95.3578 31.4459C95.056 32.4669 94.7556 33.4903 94.4539 34.5113C94.4471 34.5352 94.4398 34.5609 94.4299 34.5959L94.4294 34.5977Z" fill="white"/>
</svg>
