<svg width="48" height="48" viewBox="0 0 48 48" fill="none" xmlns="http://www.w3.org/2000/svg">
<path d="M7 9.2C7 7.43269 8.43269 6 10.2 6H37.6C39.3673 6 40.8 7.43269 40.8 9.2V37.8C40.8 39.5673 39.3673 41 37.6 41H10.2C8.43269 41 7 39.5673 7 37.8V9.2Z" fill="#EBAC1B"/>
<path d="M19.6995 6H28.0995V16.8837C28.0995 17.5002 27.7413 18 27.2995 18H20.4995C20.0576 18 19.6995 17.5002 19.6995 16.8837V6Z" fill="#90680D"/>
<path d="M36.1223 24.3426C36.0363 24.2136 35.9386 24.0964 35.8331 23.983C36.1536 20.3245 34.6761 17.1585 32.0651 15.2902C32.0651 15.2667 32.0651 15.2432 32.0573 15.2237C32.0456 15.169 32.0378 15.1182 32.0104 15.0205C31.9362 14.7429 31.8228 14.485 31.6782 14.2504L29.0672 10.4043C28.6412 9.79067 27.9962 9.38416 27.2536 9.25909C27.1011 9.23173 26.9409 9.22 26.7845 9.22C26.1474 9.22 25.5025 9.43498 24.9748 9.82975C24.0368 10.5255 23.599 11.6316 23.7514 12.6713C21.246 13.1169 18.85 14.2465 16.837 15.9624C11.1773 20.7779 9.8874 28.7203 13.9641 33.6726C15.7465 35.838 18.3653 37.1747 21.332 37.4405C21.6955 37.4718 22.0668 37.4874 22.4342 37.4874C25.7253 37.4874 29.0203 36.2249 31.7212 33.9305C35.0005 31.1398 36.1888 27.6806 36.4741 26.6878C36.7086 25.8748 36.5796 25.0227 36.1262 24.3426H36.1223Z" fill="#90680D"/>
<path d="M27.1668 22.3343C27.1668 22.628 27.1086 22.9189 26.9955 23.19L23.937 30.5256C23.7634 30.9421 23.3563 31.2134 22.9051 31.2134C22.0996 31.2134 21.5584 30.3873 21.8801 29.6488L24.757 23.0455H21.4226C20.8578 23.0455 20.3999 22.5876 20.3999 22.0227C20.3999 21.4579 20.8578 21 21.4226 21H25.8325C26.5694 21 27.1668 21.5974 27.1668 22.3343Z" fill="white"/>
<path d="M34.7626 25.738C34.664 25.5941 34.5119 25.4996 34.331 25.4791C33.9693 25.4379 33.6117 25.6928 33.5048 26.0504C33.3486 26.6012 32.4238 29.4579 29.7849 31.7022C27.6804 33.4943 25.1196 34.4808 22.5876 34.4808C20.0556 34.4808 17.873 33.5025 16.4097 31.731C14.9464 29.9553 14.3874 27.5877 14.8313 25.0639C15.2793 22.5278 16.6851 20.1438 18.7937 18.3516C21.5641 15.9964 24.5647 15.6429 26.1061 15.6429C26.6158 15.6429 27.1132 15.6799 27.5941 15.7538L27.9763 15.8114L24.6963 18.2612C24.3715 18.5037 24.2852 18.9353 24.5113 19.26C24.6264 19.3998 24.7949 19.4738 24.984 19.4738C25.095 19.4738 25.2676 19.445 25.4402 19.3176L29.8301 16.0375L29.8548 16.0169C29.8548 16.0169 29.8918 15.984 29.9535 15.9265L29.9822 15.8936C30.011 15.8607 30.0603 15.795 30.0932 15.7251L30.1096 15.684C30.1261 15.6429 30.1384 15.5894 30.1549 15.4908C30.1631 15.4209 30.1549 15.351 30.1384 15.2647C30.122 15.2031 30.1055 15.1578 30.1014 15.1455L27.368 11.1173C27.2529 10.9529 27.068 10.8584 26.8624 10.8584C26.7515 10.8584 26.5829 10.8871 26.4103 11.0146C26.2623 11.1255 26.1554 11.2817 26.1102 11.4544C26.0609 11.6393 26.0938 11.8243 26.1924 11.9682L27.8119 14.3522L27.257 14.3029C26.9282 14.2741 26.587 14.2577 26.2459 14.2577C23.2658 14.2577 20.3269 15.3593 17.9758 17.3569C15.5835 19.3916 13.9846 22.1003 13.4749 24.9899C12.9652 27.8919 13.6105 30.617 15.2999 32.6681C16.9893 34.7192 19.5213 35.8496 22.4232 35.8496C25.3251 35.8496 28.223 34.7274 30.6152 32.6928C33.5377 30.2101 34.5859 27.1479 34.8407 26.2682C34.8941 26.0792 34.8695 25.886 34.7667 25.7339L34.7626 25.738Z" fill="white"/>
<path fill-rule="evenodd" clip-rule="evenodd" d="M33.5048 26.0504C33.6117 25.6928 33.9693 25.4379 34.331 25.4791C34.4718 25.495 34.595 25.5558 34.6893 25.6498C34.7074 25.6678 34.7244 25.6871 34.7403 25.7075C34.7478 25.7171 34.7557 25.7279 34.7626 25.738C34.7624 25.7377 34.7628 25.7383 34.7626 25.738L34.7667 25.7339C34.7665 25.7336 34.7669 25.7342 34.7667 25.7339C34.7716 25.7412 34.7769 25.7494 34.7814 25.7568C34.7969 25.7822 34.8103 25.8087 34.8216 25.8359C34.8764 25.9678 34.8828 26.1193 34.8407 26.2682C34.5859 27.1479 33.5377 30.2101 30.6152 32.6928C28.223 34.7274 25.3251 35.8496 22.4232 35.8496C19.5213 35.8496 16.9893 34.7192 15.2999 32.6681C13.6105 30.617 12.9652 27.8919 13.4749 24.9899C13.9846 22.1003 15.5835 19.3916 17.9758 17.3569C20.3269 15.3593 23.2658 14.2577 26.2459 14.2577C26.587 14.2577 26.9282 14.2741 27.257 14.3029L27.8119 14.3522L26.1924 11.9682C26.0938 11.8243 26.0609 11.6393 26.1102 11.4544C26.1554 11.2817 26.2623 11.1255 26.4103 11.0146C26.5829 10.8871 26.7515 10.8584 26.8624 10.8584C27.068 10.8584 27.2529 10.9529 27.368 11.1173L30.1014 15.1455C30.102 15.1473 30.1029 15.1499 30.104 15.1531C30.1104 15.1716 30.1244 15.2122 30.1384 15.2647C30.1549 15.351 30.1631 15.4209 30.1549 15.4908C30.1384 15.5894 30.1261 15.6429 30.1096 15.684L30.0932 15.7251C30.0603 15.795 30.011 15.8607 29.9822 15.8936L29.9535 15.9265C29.8918 15.984 29.8548 16.0169 29.8548 16.0169L29.8301 16.0375L25.4402 19.3176C25.2676 19.445 25.095 19.4738 24.984 19.4738C24.7949 19.4738 24.6264 19.3998 24.5113 19.26C24.2852 18.9353 24.3715 18.5037 24.6963 18.2612L27.9763 15.8114L27.5941 15.7538C27.1132 15.6799 26.6158 15.6429 26.1061 15.6429C24.5647 15.6429 21.5641 15.9964 18.7937 18.3516C16.6851 20.1438 15.2793 22.5278 14.8313 25.0639C14.3874 27.5877 14.9464 29.9553 16.4097 31.731C17.873 33.5025 20.0556 34.4808 22.5876 34.4808C25.1196 34.4808 27.6804 33.4943 29.7849 31.7022C32.4238 29.4579 33.3486 26.6012 33.5048 26.0504ZM16.4978 31.6582C17.9372 33.4008 20.0861 34.3665 22.5876 34.3665C25.09 34.3665 27.625 33.3914 29.7108 31.6152C32.3248 29.392 33.2414 26.5605 33.3949 26.0192L33.3953 26.0177C33.5165 25.612 33.9222 25.3175 34.3439 25.3655C34.5444 25.3883 34.7163 25.4884 34.8335 25.6411C34.8443 25.6489 34.8538 25.6586 34.8614 25.6699C34.9853 25.8532 35.0122 26.0819 34.9507 26.2993C34.6929 27.1891 33.636 30.2766 30.6892 32.7799C28.2783 34.8304 25.3548 35.9639 22.4232 35.9639C19.4907 35.9639 16.9249 34.8209 15.2116 32.7408C13.4985 30.6609 12.8475 27.9008 13.3623 24.9701C13.8769 22.0523 15.4908 19.3204 17.9017 17.2698C20.2727 15.2553 23.2377 14.1433 26.2459 14.1433C26.5906 14.1433 26.9351 14.16 27.267 14.189L27.5819 14.217L26.0982 12.0328C26.0981 12.0328 26.0982 12.0329 26.0982 12.0328C25.9801 11.8605 25.9422 11.6409 25.9998 11.4249C26.0519 11.2264 26.1742 11.0488 26.3417 10.9231C26.5375 10.7786 26.7317 10.744 26.8624 10.744C27.1041 10.744 27.3245 10.8558 27.4617 11.0518L27.4626 11.0531L30.196 15.0813C30.2019 15.09 30.2066 15.0994 30.2099 15.1094C30.2103 15.1107 30.211 15.1127 30.212 15.1155C30.218 15.133 30.2336 15.1781 30.2489 15.2353L30.251 15.2433C30.268 15.3327 30.2787 15.4165 30.2684 15.5041L30.2678 15.5096C30.2513 15.6084 30.2373 15.6727 30.2158 15.7264L30.1968 15.7738C30.1581 15.856 30.1018 15.9306 30.0683 15.9689L30.0319 16.0105C30.0006 16.0396 29.9752 16.0621 29.9579 16.0779L29.938 16.0959L29.9327 16.1006L29.9313 16.1019L29.928 16.1048L29.8987 16.1292L25.5087 19.4091C25.3124 19.554 25.114 19.5881 24.984 19.5881C24.764 19.5881 24.5619 19.5013 24.423 19.3327L24.4172 19.3255C24.1527 18.9456 24.2584 18.4456 24.6278 18.1696L27.6885 15.8837L27.5771 15.8669C27.1022 15.7938 26.6103 15.7572 26.1061 15.7572C24.5806 15.7572 21.6103 16.1071 18.8678 18.4387C16.7778 20.215 15.3869 22.5758 14.9439 25.0838C14.505 27.5789 15.0585 29.9115 16.4978 31.6582Z" fill="white"/>
</svg>
