<svg width="24" height="24" viewBox="0 0 24 24" fill="none" xmlns="http://www.w3.org/2000/svg">
<g clip-path="url(#clip0_16483_18939)">
<path d="M11.9152 7.15356e-05C9.54519 0.0170715 7.23419 0.735071 5.27219 2.06407C3.31019 3.39307 1.78519 5.27307 0.890188 7.46707C-0.00581226 9.66107 -0.231812 12.0711 0.241188 14.3931C0.714188 16.7151 1.86319 18.8451 3.54519 20.5151C5.22719 22.1851 7.36519 23.3191 9.69019 23.7751C12.0152 24.2311 14.4242 23.9881 16.6122 23.0781C18.8002 22.1671 20.6692 20.6291 21.9842 18.6581C23.2992 16.6861 24.0002 14.3701 24.0002 12.0001C23.9892 8.80607 22.7092 5.74807 20.4422 3.49707C18.1762 1.24707 15.1092 -0.0109285 11.9152 7.15356e-05ZM11.9152 22.4701C10.4252 22.4801 8.95119 22.1731 7.58919 21.5681C6.22819 20.9631 5.01119 20.0751 4.02019 18.9621C3.02919 17.8501 2.28719 16.5391 1.84419 15.1171C1.40019 13.6951 1.26519 12.1951 1.44719 10.7161H8.50619C8.68619 10.7161 8.74119 10.7741 8.74119 10.9611C8.73619 13.0921 8.73519 15.2221 8.73719 17.3531C8.73719 17.4081 8.75819 17.4691 8.69919 17.5311L6.04719 14.5781H6.93519C7.14185 14.5781 7.24552 14.4717 7.24619 14.2591C7.24619 13.9471 7.24119 13.6351 7.24619 13.3241C7.24919 13.1691 7.19819 13.0991 7.04219 13.0991C5.73319 13.1021 4.42419 13.0991 3.11619 13.1011C3.06219 13.1011 2.98719 13.0861 2.96919 13.1521C2.95019 13.2181 3.01719 13.2661 3.05919 13.3121C3.75119 14.0771 4.44419 14.8421 5.13719 15.6071C6.50419 17.1191 7.87119 18.6321 9.23719 20.1441C9.50819 20.4431 9.44119 20.4381 9.70319 20.1441C11.0452 18.6261 12.3852 17.1051 13.7222 15.5811C14.6412 14.5391 15.5612 13.4981 16.4822 12.4581C17.3772 11.4451 18.2712 10.4321 19.1652 9.41907C19.1832 9.40007 19.1982 9.38007 19.2122 9.35907C19.2372 9.31707 19.3002 9.28707 19.2792 9.23007C19.2582 9.17307 19.1922 9.19207 19.1462 9.19207C18.6972 9.19207 18.2492 9.19207 17.8002 9.19007C17.7532 9.18907 17.7062 9.19807 17.6642 9.21807C17.6212 9.23807 17.5842 9.26707 17.5552 9.30407C16.7272 10.2391 15.8982 11.1731 15.0682 12.1081C14.5612 12.6801 14.0542 13.2531 13.5482 13.8261C12.4912 15.0181 11.4332 16.2101 10.3762 17.4011C10.3462 17.4431 10.3192 17.4871 10.2962 17.5341C10.2702 17.5011 10.2512 17.4631 10.2402 17.4221C10.2292 17.3811 10.2272 17.3391 10.2342 17.2971C10.2322 16.4791 10.2322 15.6601 10.2342 14.8421C10.2342 14.5911 10.2422 14.5831 10.4902 14.5821C10.9012 14.5821 11.3132 14.5781 11.7242 14.5821C11.8762 14.5841 11.9352 14.5291 11.9322 14.3661C11.9232 14.0151 11.9232 13.6651 11.9322 13.3141C11.9362 13.1501 11.8732 13.0981 11.7242 13.1001C11.3072 13.1061 10.8902 13.0951 10.4712 13.1051C10.2942 13.1091 10.2292 13.0461 10.2322 12.8591C10.2402 12.2291 10.2402 11.5991 10.2322 10.9691C10.2302 10.7861 10.2842 10.7151 10.4662 10.7191C10.8902 10.7301 11.3142 10.7191 11.7372 10.7251C11.9002 10.7281 11.9592 10.6611 11.9562 10.4951C11.9502 10.1511 11.9562 9.80607 11.9562 9.46207C11.9562 9.19407 11.9532 9.19207 11.6932 9.19207H1.75319C2.26519 7.29407 3.29819 5.57807 4.73519 4.23607C6.17219 2.89507 7.95619 1.98207 9.88419 1.60207C11.8122 1.22207 13.8092 1.38807 15.6482 2.08307C17.4872 2.77807 19.0942 3.97407 20.2892 5.53507C21.4842 7.09607 22.2182 8.96007 22.4082 10.9171C22.5982 12.8731 22.2372 14.8441 21.3662 16.6061C20.4952 18.3681 19.1482 19.8511 17.4782 20.8881C15.8082 21.9241 13.8812 22.4731 11.9152 22.4711V22.4701Z" fill="#004CAF"/>
</g>
<defs>
<clipPath id="clip0_16483_18939">
<rect width="24" height="24" fill="white"/>
</clipPath>
</defs>
</svg>
