<svg width="170" height="82" viewBox="0 0 170 82" fill="none" xmlns="http://www.w3.org/2000/svg">
<g opacity="0.8">
<mask id="path-1-outside-1_35973_33808" maskUnits="userSpaceOnUse" x="-1.24119" y="-14.4844" width="176.363" height="161.359" fill="black">
<rect fill="white" x="-1.24119" y="-14.4844" width="176.363" height="161.359"/>
<path d="M148.989 128.775C148.852 130.122 148.139 131.363 147.007 132.224C145.874 133.086 144.416 133.498 142.951 133.37L126.939 131.969L133.372 68.7326C133.756 64.9218 132.48 61.1242 129.825 58.1735C127.169 55.2227 123.351 53.36 119.208 52.9942L58.2918 47.6647C54.1491 47.309 50.0245 48.4779 46.8216 50.9154C43.6188 53.3529 41.5987 56.8601 41.2038 60.6689L34.7706 123.905L17.861 122.426C16.3966 122.298 15.0466 121.64 14.108 120.597C13.1694 119.554 12.719 118.212 12.8561 116.865L21.5675 31.2333C21.8415 28.5673 23.2361 26.1066 25.4544 24.375L63.4001 3.47381C65.2428 2.52615 67.3112 2.0103 69.4232 1.97171C71.5352 1.93312 73.6259 2.37298 75.511 3.25252L152.094 36.5176C153.872 37.523 155.309 38.9651 156.244 40.6809C157.18 42.3968 157.575 44.3183 157.387 46.2284L148.989 128.775ZM80.3577 104.006C80.0658 106.736 78.8972 109.323 77.0005 111.439C75.1039 113.554 72.565 115.101 69.7072 115.883L46.4235 122.299L52.592 61.6653C52.6972 60.6304 53.2442 59.6768 54.1132 59.0133C54.9821 58.3499 56.102 58.0307 57.2275 58.1258L84.8351 60.5412L80.3577 104.006ZM157.644 27.4096L157.207 27.192L80.4909 -6.13595C76.9229 -7.77389 72.9728 -8.57928 68.9893 -8.48103C65.0057 -8.38278 61.1112 -7.38391 57.6496 -5.5726L19.2225 15.5426L18.6114 15.9374C16.2373 17.6793 14.2688 19.8428 12.8227 22.2995C11.3766 24.7561 10.4824 27.4558 10.1932 30.2382L1.48172 115.87C1.06996 119.99 2.4507 124.094 5.32139 127.284C8.19208 130.474 12.3186 132.489 16.7967 132.887L39.4074 134.865C39.7783 134.896 40.1515 134.894 40.522 134.86L40.9477 134.782C41.1627 134.758 41.3758 134.721 41.5857 134.672L73.0358 126.011C78.0776 124.625 82.5521 121.885 85.8857 118.142C89.2192 114.399 91.2598 109.823 91.7458 105.002L96.1681 61.5327L118.144 63.4553C119.271 63.5539 120.311 64.0605 121.034 64.8636C121.756 65.6667 122.103 66.7004 121.998 67.7375L115.032 136.205C114.891 137.592 115.355 138.975 116.322 140.049C117.288 141.123 118.679 141.801 120.187 141.933L141.887 143.831C144.107 144.027 146.347 143.819 148.479 143.218C150.611 142.618 152.592 141.637 154.31 140.332C156.029 139.026 157.45 137.422 158.493 135.61C159.537 133.798 160.182 131.815 160.391 129.772L168.786 47.2514C169.177 43.3107 168.34 39.3474 166.373 35.825C164.405 32.3027 161.389 29.3669 157.677 27.3612"/>
</mask>
<path d="M148.989 128.775C148.852 130.122 148.139 131.363 147.007 132.224C145.874 133.086 144.416 133.498 142.951 133.37L126.939 131.969L133.372 68.7326C133.756 64.9218 132.48 61.1242 129.825 58.1735C127.169 55.2227 123.351 53.36 119.208 52.9942L58.2918 47.6647C54.1491 47.309 50.0245 48.4779 46.8216 50.9154C43.6188 53.3529 41.5987 56.8601 41.2038 60.6689L34.7706 123.905L17.861 122.426C16.3966 122.298 15.0466 121.64 14.108 120.597C13.1694 119.554 12.719 118.212 12.8561 116.865L21.5675 31.2333C21.8415 28.5673 23.2361 26.1066 25.4544 24.375L63.4001 3.47381C65.2428 2.52615 67.3112 2.0103 69.4232 1.97171C71.5352 1.93312 73.6259 2.37298 75.511 3.25252L152.094 36.5176C153.872 37.523 155.309 38.9651 156.244 40.6809C157.18 42.3968 157.575 44.3183 157.387 46.2284L148.989 128.775ZM80.3577 104.006C80.0658 106.736 78.8972 109.323 77.0005 111.439C75.1039 113.554 72.565 115.101 69.7072 115.883L46.4235 122.299L52.592 61.6653C52.6972 60.6304 53.2442 59.6768 54.1132 59.0133C54.9821 58.3499 56.102 58.0307 57.2275 58.1258L84.8351 60.5412L80.3577 104.006ZM157.644 27.4096L157.207 27.192L80.4909 -6.13595C76.9229 -7.77389 72.9728 -8.57928 68.9893 -8.48103C65.0057 -8.38278 61.1112 -7.38391 57.6496 -5.5726L19.2225 15.5426L18.6114 15.9374C16.2373 17.6793 14.2688 19.8428 12.8227 22.2995C11.3766 24.7561 10.4824 27.4558 10.1932 30.2382L1.48172 115.87C1.06996 119.99 2.4507 124.094 5.32139 127.284C8.19208 130.474 12.3186 132.489 16.7967 132.887L39.4074 134.865C39.7783 134.896 40.1515 134.894 40.522 134.86L40.9477 134.782C41.1627 134.758 41.3758 134.721 41.5857 134.672L73.0358 126.011C78.0776 124.625 82.5521 121.885 85.8857 118.142C89.2192 114.399 91.2598 109.823 91.7458 105.002L96.1681 61.5327L118.144 63.4553C119.271 63.5539 120.311 64.0605 121.034 64.8636C121.756 65.6667 122.103 66.7004 121.998 67.7375L115.032 136.205C114.891 137.592 115.355 138.975 116.322 140.049C117.288 141.123 118.679 141.801 120.187 141.933L141.887 143.831C144.107 144.027 146.347 143.819 148.479 143.218C150.611 142.618 152.592 141.637 154.31 140.332C156.029 139.026 157.45 137.422 158.493 135.61C159.537 133.798 160.182 131.815 160.391 129.772L168.786 47.2514C169.177 43.3107 168.34 39.3474 166.373 35.825C164.405 32.3027 161.389 29.3669 157.677 27.3612" fill="#F8F8F9"/>
<path d="M126.939 131.969L126.441 131.926L126.39 132.423L126.888 132.467L126.939 131.969ZM133.372 68.7326L133.87 68.7762L133.87 68.7757L133.372 68.7326ZM119.208 52.9942L119.259 52.4968L119.259 52.4967L119.208 52.9942ZM58.2918 47.6647L58.3424 47.1672L58.3416 47.1672L58.2918 47.6647ZM41.2038 60.6689L40.7058 60.6244L40.7057 60.6254L41.2038 60.6689ZM34.7706 123.905L34.72 124.403L35.2181 124.447L35.2687 123.949L34.7706 123.905ZM21.5675 31.2333L21.0695 31.1892L21.0694 31.1897L21.5675 31.2333ZM25.4544 24.375L25.2171 23.9386L25.1814 23.9583L25.1493 23.9834L25.4544 24.375ZM63.4001 3.47381L63.1756 3.03067L63.1691 3.03399L63.1628 3.03748L63.4001 3.47381ZM75.511 3.25252L75.2937 3.70551L75.3058 3.71077L75.511 3.25252ZM152.094 36.5176L152.345 36.0824L152.323 36.0697L152.299 36.0593L152.094 36.5176ZM157.387 46.2284L157.885 46.272L157.885 46.2705L157.387 46.2284ZM80.3577 104.006L80.8555 104.052L80.8557 104.05L80.3577 104.006ZM69.7072 115.883L69.5809 115.401L69.5801 115.401L69.7072 115.883ZM46.4235 122.299L45.9254 122.256L45.8525 122.973L46.5506 122.78L46.4235 122.299ZM52.592 61.6653L53.0901 61.7089L52.592 61.6653ZM57.2275 58.1258L57.2781 57.6284L57.2766 57.6283L57.2275 58.1258ZM84.8351 60.5412L85.3332 60.5854L85.3845 60.0874L84.8857 60.0437L84.8351 60.5412ZM157.207 27.192L157.435 26.7445L157.424 26.7388L157.412 26.7337L157.207 27.192ZM80.4909 -6.13595L80.2764 -5.68175L80.2857 -5.67771L80.4909 -6.13595ZM57.6496 -5.5726L57.4218 -6.01418L57.4127 -6.00917L57.6496 -5.5726ZM19.2225 15.5426L18.9856 15.106L18.9697 15.1148L18.9545 15.1246L19.2225 15.5426ZM18.6114 15.9374L18.3433 15.5194L18.3305 15.5277L18.3183 15.5367L18.6114 15.9374ZM10.1932 30.2382L9.69519 30.1935L9.69508 30.1946L10.1932 30.2382ZM1.48172 115.87L0.983617 115.826L0.983529 115.827L1.48172 115.87ZM16.7967 132.887L16.7454 133.385L16.7461 133.385L16.7967 132.887ZM39.4074 134.865L39.3568 135.363L39.3591 135.363L39.4074 134.865ZM40.522 134.86L40.561 135.358L40.5836 135.356L40.6059 135.352L40.522 134.86ZM40.9477 134.782L40.897 134.286L40.8804 134.288L40.8639 134.291L40.9477 134.782ZM41.5857 134.672L41.6931 135.158L41.703 135.156L41.7127 135.153L41.5857 134.672ZM73.0358 126.011L72.9091 125.53L72.9088 125.53L73.0358 126.011ZM91.7458 105.002L91.2477 104.959L91.2477 104.959L91.7458 105.002ZM96.1681 61.5327L96.2187 61.0352L95.7206 60.9917L95.67 61.4891L96.1681 61.5327ZM141.887 143.831L141.938 143.334L141.937 143.334L141.887 143.831ZM160.391 129.772L160.889 129.816L160.889 129.816L160.391 129.772ZM168.786 47.2514L169.284 47.2949L169.284 47.2937L168.786 47.2514ZM148.989 128.775L148.491 128.731C148.369 129.932 147.732 131.048 146.707 131.829L147.007 132.224L147.307 132.62C148.546 131.677 149.336 130.311 149.487 128.818L148.989 128.775ZM147.007 132.224L146.707 131.829C145.679 132.611 144.347 132.99 143.002 132.873L142.951 133.37L142.901 133.867C144.484 134.006 146.07 133.561 147.307 132.62L147.007 132.224ZM142.951 133.37L143.002 132.873L126.989 131.472L126.939 131.969L126.888 132.467L142.901 133.867L142.951 133.37ZM126.939 131.969L127.437 132.013L133.87 68.7762L133.372 68.7326L132.874 68.689L126.441 131.926L126.939 131.969ZM133.372 68.7326L133.87 68.7757C134.269 64.8193 132.943 60.8858 130.199 57.8371L129.825 58.1735L129.45 58.5099C132.017 61.3627 133.243 65.0243 132.874 68.6895L133.372 68.7326ZM129.825 58.1735L130.199 57.8371C127.457 54.7898 123.521 52.8731 119.259 52.4968L119.208 52.9942L119.157 53.4915C123.18 53.8468 126.881 55.6557 129.45 58.5099L129.825 58.1735ZM119.208 52.9942L119.259 52.4967L58.3424 47.1672L58.2918 47.6647L58.2412 48.1621L119.157 53.4916L119.208 52.9942ZM58.2918 47.6647L58.3416 47.1672C54.0796 46.8013 49.829 48.0028 46.5214 50.52L46.8216 50.9154L47.1219 51.3108C50.22 48.953 54.2185 47.8167 58.242 48.1622L58.2918 47.6647ZM46.8216 50.9154L46.5214 50.52C43.2124 53.0382 41.1157 56.6702 40.7058 60.6244L41.2038 60.6689L41.7018 60.7135C42.0816 57.05 44.0252 53.6675 47.1219 51.3108L46.8216 50.9154ZM41.2038 60.6689L40.7057 60.6254L34.2725 123.862L34.7706 123.905L35.2687 123.949L41.7019 60.7125L41.2038 60.6689ZM34.7706 123.905L34.8212 123.408L17.9116 121.929L17.861 122.426L17.8104 122.924L34.72 124.403L34.7706 123.905ZM17.861 122.426L17.9116 121.929C16.5666 121.811 15.3342 121.207 14.4826 120.261L14.108 120.597L13.7333 120.934C14.7589 122.073 16.2265 122.785 17.8104 122.924L17.861 122.426ZM14.108 120.597L14.4826 120.261C13.6322 119.316 13.232 118.109 13.3542 116.908L12.8561 116.865L12.358 116.821C12.2061 118.314 12.7065 119.793 13.7333 120.934L14.108 120.597ZM12.8561 116.865L13.3542 116.908L22.0656 31.2769L21.5675 31.2333L21.0694 31.1897L12.358 116.821L12.8561 116.865ZM21.5675 31.2333L22.0656 31.2774C22.3249 28.7545 23.6451 26.4171 25.7596 24.7666L25.4544 24.375L25.1493 23.9834C22.8271 25.796 21.3582 28.3801 21.0695 31.1892L21.5675 31.2333ZM25.4544 24.375L25.6918 24.8113L63.6375 3.91014L63.4001 3.47381L63.1628 3.03748L25.2171 23.9386L25.4544 24.375ZM63.4001 3.47381L63.6247 3.91696C65.3966 3.00568 67.3887 2.50818 69.4254 2.47097L69.4232 1.97171L69.421 1.47246C67.2337 1.51242 65.0889 2.04663 63.1756 3.03067L63.4001 3.47381ZM69.4232 1.97171L69.4254 2.47097C71.4622 2.43375 73.4777 2.85805 75.2937 3.70535L75.511 3.25252L75.7283 2.7997C73.774 1.8879 71.6082 1.43249 69.421 1.47246L69.4232 1.97171ZM75.511 3.25252L75.3058 3.71077L151.889 36.9758L152.094 36.5176L152.299 36.0593L75.7162 2.79427L75.511 3.25252ZM152.094 36.5176L151.842 36.9528C153.544 37.9151 154.914 39.2923 155.804 40.9241L156.244 40.6809L156.685 40.4378C155.704 38.6379 154.199 37.1309 152.345 36.0824L152.094 36.5176ZM156.244 40.6809L155.804 40.9241C156.693 42.5554 157.067 44.3778 156.889 46.1863L157.387 46.2284L157.885 46.2705C158.084 44.2587 157.666 42.2382 156.685 40.4378L156.244 40.6809ZM157.387 46.2284L156.889 46.1849L148.491 128.731L148.989 128.775L149.487 128.818L157.885 46.272L157.387 46.2284ZM80.3577 104.006L79.8598 103.96C79.5796 106.582 78.4571 109.07 76.6294 111.109L77.0005 111.439L77.3716 111.769C79.3373 109.577 80.5521 106.891 80.8555 104.052L80.3577 104.006ZM77.0005 111.439L76.6294 111.109C74.8012 113.147 72.3489 114.644 69.5809 115.401L69.7072 115.883L69.8334 116.364C72.7811 115.557 75.4065 113.96 77.3716 111.769L77.0005 111.439ZM69.7072 115.883L69.5801 115.401L46.2964 121.818L46.4235 122.299L46.5506 122.78L69.8343 116.364L69.7072 115.883ZM46.4235 122.299L46.9216 122.343L53.0901 61.7089L52.592 61.6653L52.0939 61.6217L45.9254 122.256L46.4235 122.299ZM52.592 61.6653L53.0901 61.7089C53.1805 60.8194 53.6512 59.9907 54.414 59.4083L54.1132 59.0133L53.8123 58.6184C52.8373 59.3629 52.2139 60.4414 52.0939 61.6217L52.592 61.6653ZM54.1132 59.0133L54.414 59.4083C55.1783 58.8247 56.1721 58.5384 57.1784 58.6234L57.2275 58.1258L57.2766 57.6283C56.0318 57.5231 54.7858 57.8751 53.8123 58.6184L54.1132 59.0133ZM57.2275 58.1258L57.1769 58.6232L84.7845 61.0386L84.8351 60.5412L84.8857 60.0437L57.2781 57.6284L57.2275 58.1258ZM84.8351 60.5412L84.3371 60.497L79.8597 103.962L80.3577 104.006L80.8557 104.05L85.3332 60.5854L84.8351 60.5412ZM157.644 27.4096L157.872 26.9621L157.435 26.7445L157.207 27.192L156.978 27.6394L157.416 27.857L157.644 27.4096ZM157.207 27.192L157.412 26.7337L80.6962 -6.59419L80.4909 -6.13595L80.2857 -5.67771L157.001 27.6502L157.207 27.192ZM80.4909 -6.13595L80.7054 -6.59005C77.0681 -8.25982 73.0427 -9.08032 68.9838 -8.98021L68.9893 -8.48103L68.9947 -7.98184C72.9029 -8.07824 76.7778 -7.28795 80.2764 -5.68184L80.4909 -6.13595ZM68.9893 -8.48103L68.9838 -8.98021C64.9249 -8.88011 60.9541 -7.86235 57.4218 -6.01408L57.6496 -5.5726L57.8773 -5.13111C61.2683 -6.90547 65.0865 -7.88545 68.9947 -7.98184L68.9893 -8.48103ZM57.6496 -5.5726L57.4127 -6.00917L18.9856 15.106L19.2225 15.5426L19.4594 15.9792L57.8865 -5.13602L57.6496 -5.5726ZM19.2225 15.5426L18.9545 15.1246L18.3433 15.5194L18.6114 15.9374L18.8794 16.3554L19.4906 15.9606L19.2225 15.5426ZM18.6114 15.9374L18.3183 15.5367C15.8902 17.3182 13.8741 19.533 12.3918 22.0511L12.8227 22.2995L13.2535 22.5478C14.6635 20.1526 16.5844 18.0404 18.9044 16.3382L18.6114 15.9374ZM12.8227 22.2995L12.3918 22.0511C10.9095 24.5694 9.99194 27.3384 9.69519 30.1935L10.1932 30.2382L10.6912 30.2828C10.9728 27.5732 11.8437 24.9429 13.2535 22.5478L12.8227 22.2995ZM10.1932 30.2382L9.69508 30.1946L0.983618 115.826L1.48172 115.87L1.97981 115.913L10.6913 30.2817L10.1932 30.2382ZM1.48172 115.87L0.983529 115.827C0.557234 120.092 1.98801 124.333 4.94674 127.62L5.32139 127.284L5.69604 126.948C2.91339 123.856 1.58268 119.887 1.9799 115.912L1.48172 115.87ZM5.32139 127.284L4.94674 127.62C7.90423 130.907 12.148 132.975 16.7454 133.385L16.7967 132.887L16.8481 132.39C12.4892 132.002 8.47993 130.041 5.69604 126.948L5.32139 127.284ZM16.7967 132.887L16.7461 133.385L39.3568 135.363L39.4074 134.865L39.458 134.368L16.8473 132.39L16.7967 132.887ZM39.4074 134.865L39.3591 135.363C39.759 135.396 40.1614 135.394 40.561 135.358L40.522 134.86L40.483 134.363C40.1417 134.395 39.7976 134.396 39.4556 134.368L39.4074 134.865ZM40.522 134.86L40.6059 135.352L41.0316 135.273L40.9477 134.782L40.8639 134.291L40.4382 134.369L40.522 134.86ZM40.9477 134.782L40.9985 135.278C41.2324 135.251 41.4644 135.211 41.6931 135.158L41.5857 134.672L41.4783 134.186C41.2871 134.23 41.093 134.264 40.897 134.286L40.9477 134.782ZM41.5857 134.672L41.7127 135.153L73.1629 126.492L73.0358 126.011L72.9088 125.53L41.4587 134.191L41.5857 134.672ZM73.0358 126.011L73.1626 126.492C78.2946 125.081 82.8559 122.29 86.258 118.47L85.8857 118.142L85.5134 117.813C82.2484 121.479 77.8607 124.168 72.9091 125.53L73.0358 126.011ZM85.8857 118.142L86.258 118.47C89.6605 114.65 91.747 109.975 92.244 105.045L91.7458 105.002L91.2477 104.959C90.7726 109.671 88.7779 114.147 85.5134 117.813L85.8857 118.142ZM91.7458 105.002L92.2439 105.046L96.6662 61.5763L96.1681 61.5327L95.67 61.4891L91.2477 104.959L91.7458 105.002ZM96.1681 61.5327L96.1175 62.0301L118.093 63.9527L118.144 63.4553L118.194 62.9579L96.2187 61.0352L96.1681 61.5327ZM118.144 63.4553L118.093 63.9527C119.101 64.0409 120.023 64.4936 120.659 65.2L121.034 64.8636L121.408 64.5272C120.598 63.6275 119.441 63.067 118.194 62.9579L118.144 63.4553ZM121.034 64.8636L120.659 65.2C121.293 65.905 121.59 66.8026 121.499 67.6939L121.998 67.7375L122.496 67.7811C122.616 66.5982 122.219 65.4283 121.408 64.5272L121.034 64.8636ZM121.998 67.7375L121.499 67.6939L114.534 136.161L115.032 136.205L115.53 136.248L122.496 67.7811L121.998 67.7375ZM115.032 136.205L114.534 136.161C114.378 137.694 114.892 139.213 115.947 140.385L116.322 140.049L116.696 139.713C115.818 138.736 115.404 137.49 115.53 136.248L115.032 136.205ZM116.322 140.049L115.947 140.385C117.001 141.556 118.509 142.288 120.137 142.43L120.187 141.933L120.238 141.435C118.849 141.314 117.576 140.69 116.696 139.713L116.322 140.049ZM120.187 141.933L120.137 142.43L141.836 144.329L141.887 143.831L141.937 143.334L120.238 141.435L120.187 141.933ZM141.887 143.831L141.836 144.329C144.116 144.53 146.418 144.316 148.609 143.699L148.479 143.218L148.349 142.738C146.277 143.322 144.098 143.524 141.938 143.334L141.887 143.831ZM148.479 143.218L148.609 143.699C150.8 143.082 152.84 142.072 154.61 140.727L154.31 140.332L154.01 139.936C152.345 141.202 150.421 142.154 148.349 142.738L148.479 143.218ZM154.31 140.332L154.61 140.727C156.381 139.382 157.848 137.726 158.927 135.854L158.493 135.61L158.06 135.366C157.052 137.117 155.676 138.67 154.01 139.936L154.31 140.332ZM158.493 135.61L158.927 135.854C160.005 133.982 160.672 131.93 160.889 129.816L160.391 129.772L159.893 129.728C159.691 131.699 159.068 133.615 158.06 135.366L158.493 135.61ZM160.391 129.772L160.889 129.816L169.284 47.2949L168.786 47.2514L168.288 47.2078L159.893 129.729L160.391 129.772ZM168.786 47.2514L169.284 47.2937C169.686 43.2495 168.826 39.1853 166.811 35.5774L166.373 35.825L165.935 36.0726C167.854 39.5095 168.669 43.372 168.288 47.209L168.786 47.2514ZM166.373 35.825L166.811 35.5774C164.796 31.9701 161.711 28.9694 157.92 26.9214L157.677 27.3612L157.434 27.801C161.068 29.7644 164.015 32.6352 165.935 36.0726L166.373 35.825Z" fill="#EBECEF" mask="url(#path-1-outside-1_35973_33808)"/>
</g>
</svg>
