<svg width="24" height="24" viewBox="0 0 24 24" fill="none" xmlns="http://www.w3.org/2000/svg">
<path d="M0 6H24V22C24 23.1046 23.1046 24 22 24H2C0.89543 24 0 23.1046 0 22V6Z" fill="#E4E8F5"/>
<path d="M0 2C0 0.89543 0.895431 0 2 0H22C23.1046 0 24 0.895431 24 2V6H0V2Z" fill="#B2B9D9"/>
<g filter="url(#filter0_d_10605_13233)">
<path d="M8.3999 6H15.5999V15.1329C15.5999 15.3325 15.3774 15.4516 15.2112 15.3409L12.1386 13.2925C12.0546 13.2365 11.9452 13.2365 11.8612 13.2925L8.78858 15.3409C8.62244 15.4516 8.3999 15.3325 8.3999 15.1329V6Z" fill="#2327BE"/>
</g>
<rect x="8.3999" width="7.2" height="6" fill="#2125B2"/>
<defs>
<filter id="filter0_d_10605_13233" x="7.3999" y="5" width="9.2002" height="11.3833" filterUnits="userSpaceOnUse" color-interpolation-filters="sRGB">
<feFlood flood-opacity="0" result="BackgroundImageFix"/>
<feColorMatrix in="SourceAlpha" type="matrix" values="0 0 0 0 0 0 0 0 0 0 0 0 0 0 0 0 0 0 127 0" result="hardAlpha"/>
<feOffset/>
<feGaussianBlur stdDeviation="0.5"/>
<feColorMatrix type="matrix" values="0 0 0 0 0 0 0 0 0 0 0 0 0 0 0 0 0 0 0.1 0"/>
<feBlend mode="normal" in2="BackgroundImageFix" result="effect1_dropShadow_10605_13233"/>
<feBlend mode="normal" in="SourceGraphic" in2="effect1_dropShadow_10605_13233" result="shape"/>
</filter>
</defs>
</svg>
