<svg width="48" height="48" viewBox="0 0 48 48" fill="none" xmlns="http://www.w3.org/2000/svg">
<path fill-rule="evenodd" clip-rule="evenodd" d="M30.4093 3.52001C31.3519 3.52002 32.097 4.29305 32.2961 5.21435C33.0604 8.75113 36.1677 11.4078 39.8996 11.4547C39.9549 11.4554 40 11.5001 40 11.5553V20.9076C40 29.8931 37.542 38.8786 24 44.48V3.52001H30.4093ZM15.9358 5.21436C15.1647 8.78281 12.0084 11.4553 8.23188 11.4553C8.1049 11.4553 8 11.5569 8 11.6838V20.9076C7.99999 29.8931 10.458 38.8786 24 44.48V3.52001L17.8226 3.52002C16.88 3.52002 16.1349 4.29306 15.9358 5.21436Z" fill="#18A8E9"/>
<path fill-rule="evenodd" clip-rule="evenodd" d="M31.5737 18.4376C32.3836 19.2272 32.4 20.5238 31.6104 21.3337L24.3563 28.7737C23.1507 30.0103 21.1629 30.0103 19.9572 28.7737L16.3896 25.1146C15.6 24.3048 15.6164 23.0081 16.4263 22.2185C17.2361 21.4289 18.5327 21.4453 19.3224 22.2552L22.1568 25.1623L28.6776 18.4743C29.4672 17.6644 30.7638 17.648 31.5737 18.4376Z" fill="white"/>
</svg>
