<svg width="160" height="160" viewBox="0 0 160 160" fill="none" xmlns="http://www.w3.org/2000/svg">
<path d="M91.6707 31.3675C89.8231 28.9805 87.728 26.4632 85.5725 24.34C84.2329 23.021 82.4902 23.1513 80.6934 22.9225C78.1824 22.6046 75.6429 22.5474 73.1128 22.5506C71.697 22.5506 69.3765 22.0897 68.0337 22.557C66.5481 23.0719 65.0434 25.4112 64.1672 26.6126C61.4594 30.3218 58.7199 34.139 56.4406 38.1184C55.7232 39.3675 55.7486 40.0318 56.0375 41.443C56.1803 42.1454 57.2406 46.2264 57.7295 46.2868" fill="#343EAD"/>
<path d="M90.8294 32.2097C89.2771 30.2137 87.674 28.2558 85.9376 26.4155C84.963 25.3825 84.2075 24.5816 82.7631 24.3336C81.706 24.1493 80.6045 24.0921 79.5379 23.9872C77.1412 23.752 74.7413 23.8537 72.3414 23.7107C70.2685 23.5867 68.5384 23.1481 67.0083 24.8326C65.4782 26.5172 64.3418 28.3702 63.0784 30.1374C61.5578 32.2701 60.0722 34.4282 58.6976 36.6563C58.1357 37.5653 57.2818 38.5919 57.0691 39.663C56.9263 40.3813 57.1898 41.195 57.3675 41.8942C57.5294 42.5299 57.7072 43.1624 57.9008 43.7886C57.9992 44.1096 58.0976 44.4338 58.2183 44.7453C58.3389 45.0567 58.6976 45.4413 58.3294 45.257C59.7007 45.9403 58.4976 47.9968 57.1263 47.3166C56.2342 46.8716 55.9263 45.4445 55.6565 44.5863C55.2565 43.3182 54.8438 41.9864 54.7073 40.661C54.501 38.6586 55.6311 37.0885 56.6406 35.4516C57.9643 33.3094 59.3865 31.2307 60.8467 29.1775C62.0371 27.5025 63.218 25.8021 64.4751 24.1779C65.5195 22.8271 66.7036 21.5239 68.459 21.2411C70.2145 20.9582 72.1668 21.3459 73.9889 21.3587C76.4047 21.3746 78.7824 21.5367 81.1822 21.7846C83.5821 22.0325 85.3027 22.3503 87.0169 24.1048C88.9882 26.1199 90.7786 28.3003 92.5087 30.522C93.4388 31.717 91.7658 33.4175 90.8262 32.2065L90.8294 32.2097Z" fill="black"/>
<path d="M86.8804 60.9454V84.3638H68.5035L71.1986 59.7789L86.8804 60.9454Z" fill="white"/>
<path d="M84.4869 115.646L78.2999 119.968L72.1129 142.977H59.7548L54.8471 98.4155V95.1132L93.9595 88.5689L96.3467 96.3083L92.7596 119.889L88.928 140.609H74.2938L75.4842 130.123L78.3634 120.035" fill="#343EAD"/>
<path d="M85.09 116.675C83.0266 118.115 80.9664 119.558 78.903 120.998L79.449 120.286C77.3856 127.955 75.3222 135.625 73.2588 143.291C73.1223 143.797 72.6303 144.165 72.1097 144.165H59.7516C59.0564 144.165 58.631 143.615 58.5611 142.973C57.0374 129.144 55.5137 115.315 53.9931 101.486C53.755 99.3182 53.6534 97.3031 53.6534 95.1132C53.6534 94.6364 54.0185 94.0484 54.5264 93.9626C65.9386 92.0524 77.3507 90.1422 88.7597 88.232C90.385 87.9586 92.0103 87.6885 93.6356 87.4151C94.2864 87.3071 94.8927 87.5804 95.099 88.2479L96.7847 93.7115C97.137 94.8494 97.5973 95.8601 97.4227 97.0457C96.8354 100.993 96.2228 104.934 95.6228 108.879C94.6133 115.515 93.5467 122.104 92.3277 128.702C91.5754 132.774 90.823 136.845 90.0707 140.92C89.9755 141.429 89.4136 141.794 88.9215 141.794H74.2873C73.6969 141.794 73.0239 141.244 73.0969 140.602C73.4969 137.081 73.662 133.445 74.3064 129.958C74.9508 126.471 76.2428 123.083 77.2078 119.711C77.6269 118.239 79.9252 118.865 79.503 120.343C79.0236 122.025 78.5443 123.706 78.0618 125.387L77.1063 128.741C76.9951 129.125 76.8936 129.513 76.7761 129.894C76.7539 129.964 76.5634 130.638 76.646 130.273C76.7221 129.932 76.6206 130.511 76.611 130.603C76.5666 131.026 76.5158 131.449 76.4682 131.874L76.0714 135.358C75.8746 137.106 75.6746 138.854 75.4778 140.599L74.2873 139.407H88.9215L87.7724 140.281C89.0485 133.384 90.4294 126.5 91.5976 119.584C92.842 112.219 93.8483 104.804 94.972 97.4207C95.0228 97.0838 94.9911 96.3623 95.1784 96.0667C95.2641 95.93 95.4038 96.8613 95.1212 96.3877C94.9149 96.0413 94.8482 95.501 94.7276 95.1164C94.0864 93.0377 93.4451 90.9559 92.8007 88.8772L94.2641 89.7099C82.852 91.6201 71.4399 93.5304 60.0309 95.4406C58.4056 95.7139 56.7803 95.9841 55.155 96.2574L56.0279 95.1068C56.0279 100.31 56.8025 105.449 57.3739 110.621C58.3326 119.313 59.2881 128.006 60.2468 136.702C60.4753 138.791 60.7071 140.879 60.9356 142.97L59.7452 141.778H72.1033L70.9542 142.652C72.0525 138.565 73.1541 134.474 74.2524 130.387L76.4238 122.32C76.7222 121.205 76.8396 119.631 77.7792 118.875C79.6934 117.327 81.8584 116.024 83.8774 114.613C85.1376 113.732 86.328 115.798 85.0805 116.672L85.09 116.675Z" fill="black"/>
<path d="M74.1545 95.733C74.1799 95.5392 74.1926 95.3453 74.2339 95.1577C74.3514 94.6142 74.6498 94.182 75.0815 93.8419C76.0275 93.0918 76.9798 92.3449 77.929 91.5979C78.4527 91.1848 79.0464 90.9718 79.7162 91.0354C80.0177 91.064 80.3193 91.1403 80.6082 91.2324C82.8684 91.9539 85.1254 92.6881 87.3856 93.4128C88.23 93.683 88.7538 94.2455 88.9697 95.1037C88.9951 95.1991 88.9983 95.3039 89.0014 95.4025C89.03 96.1621 89.0554 96.9217 89.0808 97.6782C89.1252 98.9909 89.1665 100.304 89.2141 101.616C89.2363 102.271 89.2649 102.926 89.2998 103.577C89.3506 104.505 88.6491 105.224 87.9888 105.389C87.7634 105.446 87.5221 105.43 87.2841 105.443C86.8142 105.465 86.3444 105.484 85.8746 105.5C85.7127 105.507 85.5445 105.516 85.3857 105.491C85.0143 105.43 84.7921 105.144 84.7572 104.725C84.754 104.683 84.754 104.642 84.7508 104.601C84.681 102.624 84.6112 100.647 84.5413 98.6667C84.535 98.4982 84.5255 98.333 84.5159 98.1645C84.5096 98.0533 84.4651 98.0056 84.354 98.0024C84.2398 97.9992 84.1255 98.0024 84.008 98.0088C83.6747 98.0215 83.3382 98.031 83.0049 98.0437C82.8271 98.0501 82.789 98.0882 82.7954 98.263C82.8335 99.4009 82.8652 100.542 82.9192 101.68C82.9446 102.188 82.9128 102.681 82.7033 103.151C82.4144 103.8 81.9383 104.264 81.2939 104.553C80.4876 104.915 79.6813 105.271 78.8749 105.634C78.6876 105.716 78.494 105.764 78.2908 105.77C77.6337 105.793 76.9734 105.821 76.3163 105.837C75.8211 105.85 75.3831 105.704 75.018 105.36C74.6561 105.017 74.4815 104.591 74.4593 104.095C74.4529 103.962 74.4402 103.825 74.4307 103.692C74.3767 102.153 74.3228 100.615 74.2688 99.0735C74.272 99.029 74.2783 98.9845 74.2783 98.94C74.2529 98.1645 74.2244 97.389 74.1958 96.6166C74.1958 96.5721 74.1831 96.5276 74.1768 96.4831C74.1672 96.232 74.1577 95.9809 74.1514 95.7299L74.1545 95.733ZM75.9671 99.884C75.9671 99.884 75.9608 99.884 75.9576 99.884C75.983 100.567 76.0052 101.248 76.0306 101.931C76.056 102.614 76.0846 103.294 76.11 103.978C76.1163 104.149 76.1703 104.2 76.3386 104.203C76.602 104.203 76.8655 104.207 77.1322 104.207C77.3957 104.207 77.5099 104.089 77.4941 103.825C77.4814 103.603 77.4496 103.383 77.4401 103.161C77.4179 102.659 77.402 102.16 77.3861 101.658C77.348 100.551 77.3131 99.4422 77.2782 98.3361C77.275 98.209 77.2877 98.0787 77.3099 97.9516C77.456 97.1792 78.0813 96.6198 78.7988 96.5721C79.1067 96.5531 79.4178 96.534 79.7257 96.5244C81.2843 96.4704 82.8462 96.4164 84.4048 96.3687C85.0302 96.3496 85.5127 96.6166 85.8682 97.122C86.0746 97.4176 86.154 97.7545 86.1698 98.1073C86.1984 98.7906 86.2206 99.4708 86.2428 100.154C86.2841 101.327 86.3222 102.5 86.3635 103.673C86.3666 103.8 86.4301 103.854 86.5698 103.847C86.8301 103.838 87.0904 103.825 87.3539 103.816C87.6269 103.803 87.6586 103.768 87.6491 103.498C87.5571 100.895 87.465 98.2885 87.3761 95.6854C87.3761 95.644 87.3761 95.6027 87.3698 95.5614C87.3475 95.3103 87.2301 95.1291 86.9952 95.0306C86.938 95.0084 86.8777 94.9861 86.8174 94.967C85.281 94.4712 83.7414 93.9754 82.2049 93.4796C81.4177 93.2253 80.6304 92.9742 79.8431 92.7167C79.5289 92.615 79.2464 92.6627 78.9892 92.8629C78.9257 92.9106 78.8654 92.9615 78.8019 93.0123C77.9194 93.7084 77.0369 94.4045 76.1513 95.1005C75.9132 95.2881 75.7989 95.5233 75.8148 95.8252C75.8306 96.1589 75.8465 96.4927 75.8592 96.8264C75.8973 97.8467 75.9322 98.8669 75.9671 99.8872V99.884ZM79.1384 103.689C79.1797 103.676 79.2051 103.669 79.2241 103.663C79.6813 103.46 80.1415 103.259 80.5955 103.056C81.0939 102.83 81.3161 102.439 81.297 101.899C81.2526 100.717 81.2145 99.5312 81.1732 98.3489C81.1669 98.1423 81.1352 98.1136 80.932 98.12C80.3542 98.1391 79.7765 98.1613 79.1987 98.1804C78.9797 98.1868 78.9448 98.2249 78.9543 98.4442C79.0146 100.148 79.0749 101.848 79.1321 103.552C79.1321 103.593 79.1321 103.635 79.1384 103.692V103.689Z" fill="white"/>
<path d="M62.2878 61.5431C53.6438 66.1867 43.2919 81.0266 47.1647 90.066C50.9614 98.9305 67.2558 97.9865 75.2427 96.0096C79.3346 94.9957 85.4676 92.7899 90.0229 91.0258L84.547 81.6655C80.2742 81.6655 76.1157 81.5987 71.9413 81.122C67.2495 80.588 64.421 79.7076 60.9545 76.6627" fill="white"/>
<path d="M62.8911 62.5729C58.2945 65.0997 54.5423 69.2443 51.752 73.6305C49.1489 77.7211 46.6094 83.1402 47.7807 88.1144C48.8347 92.5769 53.0345 94.6301 57.1739 95.5073C61.7483 96.4767 66.6497 96.3019 71.2494 95.5868C77.6079 94.5983 83.7345 92.1796 89.7089 89.872L88.9978 91.6233C87.1725 88.5022 85.3472 85.381 83.5219 82.263L84.5504 82.8542C79.6617 82.851 74.735 82.7874 69.8939 82.0405C66.1354 81.4588 62.9959 79.9841 60.1166 77.5049C58.9516 76.5037 60.6436 74.8255 61.7991 75.8204C64.9577 78.5379 68.4559 79.5645 72.5414 79.9936C75.1223 80.2638 77.7158 80.3846 80.3093 80.4354C81.5188 80.4577 82.7314 80.4386 83.9409 80.4704C84.7091 80.4894 85.1123 80.4577 85.5948 81.087C86.69 82.5204 87.4867 84.3226 88.3978 85.8768C89.3089 87.431 90.1691 88.909 91.058 90.4219C91.477 91.1402 91.0516 91.8999 90.3469 92.1732C79.6617 96.2987 68.3194 100.215 56.7263 97.8466C52.19 96.9185 47.6315 94.6333 45.8951 90.0659C43.946 84.9455 45.984 79.0592 48.4728 74.5077C51.5171 68.9423 56.0819 63.5995 61.6944 60.5164C63.0371 59.779 64.2403 61.8355 62.8975 62.576L62.8911 62.5729Z" fill="black"/>
<path d="M93.6958 70.6872C100.641 70.8938 116.387 84.8755 109.111 92.4592C105.971 95.7297 96.6258 97.9196 90.0674 92.3129C85.2898 88.2287 84.6105 82.1898 84.4867 80.7659L96.5782 77.6097L99.7812 83.477" fill="white"/>
<path d="M93.6958 69.4954C97.6798 69.6893 101.448 72.3305 104.384 74.8256C107.698 77.6416 111.057 81.4684 111.958 85.8577C112.809 89.9928 110.73 93.5939 106.971 95.358C102.114 97.6369 96.0703 97.5129 91.4261 94.7509C86.4962 91.8172 83.8011 86.3536 83.2963 80.7691C83.2487 80.2606 83.6995 79.7425 84.1693 79.6186C88.2009 78.5665 92.2324 77.5145 96.2608 76.4624C96.7592 76.3321 97.3528 76.5451 97.6036 77.0091C98.6702 78.9638 99.7368 80.9217 100.807 82.8764C101.543 84.2241 99.486 85.4287 98.7495 84.081C97.6829 82.1263 96.6163 80.1684 95.5465 78.2137L96.8893 78.7604C92.8578 79.8124 88.8262 80.8645 84.7979 81.9165L85.6708 80.766C86.0295 84.7135 87.7152 88.6547 90.7118 91.3023C94.5085 94.6555 100.035 95.3579 104.737 93.7115C107.955 92.5832 110.358 90.0882 109.654 86.4902C108.949 82.8796 106.257 79.7584 103.632 77.3428C101.007 74.9273 97.3623 72.0604 93.6863 71.8824C92.1626 71.8093 92.153 69.4223 93.6863 69.4986L93.6958 69.4954Z" fill="black"/>
<path d="M62.5547 61.8388C62.5547 67.2897 62.3071 72.623 62.3071 78.1026L69.9639 80.8837C69.7321 75.9222 69.7385 73.8181 69.7226 68.3926" fill="#343EAD"/>
<path d="M63.745 61.8387C63.7355 67.2611 63.507 72.6802 63.4974 78.1026L62.6245 76.952C65.1767 77.8801 67.729 78.805 70.2812 79.7331L68.7734 80.8837C68.5829 76.72 68.5448 72.5595 68.5321 68.3926C68.5289 66.8574 70.9098 66.8574 70.9129 68.3926C70.9225 72.5595 70.9606 76.72 71.1542 80.8837C71.1891 81.6147 70.3606 82.2917 69.6463 82.0342C67.0941 81.1061 64.5418 80.1812 61.9896 79.2531C61.4912 79.072 61.1134 78.6588 61.1166 78.1026C61.1261 72.6802 61.3547 67.2611 61.3642 61.8387C61.3642 60.3036 63.7482 60.3036 63.745 61.8387Z" fill="black"/>
<path d="M59.8212 46.0897C56.2626 46.042 53.3295 48.2192 53.6818 52.0969C54.0088 55.7139 57.3356 57.2014 60.6973 56.9725L61.7671 59.3786C65.7542 69.7306 77.887 72.3591 88.0865 70.2455C93.0418 69.2188 99.0733 66.9177 101.511 62.2359C104.244 56.9916 104.997 48.2097 92.518 38.1215L82.4677 34.2597L59.8212 46.0865V46.0897Z" fill="white"/>
<path d="M59.8213 47.2816C57.0945 47.3134 54.6343 48.8613 54.8597 51.868C55.0851 54.8748 58.0405 55.9046 60.6975 55.7806C61.0752 55.7616 61.5673 56.0127 61.726 56.3718C62.7006 58.5649 63.5418 60.8724 65.0084 62.7953C66.9131 65.2904 69.6145 67.1116 72.5382 68.2018C78.5791 70.4521 85.455 70.1025 91.5119 68.1064C94.8736 67.0003 98.4448 65.1887 100.28 62.0103C101.28 60.2844 101.867 58.2725 101.965 56.2796C102.289 49.7385 97.7401 44.2049 93.0959 40.1525C92.2578 39.4215 92.0198 39.199 91.0039 38.808L87.6232 37.5081C85.801 36.8088 83.9757 36.1064 82.1536 35.4072L83.071 35.2864C75.5222 39.2276 67.9733 43.172 60.4245 47.1132C59.069 47.8219 57.8627 45.7655 59.2214 45.0536C64.5005 42.2947 69.7828 39.5391 75.0619 36.7802C77.2618 35.6296 79.4394 34.3233 81.706 33.3094C82.525 32.9439 83.0075 33.1918 83.7916 33.4906C85.474 34.1358 87.1565 34.7842 88.839 35.4294C90.1278 35.9252 91.4865 36.3416 92.7372 36.9264C93.6768 37.365 94.4514 38.1628 95.226 38.8525C96.5624 40.0476 97.8322 41.3221 98.9845 42.6984C102.016 46.3186 104.356 50.7206 104.365 55.5454C104.375 59.4231 102.886 63.431 100.007 66.0786C96.0735 69.6956 90.423 71.2848 85.2296 71.8887C79.5378 72.5498 73.3889 71.7838 68.386 68.8438C66.0369 67.4644 64.0053 65.5891 62.4815 63.3293C61.2848 61.5558 60.5356 59.5152 59.669 57.5669L60.6975 58.1581C56.6596 58.3456 52.7391 56.2606 52.4788 51.8617C52.2185 47.4628 55.812 44.936 59.8213 44.8915C61.3546 44.8724 61.3546 47.2562 59.8213 47.2753V47.2816Z" fill="black"/>
<path d="M73.7794 141.699L73.9921 150.63L91.0515 150.274C92.9149 150.236 93.8101 148.224 92.4832 147.067L85.1661 140.691" fill="black"/>
<path d="M74.9699 141.699L75.1826 150.63L73.9922 149.438C77.9158 149.356 81.8394 149.273 85.7662 149.194C87.4486 149.159 89.2263 149.286 90.8993 149.085C91.804 148.977 92.1405 148.44 91.4865 147.773C90.8326 147.105 90.0771 146.546 89.385 145.942C87.6994 144.474 86.0138 143.005 84.3282 141.537C83.1695 140.529 84.8615 138.848 86.0106 139.852C87.6962 141.321 89.3819 142.789 91.0675 144.257C92.6643 145.65 95.3371 147.356 93.9213 149.842C92.8388 151.743 90.5374 151.479 88.6803 151.517C85.8487 151.577 83.0171 151.635 80.1823 151.695C78.1189 151.739 76.0587 151.781 73.9953 151.825C73.3414 151.838 72.8208 151.269 72.8049 150.633L72.5922 141.702C72.5541 140.167 74.935 140.167 74.9731 141.702L74.9699 141.699Z" fill="black"/>
<path d="M59.6467 143.094C58.8816 145.971 58.8499 147.293 58.0849 150.173L74.5602 154.616C76.3602 155.102 77.7823 153.421 76.83 151.94L71.5921 143.768" fill="black"/>
<path d="M60.7959 143.412C60.1895 145.755 59.8372 148.148 59.234 150.49L58.4023 149.025C62.145 150.036 65.8877 151.043 69.6304 152.054C71.2938 152.502 72.9984 153.132 74.6999 153.421C77.1633 153.844 74.6841 150.792 74.1889 150.02C72.9826 148.138 71.7763 146.254 70.5668 144.372C69.7383 143.078 71.7953 141.88 72.6239 143.167C73.8301 145.049 75.0364 146.934 76.2459 148.815C77.4554 150.697 79.4775 152.982 77.4427 154.985C75.8586 156.545 73.6619 155.608 71.8398 155.118L63.7449 152.935C61.7514 152.397 59.761 151.86 57.7674 151.323C57.1389 151.155 56.7738 150.478 56.9357 149.858C57.5421 147.515 57.8944 145.122 58.4976 142.78C58.8817 141.295 61.1768 141.925 60.7927 143.412H60.7959Z" fill="black"/>
<path d="M84.8425 71.8824C81.8998 73.4334 84.4457 77.3333 86.4615 78.1661C88.9947 79.2149 93.7183 79.1959 94.7531 75.9189C95.1499 74.6666 94.8992 72.7278 94.9785 71.3929C95.0642 69.9626 95.1722 68.2558 94.1754 67.0894C92.585 65.23 88.9629 65.4684 86.8329 65.3985C83.9124 65.3031 81.3189 64.6833 80.9665 68.3003C80.7094 70.9161 82.1728 71.8728 84.7885 71.6186" fill="black"/>
<path d="M85.4456 72.9121C83.9282 73.8307 85.144 75.7155 86.1566 76.5641C87.1693 77.4127 88.6454 77.6162 89.9279 77.5876C91.3722 77.5558 93.0769 77.1203 93.6071 75.6042C93.9182 74.7175 93.7912 73.6495 93.7817 72.7246C93.7721 71.7997 93.8578 70.9447 93.842 70.058C93.8007 67.7504 92.4103 66.9654 90.2929 66.7206C88.7629 66.5458 87.1979 66.6126 85.6614 66.5395C84.3535 66.4759 82.7219 66.193 82.2648 67.7377C81.6235 69.9086 82.8616 70.5729 84.7884 70.433C86.3185 70.3218 86.309 72.7055 84.7884 72.8168C83.0711 72.9407 81.1474 72.6324 80.2331 70.986C79.357 69.4096 79.6173 66.8446 80.7823 65.4715C81.9473 64.0985 83.7948 64.0667 85.4741 64.143C87.582 64.2383 89.7628 64.1112 91.8357 64.5625C93.9086 65.0138 95.5911 66.2471 96.0641 68.3798C96.299 69.4445 96.2006 70.5252 96.1657 71.6027C96.1244 72.874 96.2641 74.1485 96.0736 75.4135C95.4387 79.609 90.7088 80.5371 87.1915 79.6535C83.6742 78.7699 80.0522 73.3921 84.2456 70.8526C85.5598 70.058 86.7566 72.1175 85.4487 72.9121H85.4456Z" fill="black"/>
<path d="M91.6198 46.1564C90.0866 46.1564 90.0866 43.7726 91.6198 43.7726C93.1531 43.7726 93.1531 46.1564 91.6198 46.1564Z" fill="black"/>
<path d="M82.2266 37.1744C82.544 38.3726 82.5662 39.6249 82.8392 40.8327C83.1503 42.2121 84.0423 42.5586 85.2867 43.048C87.7279 44.0079 89.8484 45.2983 90.2516 48.1303C90.6357 50.8383 88.9342 52.8692 86.4232 53.6098C83.4297 54.4934 80.4076 53.899 77.9633 51.9888C76.757 51.0449 78.4521 49.3698 79.6457 50.3043C81.5187 51.7695 84.8899 52.2876 86.9438 50.8224C89.1151 49.2777 87.4422 46.5824 85.6042 45.7338C84.0709 45.025 82.1472 44.6595 81.1695 43.1307C80.1917 41.6019 80.3822 39.5327 79.9251 37.8069C79.5346 36.3226 81.8298 35.6901 82.2202 37.1744H82.2266Z" fill="black"/>
<path d="M73.3254 48.1303C71.7921 48.1303 71.7921 45.7465 73.3254 45.7465C74.8587 45.7465 74.8587 48.1303 73.3254 48.1303Z" fill="black"/>
<path d="M60.1803 45.7401C65.6689 37.7274 73.6304 32.073 80.4428 29.3492C83.9346 27.9539 100.727 27.3754 96.5309 39.8315C95.8515 39.466 94.823 38.9447 93.5564 38.4394C91.5025 37.6193 83.0077 34.5172 72.3352 39.2753C69.5798 40.5021 64.4721 41.7417 60.1803 45.7401Z" fill="black"/>
<path d="M59.1516 45.1362C62.2403 40.6928 66.0306 36.8311 70.3955 33.6368C73.5001 31.3643 77.2587 28.8311 81.0553 27.9189C85.7408 26.7937 92.3182 27.1751 96.0228 30.5792C98.7497 33.087 98.7497 36.8406 97.6799 40.143C97.4354 40.8931 96.6323 41.2268 95.9308 40.8549C91.3469 38.4266 86.2614 37.4572 81.0934 38.0452C77.3825 38.468 74.0906 39.9173 70.6368 41.2205C67.1449 42.5395 63.8212 44.0429 61.0245 46.5792C59.8912 47.6058 58.2024 45.9245 59.3421 44.8947C62.3007 42.2121 65.7703 40.5244 69.4717 39.1227C73.1573 37.7306 76.6555 36.2208 80.6077 35.7218C86.3566 34.994 92.0357 36.0937 97.1339 38.7953L95.3848 39.5073C96.1784 37.0568 96.4577 34.2693 94.4261 32.3432C92.75 30.7572 90.239 30.166 88.0137 29.9372C85.9916 29.7306 83.8456 29.7306 81.8521 30.1755C78.7094 30.878 75.6143 32.928 72.989 34.7111C68.4019 37.8291 64.3767 41.7798 61.2086 46.3345C60.3388 47.5868 58.2754 46.3949 59.1516 45.1299V45.1362Z" fill="black"/>
<path d="M98.6608 30.7412C96.4355 29.7051 94.5213 26.9208 93.5436 24.75C93.2483 24.0952 92.9944 23.4182 92.8007 22.7285C89.4898 10.9621 102.946 3.98873 112.803 5.42536C123.574 6.99866 132.697 19.9379 131.046 30.6777C130.313 35.4548 128.866 39.8982 124.167 42.0722C118.52 44.6848 110.933 41.8974 106.638 37.9562L97.4164 41.1091L98.6639 30.7381L98.6608 30.7412Z" fill="white"/>
<path d="M98.0608 31.7711C94.3816 29.8768 91.9373 25.3889 91.2929 21.4159C90.7627 18.139 91.4294 14.7889 93.3309 12.046C97.1529 6.5283 104.486 3.76946 111.032 4.06823C126.497 4.77065 137.837 25.0075 129.815 38.4997C124.51 47.4183 112.314 44.6213 105.797 38.8017L106.956 39.1068C103.883 40.1589 100.807 41.2109 97.7338 42.2598C97.064 42.4886 96.1371 41.8625 96.226 41.1092C96.6418 37.6511 97.0577 34.1962 97.4735 30.7381C97.6545 29.2347 100.038 29.2157 99.8544 30.7381C99.4385 34.1962 99.0226 37.6511 98.6068 41.1092L97.0989 39.9586C100.172 38.9066 103.248 37.8545 106.321 36.8057C106.733 36.6658 107.171 36.8374 107.479 37.1108C112.549 41.64 122.342 44.6626 127.186 38.166C129.126 35.5629 129.942 31.8347 130.04 28.6372C130.139 25.4397 129.313 22.1056 127.907 19.1783C125.091 13.3205 119.844 8.01897 113.292 6.71582C107.857 5.63199 101.407 7.37375 97.3021 11.1084C95.0038 13.1997 93.4832 15.9999 93.4769 19.156C93.4705 23.0782 95.6704 27.8648 99.2607 29.7115C100.623 30.4139 99.4195 32.4703 98.0576 31.7711H98.0608Z" fill="black"/>
<path d="M80.9855 62.4267C79.249 60.5514 76.3603 59.3532 73.8112 59.3786C72.2779 59.3913 72.2779 57.0075 73.8112 56.9948C76.9571 56.9662 80.5188 58.4219 82.6679 60.7422C83.7091 61.8673 82.0299 63.555 80.9855 62.4267Z" fill="black"/>
<path d="M108.685 16.8771C109.393 15.164 112.285 14.9574 113.561 16.0126C114.742 16.9916 115.526 19.5883 114.796 21.0313C114.066 22.4743 111.688 22.6713 110.52 23.7425C109.069 25.0742 109.336 26.8096 109.364 28.5927C109.399 30.6364 112.574 30.6427 112.539 28.5927C112.52 27.5184 112.094 26.4187 113.11 25.7989C114.196 25.1346 115.424 24.8104 116.418 23.9745C118.478 22.2359 118.5 19.1179 117.672 16.7373C116.799 14.2264 114.745 12.3638 112.028 12.2113C109.31 12.0587 106.692 13.4508 105.622 16.0349C104.841 17.9228 107.911 18.746 108.682 16.8803L108.685 16.8771Z" fill="black"/>
<path d="M111.202 34.8891C113.244 34.8891 113.25 31.7107 111.202 31.7107C109.155 31.7107 109.155 34.8891 111.202 34.8891Z" fill="black"/>
</svg>
