<svg width="25" height="25" viewBox="0 0 25 25" fill="none" xmlns="http://www.w3.org/2000/svg">
<path d="M2.3999 9.50852C2.3999 8.81894 2.75514 8.178 3.3399 7.81252L10.9399 3.06252C11.5884 2.65719 12.4114 2.65719 13.0599 3.06252L20.6599 7.81252C21.2447 8.178 21.5999 8.81894 21.5999 9.50852V22C21.5999 23.1046 20.7045 24 19.5999 24H4.3999C3.29533 24 2.3999 23.1046 2.3999 22V9.50852Z" fill="#E4E8F5"/>
<path d="M11.4628 3.49998L0.768581 10.3105C0.435726 10.5225 0 10.2834 0 9.8888V8.19083C0 7.84905 0.174553 7.53094 0.462837 7.34735L11.4628 0.342088C11.7905 0.133393 12.2095 0.133392 12.5372 0.342087L23.5372 7.34735C23.8254 7.53094 24 7.84905 24 8.19083V9.8888C24 10.2834 23.5643 10.5225 23.2314 10.3105L12.5372 3.49998C12.2095 3.29129 11.7905 3.29129 11.4628 3.49998Z" fill="#353AB4"/>
<g filter="url(#filter0_d_10488_5779)">
<path d="M13.2002 14.2C13.2002 13.6477 13.6479 13.2 14.2002 13.2H23.0002C23.5525 13.2 24.0002 13.6477 24.0002 14.2V23C24.0002 23.5523 23.5525 24 23.0002 24H14.2002C13.6479 24 13.2002 23.5523 13.2002 23V14.2Z" fill="#B2B9D9"/>
<mask id="mask0_10488_5779" style="mask-type:alpha" maskUnits="userSpaceOnUse" x="13" y="13" width="11" height="11">
<path d="M13.2002 14.2C13.2002 13.6477 13.6479 13.2 14.2002 13.2H23.0002C23.5525 13.2 24.0002 13.6477 24.0002 14.2V23C24.0002 23.5523 23.5525 24 23.0002 24H14.2002C13.6479 24 13.2002 23.5523 13.2002 23V14.2Z" fill="#D0D5EA"/>
</mask>
<g mask="url(#mask0_10488_5779)">
<rect x="12.877" y="17.0859" width="14.6536" height="1.89693" transform="rotate(45 12.877 17.0859)" fill="white"/>
<rect x="14.5503" y="19.3618" width="14.6536" height="2.38843" transform="rotate(-45 14.5503 19.3618)" fill="white"/>
</g>
</g>
<path d="M22.757 17.0988C22.8213 17.0431 22.8842 16.9848 22.9454 16.9238C24.3513 15.5229 24.3513 13.2516 22.9454 11.8507C21.5395 10.4498 19.2601 10.4498 17.8542 11.8507C16.4483 13.2516 16.4483 15.5229 17.8542 16.9238C17.9154 16.9848 17.9783 17.0431 18.0426 17.0988L19.9755 19.0249C20.2099 19.2584 20.5898 19.2584 20.8241 19.0249L22.757 17.0988Z" fill="#353AB4"/>
<ellipse cx="20.4002" cy="14.4" rx="1.2" ry="1.2" fill="white"/>
<defs>
<filter id="filter0_d_10488_5779" x="12.2002" y="12.2" width="12.7998" height="12.8" filterUnits="userSpaceOnUse" color-interpolation-filters="sRGB">
<feFlood flood-opacity="0" result="BackgroundImageFix"/>
<feColorMatrix in="SourceAlpha" type="matrix" values="0 0 0 0 0 0 0 0 0 0 0 0 0 0 0 0 0 0 127 0" result="hardAlpha"/>
<feOffset/>
<feGaussianBlur stdDeviation="0.5"/>
<feColorMatrix type="matrix" values="0 0 0 0 0 0 0 0 0 0 0 0 0 0 0 0 0 0 0.1 0"/>
<feBlend mode="normal" in2="BackgroundImageFix" result="effect1_dropShadow_10488_5779"/>
<feBlend mode="normal" in="SourceGraphic" in2="effect1_dropShadow_10488_5779" result="shape"/>
</filter>
</defs>
</svg>
