<svg width="24" height="24" viewBox="0 0 24 24" fill="none" xmlns="http://www.w3.org/2000/svg">
<rect y="15.6" width="6" height="2.4" rx="1.2" fill="#353AB4"/>
<rect x="1.7998" y="12" width="6" height="2.4" rx="1.2" fill="#353AB4"/>
<path d="M20.6016 8.40039C22.4061 8.40039 23.8019 9.9819 23.5781 11.7725L22.9092 17.124C22.8466 17.6244 22.4213 18 21.917 18H3.59961V15.5996H15.8994L16.7998 8.40039H20.6016Z" fill="#353AB4"/>
<path d="M17.3998 9.59998H20.3259C21.5825 9.59998 22.5046 10.7809 22.1998 12H16.7998L17.3998 9.59998Z" fill="white"/>
<g filter="url(#filter0_d_10605_7829)">
<path d="M4.57308 2.12798C4.61085 1.60501 5.04615 1.20001 5.57048 1.20001H18.1253C18.7059 1.20001 19.1645 1.6929 19.1227 2.27205L18.1601 15.6H3.6001L4.57308 2.12798Z" fill="#E4E8F5"/>
</g>
<path d="M9.55375 1.20001H14.3999L13.3133 6.85046C13.2806 7.02056 13.089 7.10666 12.9401 7.01816L10.9507 5.83591C10.872 5.78913 10.774 5.78913 10.6953 5.83591L8.87819 6.91577C8.6928 7.02595 8.46425 6.86542 8.50497 6.65365L9.55375 1.20001Z" fill="#B2B9D9"/>
<ellipse cx="6.6001" cy="17.4" rx="3" ry="3" fill="#353AB4"/>
<circle cx="17.3999" cy="17.4" r="3" fill="#353AB4"/>
<ellipse cx="6.5998" cy="17.4" rx="1.8" ry="1.8" fill="white"/>
<circle cx="17.4001" cy="17.4" r="1.8" fill="white"/>
<rect y="21.6" width="24" height="2.4" fill="#B2B9D9"/>
<defs>
<filter id="filter0_d_10605_7829" x="2.6001" y="0.200012" width="17.5254" height="16.4" filterUnits="userSpaceOnUse" color-interpolation-filters="sRGB">
<feFlood flood-opacity="0" result="BackgroundImageFix"/>
<feColorMatrix in="SourceAlpha" type="matrix" values="0 0 0 0 0 0 0 0 0 0 0 0 0 0 0 0 0 0 127 0" result="hardAlpha"/>
<feOffset/>
<feGaussianBlur stdDeviation="0.5"/>
<feColorMatrix type="matrix" values="0 0 0 0 0 0 0 0 0 0 0 0 0 0 0 0 0 0 0.1 0"/>
<feBlend mode="normal" in2="BackgroundImageFix" result="effect1_dropShadow_10605_7829"/>
<feBlend mode="normal" in="SourceGraphic" in2="effect1_dropShadow_10605_7829" result="shape"/>
</filter>
</defs>
</svg>
