<svg width="144" height="144" viewBox="0 0 144 144" fill="none" xmlns="http://www.w3.org/2000/svg">
<path d="M94.9216 17.1964C94.8638 18.4135 94.5131 19.6343 94.4372 20.855C94.3252 22.6517 94.8095 24.3578 96.1036 25.6546C98.0844 27.636 100.752 27.8751 103.412 27.8823C102.089 29.1863 100.81 30.5447 99.9423 32.1711C98.4964 34.8806 98.8109 37.659 100.21 40.3141C101.027 41.8609 103.365 40.488 102.552 38.9413C99.9278 33.9642 104.562 30.7439 107.667 27.4875C108.491 26.6217 107.887 25.209 106.709 25.1692C103.944 25.075 99.2989 26.0168 97.5566 23.1588C96.7614 21.8548 97.2313 20.2066 97.4482 18.8048C97.6687 17.3703 97.7771 15.9938 97.3144 14.5956C97.065 13.8422 96.071 13.2372 95.3228 13.7842C92.7275 15.6859 86.2719 17.6601 84.6923 13.5053C84.0778 11.8861 81.4572 12.5888 82.0789 14.2261C84.0597 19.4423 90.4756 19.3916 94.9216 17.1928V17.1964Z" fill="white"/>
<path d="M91.3071 17.1967C91.1589 18.9717 90.6962 20.6452 90.8878 22.4419C91.1047 24.4523 91.8529 26.2888 93.1831 27.8174C95.7675 30.7841 99.6785 31.4687 103.412 31.5086L100.857 25.3252C97.0181 29.1468 94.2096 33.8558 95.9374 39.427C96.6675 41.7778 97.9254 44.1034 100.553 44.5344C102.979 44.9293 105.418 43.3427 106.127 40.9954C106.488 39.8037 106.297 38.6771 105.852 37.5542C105.574 36.8551 105.274 36.3951 105.408 35.6271C105.411 35.5982 105.722 34.957 105.953 34.5948C106.423 33.8594 107.041 33.2328 107.656 32.6061C108.982 31.2586 110.786 29.9763 111.393 28.1108C112.254 25.4629 110.746 22.565 108.079 21.7573C106.449 21.2646 104.551 21.645 102.881 21.6269C102.209 21.6196 101.659 21.6087 101.182 21.4783C100.705 21.3479 100.56 20.9495 100.723 21.5834C100.477 20.6271 101.038 19.1383 101.142 18.2001C101.269 17.0627 101.258 15.9688 101.063 14.835C100.597 12.1291 98.6519 9.85429 95.7097 9.9847C94.3036 10.0499 92.6047 11.3177 91.824 11.6401C91.0432 11.9625 90.2625 12.1943 89.4673 12.3139C89.9119 12.245 89.2648 12.3247 89.2251 12.3283C88.9648 12.3428 88.7046 12.3428 88.4443 12.332C88.7733 12.408 88.7227 12.3972 88.2961 12.3066C87.9021 12.2124 87.9094 11.9516 88.166 12.3935C87.5841 11.3865 87.1467 10.4447 86.1129 9.79996C84.208 8.61184 81.6308 8.72775 79.95 10.2781C76.0354 13.8823 80.2392 19.4969 83.9731 21.156C88.1335 23.007 92.7565 22.2245 96.7507 20.3301C98.5146 19.4933 98.9736 16.9577 98.0483 15.3747C96.9928 13.5636 94.8747 13.2339 93.1035 14.0743C91.3324 14.9147 89.2106 15.2262 87.5335 14.7915C86.9081 14.6285 86.2756 14.1395 85.9286 13.8135C85.8021 13.694 85.6394 13.3064 85.5707 13.2701L83.3984 16.2187L81.5802 15.3421C81.4139 15.6319 82.8489 17.2402 82.8309 17.2221C84.8406 19.3267 87.7431 19.8121 90.5191 19.4317C93.2951 19.0514 95.1928 17.8379 97.5495 16.7367L95.7241 17.233L94.0036 16.168C94.0289 16.3455 94.0361 16.523 94.0289 16.7005C93.9313 17.0337 94.0144 17.501 93.9747 17.856C93.859 18.8232 93.6277 19.7758 93.5481 20.7502C93.3783 22.815 94.0578 24.9159 95.5289 26.3975C98.0013 28.886 101.648 28.944 104.916 28.8353C105.18 28.828 105.498 28.8606 105.755 28.8099C105.953 28.8027 106.149 28.8027 106.347 28.8027L104.793 25.2818C104.349 25.376 103.427 26.6293 103.073 26.977C101.898 28.1398 100.756 29.3714 99.8484 30.7587C98.9411 32.1461 98.2833 33.8993 98.1893 35.6344C98.1387 36.5472 98.2507 37.547 98.4821 38.4308C98.5724 38.7677 98.6989 39.0901 98.8254 39.4125C99.1363 40.7093 99.4219 40.5644 99.6821 38.9778C99.7978 37.4854 100.662 37.0036 102.274 37.5289L103.571 38.8293C101.287 35.6163 103.68 32.7401 105.975 30.4581C108.27 28.176 106.532 24.3074 103.42 24.2748C101.883 24.2567 99.646 24.3472 98.5507 23.0142C97.3615 21.5653 98.4098 18.8087 98.5435 17.2076C98.7062 15.2552 96.7651 13.5853 94.9289 13.5853C92.8361 13.5853 91.477 15.2516 91.3143 17.2076L91.3071 17.1967Z" fill="white"/>
<path d="M47.1401 111.674L52.2115 116.774C52.2368 117.155 52.5223 117.452 52.8729 117.466L64.1179 118.028C64.4179 118.038 64.6926 117.839 64.7938 117.535L66.8758 113.638C67.0638 113.083 67.7433 112.967 68.0722 113.431L78.8292 119.111C78.9666 119.303 79.1798 119.411 79.4039 119.401L87.8946 120.741C88.3825 120.715 88.697 120.165 88.4946 119.687L94.3522 114.631L90.9527 71.5317L58.8081 73.3031" fill="#343EAD"/>
<path d="M94.4551 112.349H47.7675C48.7252 117.628 54.9707 128.185 72.2913 128.185C89.6119 128.185 94.284 117.628 94.4551 112.349Z" fill="#343EAD"/>
<path d="M48.1592 110.689C49.0501 115.618 55.0302 126.129 72.3329 126.129C81.0319 126.129 86.3926 123.476 89.5961 120.314C92.8274 117.125 93.9653 113.319 94.0444 110.869L96.5112 110.949C96.4133 113.983 95.0442 118.405 91.3301 122.071C87.5881 125.765 81.5648 128.597 72.3329 128.597C53.7736 128.597 46.8224 117.169 45.7305 111.129L48.1592 110.689Z" fill="black"/>
<path d="M58.4539 73.2305C58.8045 76.4942 60.4709 102.122 59.0142 105.35C56.9358 109.957 51.4597 110.475 46.7751 110.327" fill="white"/>
<path d="M57.0985 73.2302C57.619 78.2253 57.807 83.2749 58.0166 88.2918C58.154 91.5809 58.2588 94.8735 58.248 98.1662C58.2407 100.18 58.4576 102.582 57.8612 104.534C56.5202 108.928 50.473 109.066 46.7789 108.968C45.033 108.921 45.0366 111.638 46.7789 111.685C50.8525 111.793 55.7069 111.493 58.6745 108.291C60.5035 106.313 60.7637 104.187 60.8866 101.626C61.2192 94.6997 60.7601 87.7013 60.3517 80.7899C60.2035 78.2724 60.0733 75.744 59.8131 73.2338C59.6324 71.5132 56.9214 71.4951 57.1021 73.2338L57.0985 73.2302Z" fill="black"/>
<path d="M67.6785 77.6895L68.4484 90.7371L85.7515 90.6972L84.6815 77.9104" fill="white"/>
<path d="M66.323 77.6895C66.5797 82.0399 66.8363 86.3867 67.0929 90.7371C67.1363 91.4688 67.6785 92.0955 68.4484 92.0955C74.2173 92.0846 79.9862 92.0701 85.7515 92.0592C86.4383 92.0592 87.1684 91.4362 87.107 90.7009C86.7491 86.4374 86.3949 82.1775 86.0371 77.9141C85.8925 76.1862 83.1815 76.1681 83.3261 77.9141C83.6839 82.1775 84.0382 86.4374 84.396 90.7009L85.7515 89.3425C79.9826 89.3534 74.2137 89.3678 68.4484 89.3787L69.8039 90.7371C69.5472 86.3867 69.2906 82.0399 69.034 77.6895C68.9328 75.9507 66.2182 75.9399 66.323 77.6895Z" fill="black"/>
<path d="M43.9631 38.9487L44.6535 30.9507C44.7511 29.8205 45.7089 28.857 47.1114 28.4766L68.4773 22.7026C69.5147 22.4237 70.6822 22.4961 71.6762 22.9055L86.1274 28.8461C87.4684 29.3967 88.2961 30.4689 88.2563 31.6027L87.9599 39.8C87.9021 41.3612 86.2322 42.5711 84.1538 42.553L47.9428 42.1907C45.6547 42.169 43.8149 40.6694 43.9631 38.956V38.9487Z" fill="#343EAD"/>
<path d="M45.3185 38.9485C45.4631 37.2677 45.6077 35.5833 45.7522 33.9026C45.8968 32.2218 45.5534 30.4867 47.4981 29.7767C50.3572 28.7371 53.4803 28.1612 56.4153 27.3679L67.6748 24.3251C68.9833 23.9702 70.017 23.7637 71.4014 24.2491C72.6738 24.6946 73.9099 25.2814 75.157 25.7922C78.6017 27.2085 82.285 28.3966 85.6068 30.0846C87.2731 30.9323 86.8719 32.3558 86.8141 33.9388C86.749 35.7427 87.0056 37.9016 86.608 39.6621C86.1201 41.8173 81.8729 41.1617 80.203 41.1472L68.0254 41.0241L53.6718 40.8792C52.02 40.8611 45.3438 41.6326 45.3221 38.9448C45.3077 37.1989 42.5967 37.1916 42.6112 38.9448C42.6509 43.4619 47.48 43.5343 50.7982 43.5669C55.1068 43.6104 59.4118 43.6539 63.7204 43.6973C68.5784 43.7444 73.4364 43.7951 78.2945 43.8422C80.7849 43.8676 84.1862 44.4218 86.561 43.4293C88.9358 42.4368 89.2901 40.4952 89.3732 38.2276C89.4491 36.0868 89.6407 33.9171 89.6081 31.7763C89.5395 27.6215 83.8682 26.4514 80.756 25.1728C78.5836 24.278 76.4076 23.387 74.2353 22.4922C72.5219 21.7895 70.9315 21.0035 69.0086 21.2281C65.7157 21.6156 62.3613 22.945 59.1732 23.8035C55.0562 24.9156 50.8524 25.8683 46.786 27.1506C44.1112 27.9946 43.4028 29.8021 43.1859 32.3269C42.9943 34.5329 42.8064 36.7352 42.6148 38.9412C42.463 40.6836 45.1775 40.6727 45.3257 38.9412L45.3185 38.9485Z" fill="black"/>
<path d="M47.2383 53.5358C44.6177 71.0172 74.0116 87.1438 88.1663 74.7192C98.7065 65.4678 92.1966 51.2429 83.8288 42.6725L46.1647 41.814C42.4634 41.8502 39.4886 43.8425 39.5898 47.7836C39.6946 51.9673 43.6454 53.0794 47.2419 53.5358" fill="white"/>
<path d="M45.9295 53.1733C44.2812 65.1958 54.9587 74.7407 65.2639 78.5369C70.6931 80.5364 76.9246 81.25 82.5056 79.4316C88.6179 77.4393 93.7144 72.2666 94.7518 65.7899C95.8796 58.7554 92.6771 51.6701 88.5564 46.1497C87.407 44.6065 85.643 41.5203 83.608 41.3102C82.5706 41.2016 81.4863 41.2631 80.4453 41.2378C71.0473 41.0241 61.6493 40.8103 52.2478 40.5966C49.1211 40.5242 45.315 39.941 42.3618 41.2197C39.0183 42.6686 37.3629 46.5336 38.628 49.9929C39.9256 53.5392 43.9125 54.4484 47.2343 54.894C48.9585 55.1258 48.9404 52.4054 47.2343 52.1772C44.3716 51.7932 40.7425 50.8659 40.9413 47.2798C41.0967 44.4399 43.627 43.2047 46.1861 43.1721C48.203 43.1467 50.2308 43.2627 52.2442 43.3098C60.5541 43.4981 68.8641 43.6865 77.1777 43.8785C79.3934 43.9292 81.6055 43.9799 83.8213 44.0306L82.8634 43.6321C87.3383 48.2687 91.3252 54.2456 92.1421 60.7875C92.959 67.3294 89.6589 73.0527 83.9333 75.9324C74.3691 80.7429 61.7903 75.8129 54.6804 68.7892C50.7658 64.9242 47.7584 59.5776 48.5392 53.8978C48.7741 52.1881 46.1608 51.4491 45.9258 53.177L45.9295 53.1733Z" fill="black"/>
<path d="M73.075 47.1318C72.8762 49.0698 72.9485 50.957 73.0172 52.8986C73.0497 53.8259 72.916 54.8981 73.5051 55.6841C74.2461 56.6766 75.5112 56.5897 76.6173 56.4738C78.3993 56.2854 79.9969 56.1949 81.2729 57.7199C85.2743 62.5086 76.8414 65.2905 73.3678 63.6605C71.7954 62.9252 70.4183 65.2652 71.9978 66.0078C76.3173 68.0326 83.9441 66.6706 84.8007 61.0959C85.2887 57.93 83.2139 54.7786 80.1741 53.8404C79.4403 53.6158 78.6595 53.5687 77.8969 53.6122C77.4197 53.6411 76.8125 53.6484 76.3462 53.786C75.4968 54.036 75.8582 54.0613 75.7498 53.7172C75.5112 52.9529 75.6594 51.7575 75.6414 50.9606C75.6088 49.6783 75.6594 48.4069 75.7896 47.1282C75.9703 45.3895 73.2557 45.404 73.0786 47.1282L73.075 47.1318Z" fill="black"/>
<path d="M64.6743 56.142C66.4201 56.142 66.4201 53.4253 64.6743 53.4253C62.9284 53.4253 62.9284 56.142 64.6743 56.142Z" fill="black"/>
<path d="M84.4188 53.4682C86.1646 53.4682 86.1646 50.7515 84.4188 50.7515C82.6729 50.7515 82.6729 53.4682 84.4188 53.4682Z" fill="black"/>
<path d="M46.5151 41.9116C49.5695 42.2558 52.3961 43.0128 55.389 43.6504C59.8096 44.5885 64.3749 45.15 68.8714 45.6535C74.1054 46.2403 79.5959 47.3198 84.8696 47.164C86.6408 47.1097 92.6519 47.2654 91.8061 44.1285C91.4482 42.8027 89.0553 41.9587 87.7794 41.3574" fill="black"/>
<path d="M46.515 43.27C49.6163 43.6504 52.6345 44.4763 55.6925 45.0957C58.4866 45.6608 61.3059 46.081 64.1326 46.4468C70.2195 47.2329 76.4113 48.3268 82.5489 48.5152C85.3683 48.6021 89.6263 48.968 91.9939 47.1133C93.1252 46.2259 93.5373 44.795 92.9806 43.4475C92.236 41.6472 90.089 40.93 88.4588 40.1838C86.8286 39.4376 85.502 41.803 87.0889 42.5311C87.7214 42.8209 90.8372 43.8569 90.5155 44.7914C90.2444 45.5775 88.054 45.6572 87.4105 45.7115C83.5574 46.0339 79.6681 45.6934 75.8475 45.2044C70.8232 44.5632 65.7736 44.0307 60.771 43.2519C55.7684 42.4731 51.3188 41.1437 46.515 40.5533C44.7872 40.3396 44.8017 43.06 46.515 43.27Z" fill="black"/>
<path d="M65.6217 68.7026C64.6674 68.8765 63.359 69.0685 62.4408 68.6266C61.342 68.0977 61.5589 66.7357 62.1951 65.899C63.4818 64.2073 66.3374 63.4503 68.3399 63.9284C70.8014 64.5152 73.628 67.5942 73.0461 70.3363C72.7967 71.5136 71.3834 72.4952 70.2158 72.5894C68.5531 72.7198 67.57 71.1224 67.2446 69.6879C66.8615 67.9818 64.2445 68.7063 64.6313 70.4088C65.741 75.3315 71.4123 76.9688 74.7016 72.9589C77.9908 68.949 73.8774 63.1279 70.0062 61.6138C66.4386 60.2192 61.0601 61.6536 59.3937 65.352C58.5949 67.1233 58.8552 69.3583 60.4564 70.5826C62.0577 71.807 64.4108 71.6693 66.3374 71.3216C68.0507 71.0101 67.3242 68.3911 65.6181 68.7026H65.6217Z" fill="black"/>
<path d="M38.1146 94.3445L48.3692 75.8417C49.0849 76.1278 60.0226 83.4848 60.3805 84.3795C59.4696 87.5526 58.5587 90.7222 57.6478 93.8953C56.6141 97.4959 56.2273 103.082 54.0368 106.113C48.4668 113.843 34.2759 110.196 31.3155 102.038C27.5274 91.6024 36.0217 78.1998 44.0895 72.0346C46.7643 69.9916 48.5969 68.9991 52.0452 69.3722" fill="white"/>
<path d="M39.2856 95.0293C42.705 88.8605 46.1208 82.6953 49.5402 76.5265L47.6859 77.0155C49.7426 77.9645 51.6584 79.562 53.5127 80.8407C54.7995 81.7281 56.0826 82.6265 57.3369 83.561C57.7815 83.8907 58.2333 84.2239 58.6562 84.5825C58.8767 84.7709 59.2924 85.2237 59.2057 85.0679L59.0683 84.0211C58.0309 87.6361 56.8272 91.244 55.9887 94.9098C55.3127 97.8583 55.0127 101.003 53.7874 103.795C51.7596 108.417 46.4172 109.692 41.852 108.678C37.2867 107.664 33.1155 104.592 32.0637 99.7492C30.7479 93.6782 33.3613 87.3065 36.5964 82.286C38.3964 79.4895 40.5616 76.9177 43.0267 74.6827C45.6943 72.263 48.3185 70.4084 52.0415 70.7308C53.7801 70.8829 53.7693 68.1661 52.0415 68.014C47.5197 67.6192 44.1328 69.9773 40.9266 72.9259C37.7205 75.8745 34.7095 79.7395 32.5805 83.7675C28.9443 90.6463 26.7177 100.666 32.8589 106.856C37.5868 111.623 46.2365 113.55 52.0994 109.769C55.638 107.486 56.9176 103.719 57.7526 99.7709C58.2442 97.4599 58.6888 95.167 59.3394 92.8921C59.7623 91.4179 60.1852 89.9472 60.6081 88.4729C60.9479 87.292 61.8009 85.604 61.7286 84.3724C61.6672 83.3147 60.5539 82.6301 59.8021 82.0433C58.5044 81.0326 57.1598 80.08 55.8079 79.1345C53.6609 77.6349 51.4343 75.7622 49.045 74.6574C48.3908 74.3567 47.5739 74.4545 47.1907 75.1464C43.7713 81.3152 40.3555 87.4804 36.9361 93.6492C36.0867 95.1778 38.429 96.5507 39.2784 95.0221L39.2856 95.0293Z" fill="black"/>
<path d="M105.939 97.3094L95.6843 78.8065C94.9686 79.0927 84.0308 86.4496 83.673 87.3443C84.5839 90.5175 85.4948 93.687 86.4056 96.8602C87.4394 100.461 87.8262 106.046 90.0166 109.078C95.5867 116.808 109.778 113.161 112.738 105.003C116.526 94.5672 108.032 81.1646 99.964 74.9994C97.2892 72.9565 95.4566 71.9639 92.0083 72.337" fill="white"/>
<path d="M104.768 96.7571C101.348 90.5882 97.9326 84.423 94.5132 78.2542L96.3675 78.7432C94.3108 79.6923 92.3951 81.2897 90.5408 82.5684C89.254 83.4559 87.9708 84.3542 86.7166 85.2888C86.272 85.6184 85.8201 85.9516 85.3972 86.3103C85.1767 86.4986 84.7611 86.9514 84.8478 86.7957L84.9852 85.7488C86.0226 89.3639 87.2262 92.9717 88.0648 96.6375C88.7407 99.5861 89.0407 102.73 90.2661 105.523C92.2939 110.145 97.6363 111.42 102.201 110.406C106.767 109.392 110.938 106.32 111.99 101.477C113.306 95.4059 110.692 89.0343 107.457 84.0137C105.657 81.2173 103.492 78.6454 101.027 76.4105C98.3592 73.9907 98.2363 74.3312 94.5132 74.6536C92.7746 74.8058 92.7855 72.089 94.5132 71.9369C99.0351 71.542 99.9207 71.705 103.127 74.6536C106.333 77.6022 109.344 81.4672 111.473 85.4952C115.109 92.374 117.336 102.393 111.195 108.584C106.467 113.351 97.817 115.278 91.9541 111.496C88.4154 109.214 87.1359 105.447 86.3009 101.499C85.8093 99.1876 85.3647 96.8947 84.7141 94.6199C84.2912 93.1456 83.8683 91.6749 83.4453 90.2006C83.1056 89.0198 82.2525 87.3318 82.3248 86.1002C82.3863 85.0424 83.4996 84.3578 84.2514 83.771C85.549 82.7604 86.8937 81.8077 88.2455 80.8623C90.3926 79.3626 92.6192 77.4899 95.0084 76.3851C95.6627 76.0844 96.4796 76.1822 96.8627 76.8741C100.282 83.0429 103.698 89.2081 107.117 95.3769C107.967 96.9056 105.625 98.2784 104.775 96.7498L104.768 96.7571Z" fill="black"/>
<path d="M53.3936 72.9293C53.4912 71.1146 53.3141 69.3179 52.8695 67.6589C52.696 67.0068 52.4502 66.3367 51.955 66.0216C51.4417 65.6956 50.7441 65.8405 50.2019 66.2534C49.6561 66.67 49.2477 67.322 48.9513 68.0066C47.7946 70.6726 48.203 73.6864 48.6404 76.4285L57.0877 82.3075C59.3215 80.3913 61.4831 78.3411 63.5579 76.1641C64.3422 75.3382 65.1627 74.4036 65.3977 73.2264C65.7591 71.408 64.6025 69.9337 63.5326 68.7999C62.0578 67.2351 60.2722 65.576 58.1902 66.1665C56.9901 66.507 55.931 67.5756 55.1756 68.818C54.4201 70.0605 53.9286 71.4768 53.4442 72.875" fill="black"/>
<path d="M88.2756 73.6676C88.178 71.8528 88.3551 70.0562 88.7997 68.3971C88.9732 67.7451 89.219 67.075 89.7142 66.7599C90.2275 66.4338 90.9251 66.5787 91.4673 66.9917C92.0131 67.4082 92.4215 68.0603 92.7179 68.7449C93.8746 71.4109 93.4662 74.4247 93.0288 77.1668L84.5815 83.0458C82.3476 81.1296 80.1861 79.0794 78.1113 76.9024C77.327 76.0765 76.5065 75.1419 76.2715 73.9647C75.91 72.1463 77.0667 70.672 78.1366 69.5382C79.6114 67.9733 81.397 66.3143 83.479 66.9047C84.6791 67.2452 85.7381 68.3138 86.4936 69.5563C87.249 70.7987 87.7406 72.2151 88.225 73.6133" fill="black"/>
<path d="M54.749 72.9295C54.8394 70.3975 54.4671 62.5805 49.9452 64.8263C46.2475 66.6629 46.3849 73.1541 47.2849 76.4975C47.7186 78.113 50.3103 79.2432 51.5899 80.1343C53.1948 81.25 54.796 82.3656 56.4009 83.4813C56.9178 83.8399 57.6118 83.6443 58.0419 83.2676C60.7059 80.9674 63.8904 78.4753 65.8495 75.5122C67.7255 72.6759 66.4206 69.8614 64.2988 67.6409C62.4554 65.7138 59.9721 63.899 57.2214 65.0835C54.2936 66.3441 53.1008 69.7382 52.1357 72.5129C51.561 74.1683 54.1779 74.8783 54.749 73.2338C55.3961 71.3791 56.1298 68.7348 57.9986 67.7206C59.983 66.6411 62.0505 69.021 63.1638 70.4409C65.0904 72.8969 63.153 74.661 61.3891 76.4431C59.6251 78.2253 57.9407 79.7793 56.1262 81.3478L57.7672 81.134C54.9515 79.1744 52.1357 77.2147 49.3199 75.255L49.9416 76.0664C49.5766 73.7445 49.2042 71.2125 50.0284 68.9413C50.2019 68.4595 50.4766 67.4815 51.0911 67.5467C51.6369 67.6047 51.5971 68.1227 51.7128 68.6443C52.0273 70.057 52.0851 71.4806 52.0345 72.9222C51.973 74.6718 54.684 74.6682 54.7454 72.9222L54.749 72.9295Z" fill="black"/>
<path d="M86.9201 73.6673C86.8298 71.1353 87.2021 63.3183 91.7239 65.5641C95.4217 67.4006 95.2843 73.8919 94.3843 77.2353C93.9505 78.8508 91.3589 79.981 90.0793 80.8721C88.4744 81.9877 86.8732 83.1034 85.2683 84.2191C84.7514 84.5777 84.0574 84.3821 83.6272 84.0054C80.9633 81.7052 77.7788 79.213 75.8197 76.25C73.9437 73.4137 75.2486 70.5992 77.3704 68.3787C79.2138 66.4516 81.6971 64.6368 84.4478 65.8213C87.3756 67.0819 88.5684 70.476 89.5335 73.2507C90.1082 74.9061 87.4913 75.6161 86.9201 73.9715C86.2731 72.1169 85.5394 69.4726 83.6706 68.4584C81.6862 67.3789 79.6187 69.7588 78.5054 71.1787C76.5788 73.6347 78.5162 75.3987 80.2801 77.1809C82.0441 78.9631 83.7285 80.5171 85.543 82.0855L83.902 81.8718C86.7177 79.9122 89.5335 77.9525 92.3493 75.9928L91.7276 76.8042C92.0926 74.4823 92.4649 71.9503 91.6408 69.6791C91.4673 69.1973 91.1926 68.2193 90.5781 68.2845C90.0323 68.3424 90.0721 68.8604 89.9564 69.3821C89.6419 70.7948 89.5841 72.2183 89.6347 73.66C89.6962 75.4096 86.9852 75.406 86.9238 73.66L86.9201 73.6673Z" fill="black"/>
<path d="M69.446 100.452C69.4858 100.224 69.5111 99.996 69.5689 99.775C69.7352 99.1375 70.1147 98.6412 70.6425 98.2609C71.8027 97.4241 72.9667 96.5873 74.1306 95.7542C74.774 95.2942 75.486 95.0696 76.274 95.1819C76.6282 95.2326 76.9825 95.3413 77.3186 95.4644C79.9573 96.4388 82.5887 97.4277 85.2238 98.4094C86.2069 98.7752 86.7997 99.4707 87.0058 100.496C87.0274 100.612 87.0311 100.735 87.0274 100.854C87.0202 101.756 87.013 102.655 87.0021 103.557C86.9841 105.114 86.9624 106.672 86.9479 108.229C86.9407 109.005 86.9371 109.783 86.9479 110.559C86.9588 111.66 86.0913 112.471 85.2997 112.634C85.0322 112.689 84.743 112.66 84.4647 112.66C83.908 112.66 83.3514 112.66 82.7947 112.652C82.6032 112.652 82.4044 112.652 82.2164 112.613C81.7827 112.522 81.5296 112.171 81.5152 111.674C81.5152 111.624 81.5152 111.577 81.5152 111.526C81.5369 109.179 81.5622 106.835 81.5839 104.488C81.5839 104.288 81.5839 104.093 81.5802 103.894C81.5802 103.763 81.5296 103.705 81.3959 103.694C81.2622 103.683 81.1248 103.683 80.9874 103.683C80.5898 103.68 80.1959 103.676 79.7982 103.673C79.585 103.673 79.5416 103.712 79.538 103.923C79.5235 105.274 79.4982 106.625 79.5018 107.976C79.5018 108.581 79.4404 109.16 79.1693 109.707C78.7934 110.461 78.2042 110.982 77.4271 111.294C76.4547 111.678 75.4788 112.058 74.5065 112.446C74.2824 112.536 74.0474 112.58 73.8052 112.576C73.0245 112.569 72.2437 112.565 71.4666 112.551C70.881 112.54 70.3678 112.344 69.9557 111.917C69.5436 111.493 69.3593 110.975 69.3629 110.388C69.3629 110.229 69.3557 110.07 69.3521 109.907C69.3701 108.081 69.3882 106.255 69.4063 104.43C69.4135 104.375 69.4243 104.325 69.4243 104.27C69.4352 103.35 69.4424 102.43 69.4533 101.514C69.4533 101.459 69.4424 101.409 69.4388 101.354C69.4388 101.057 69.446 100.76 69.446 100.463V100.452ZM71.369 105.469C71.369 105.469 71.3618 105.469 71.3582 105.469C71.3509 106.277 71.3401 107.088 71.3329 107.896C71.3256 108.704 71.322 109.515 71.3184 110.323C71.3184 110.526 71.3798 110.591 71.5786 110.602C71.8895 110.617 72.204 110.635 72.5148 110.649C72.8257 110.664 72.9703 110.53 72.9667 110.218C72.9667 109.954 72.9377 109.689 72.9377 109.428C72.9377 108.834 72.9486 108.24 72.9522 107.646C72.9667 106.331 72.9811 105.02 73.0028 103.705C73.0028 103.553 73.0281 103.401 73.0606 103.252C73.2739 102.347 74.0438 101.717 74.8932 101.698C75.2583 101.691 75.627 101.688 75.9957 101.691C77.8427 101.709 79.6934 101.731 81.5405 101.756C82.2815 101.767 82.8381 102.108 83.2321 102.727C83.4598 103.086 83.5357 103.491 83.5357 103.908C83.5357 104.716 83.5213 105.527 83.5141 106.335C83.4996 107.726 83.4851 109.117 83.4707 110.512C83.4707 110.66 83.5394 110.729 83.7056 110.729C84.0165 110.729 84.3237 110.729 84.6346 110.729C84.9563 110.729 84.9997 110.689 85.0033 110.367C85.0322 107.277 85.0647 104.187 85.0936 101.097C85.0936 101.046 85.0936 100.999 85.0936 100.949C85.0828 100.652 84.9527 100.427 84.678 100.3C84.6093 100.268 84.5406 100.242 84.4719 100.217C82.6791 99.5468 80.8862 98.8767 79.0934 98.2065C78.1753 97.8624 77.2572 97.5219 76.3391 97.1778C75.974 97.0401 75.6378 97.0836 75.3198 97.3082C75.2439 97.3625 75.1679 97.4205 75.0884 97.4748C74.0077 98.2536 72.9233 99.0324 71.8389 99.804C71.5461 100.01 71.4015 100.286 71.4015 100.644C71.4015 101.039 71.4015 101.438 71.4015 101.832C71.3907 103.042 71.3798 104.252 71.3654 105.462L71.369 105.469ZM74.9185 110.142C74.9691 110.128 74.9981 110.124 75.0234 110.113C75.5764 109.899 76.1294 109.686 76.6788 109.468C77.2789 109.229 77.5644 108.776 77.5717 108.135C77.5825 106.73 77.6006 105.328 77.6114 103.923C77.6114 103.676 77.5789 103.64 77.3367 103.636C76.6535 103.629 75.9668 103.622 75.2836 103.615C75.0234 103.615 74.9836 103.654 74.98 103.915C74.9583 105.933 74.9402 107.954 74.9185 109.972C74.9185 110.019 74.9185 110.07 74.9185 110.138V110.142Z" fill="white"/>
<path d="M81.9091 14.2084C84.1754 20.1707 92.2287 19.2506 96.5229 16.1101L94.5312 15.2987C95.1349 17.1279 94.383 18.9862 94.2674 20.8372C94.1517 22.6882 94.6397 24.34 95.9337 25.6368C98.7458 28.4513 102.946 27.7486 106.539 27.8718L105.581 25.5535C103.586 27.6472 101.157 29.5634 99.776 32.157C98.3952 34.7506 98.6446 37.6448 100.043 40.3C100.86 41.8467 103.199 40.4738 102.386 38.9271C99.7615 33.95 104.395 30.7298 107.5 27.4733C108.325 26.6076 107.721 25.1949 106.543 25.155C103.777 25.0608 99.1326 26.0026 97.3904 23.1446C96.5952 21.8406 97.0651 20.1924 97.2819 18.7906C97.4988 17.3888 97.6109 15.9797 97.1482 14.5815C96.8988 13.828 95.9048 13.2231 95.1565 13.7701C92.5613 15.6718 86.1056 17.6459 84.526 13.4911C83.9115 11.872 81.291 12.5747 81.9127 14.212L81.9091 14.2084Z" fill="black"/>
</svg>
