<svg width="24" height="24" viewBox="0 0 24 24" fill="none" xmlns="http://www.w3.org/2000/svg">
<g clip-path="url(#clip0_16483_18898)">
<g clip-path="url(#clip1_16483_18898)">
<path d="M12.8668 18.5954C12.8072 18.2788 12.8259 17.9561 12.8231 17.6362C12.8225 17.1685 12.8262 16.7012 12.817 16.2335C12.817 15.5525 12.817 14.8714 12.817 14.1904C12.7997 13.4604 12.8211 12.7299 12.8042 11.9996C12.805 11.5478 12.8042 11.0966 12.8047 10.6448C12.7891 10.0881 12.8056 9.53085 12.7953 8.97417C12.7847 8.44058 12.8011 7.90644 12.7855 7.37257C12.7861 6.98699 12.7855 6.60085 12.7855 6.21526C12.7766 5.99437 12.778 5.7732 12.7822 5.55204C12.7922 5.27411 12.8695 4.97616 13.0893 4.78949C13.18 4.69852 13.3063 4.66013 13.4062 4.58251C13.4042 4.53243 13.3812 4.4882 13.3436 4.45565C12.9004 3.99607 12.4581 3.53565 12.0185 3.07244C11.9724 3.0168 11.8947 3.02904 11.853 3.08246C11.4162 3.54956 10.9764 4.01415 10.5357 4.47735C10.4901 4.51519 10.4898 4.59113 10.5441 4.62146C10.7085 4.74442 10.8548 4.8966 10.9441 5.08383C11.1027 5.40181 11.1016 5.7682 11.088 6.11511C11.0874 10.1112 11.088 14.1075 11.088 18.1033C11.0796 18.3083 11.0885 18.5172 11.029 18.7162C10.9611 18.9749 10.7914 19.2055 10.5613 19.3432C10.5221 19.3699 10.4723 19.3891 10.4514 19.4353C10.4406 19.4829 10.4832 19.5177 10.511 19.5494C10.9664 19.9884 11.4182 20.4318 11.8691 20.8753C11.9011 20.9064 11.9548 20.9359 11.9941 20.8986C12.5146 20.4182 13.0315 19.9327 13.5495 19.4489C13.3923 19.3966 13.2387 19.3212 13.1252 19.1977C12.9644 19.0386 12.8982 18.8127 12.8662 18.5946L12.8668 18.5954Z" fill="#DE3A31"/>
<path d="M5.37122 10.6128C5.54314 10.6615 5.72425 10.632 5.90007 10.6395C6.51795 10.6573 7.13611 10.6362 7.75399 10.6401C7.70142 10.5513 7.64911 10.4565 7.64661 10.3505C7.63743 10.2322 7.69474 10.1187 7.77764 10.0378C8.60334 9.21347 9.42597 8.38666 10.2567 7.56792C10.3401 7.48557 10.4689 7.47528 10.5705 7.52925C10.5716 7.34647 10.5652 7.16286 10.5755 6.98008C10.5794 6.48182 10.5755 5.98329 10.5677 5.48531C10.5474 5.24773 10.3218 5.08916 10.1051 5.04298C9.9999 5.02406 9.92979 5.11892 9.86358 5.18347C8.33098 6.73554 6.79643 8.28511 5.25854 9.8319C5.1762 9.91842 5.0613 9.99994 5.05435 10.1304C5.04934 10.3335 5.1723 10.5474 5.37122 10.6125V10.6128Z" fill="#DE3A31"/>
<path d="M13.3335 7.60551C13.4022 7.54208 13.4796 7.46947 13.5794 7.46975C13.6707 7.46613 13.7494 7.52372 13.8126 7.58409C14.2076 7.95966 14.5793 8.3586 14.969 8.73973C15.3274 9.09555 15.6804 9.45693 16.0432 9.80802C16.1683 9.93682 16.2924 10.0904 16.3008 10.2779C16.3111 10.4301 16.2015 10.5525 16.0955 10.6465C16.791 10.6454 17.487 10.6465 18.1825 10.646C18.313 10.6443 18.4474 10.6576 18.5734 10.6151C18.7203 10.5706 18.8691 10.4857 18.9353 10.3405C19.0177 10.1702 18.9567 9.9588 18.821 9.83445C17.2875 8.33245 15.7522 6.83239 14.2184 5.33067C14.1481 5.2614 14.0807 5.18796 14.0012 5.12926C13.8668 5.03133 13.6679 5.03216 13.538 5.1376C13.3992 5.24554 13.3357 5.42665 13.3341 5.59802C13.3332 6.26681 13.3341 6.93588 13.3335 7.60495V7.60551Z" fill="#DE3A31"/>
<path d="M20.8936 11.9972C20.8374 11.9084 20.7492 11.8467 20.683 11.766C20.2663 11.3036 19.8445 10.846 19.4219 10.3889C19.3315 10.6321 19.2019 10.8772 18.9793 11.0232C18.7821 11.1565 18.5375 11.184 18.3052 11.1873C17.3129 11.1879 16.3208 11.1873 15.3285 11.1873C14.7782 11.1846 14.2277 11.1937 13.6777 11.181C13.5856 11.1835 13.4885 11.1709 13.4017 11.2085C13.3335 11.2374 13.3244 11.3209 13.3238 11.3857C13.3377 11.8358 13.3397 12.2865 13.3232 12.7369C13.3244 12.7914 13.3338 12.8529 13.3764 12.8919C13.4195 12.9267 13.4774 12.9294 13.5305 12.9294C14.3673 12.9283 15.2047 12.9294 16.0415 12.9286C16.1959 12.9294 16.3603 12.955 16.485 13.0535C16.6079 13.1542 16.6839 13.3256 16.6397 13.4833C16.6038 13.6121 16.5109 13.7123 16.4213 13.8072C15.7263 14.5152 15.0269 15.2187 14.3328 15.9273C14.1531 16.0998 13.9931 16.3118 13.7508 16.3994C13.5937 16.4512 13.4548 16.3346 13.3285 16.2598C13.3271 16.8089 13.3277 17.3581 13.328 17.9073C13.3447 18.129 13.3091 18.3582 13.3822 18.573C13.4323 18.7254 13.5127 18.8821 13.6529 18.9691C13.7756 19.0404 13.9175 18.9633 14.0051 18.8721C16.2766 16.6484 18.5456 14.422 20.8179 12.1994C20.8719 12.1496 20.9365 12.0731 20.8933 11.9969L20.8936 11.9972Z" fill="#DE3A31"/>
<path d="M5.80163 12.9289C7.27859 12.9294 8.75556 12.9289 10.2325 12.9289C10.3213 12.9272 10.4131 12.9364 10.499 12.9086C10.5783 12.8799 10.5758 12.7817 10.5772 12.7127C10.5716 12.3191 10.5853 11.9257 10.583 11.532C10.5819 11.4419 10.5861 11.3506 10.5672 11.2622C10.5416 11.1832 10.4451 11.1901 10.3789 11.1873C8.74638 11.1873 7.11362 11.1873 5.48115 11.1873C5.3031 11.1834 5.12199 11.1509 4.96342 11.0669C4.79372 10.979 4.66574 10.8268 4.58395 10.6568C4.56782 10.6104 4.51051 10.5706 4.47184 10.619C4.07568 11.0279 3.67897 11.4363 3.28254 11.8447C3.22634 11.9043 3.15874 11.9554 3.11673 12.0269C3.08529 12.0817 3.14065 12.1313 3.17654 12.166C3.63474 12.5895 4.0857 13.0207 4.54361 13.4441C4.59174 13.3033 4.66741 13.1648 4.7926 13.0785C4.9623 12.9567 5.17958 12.9364 5.38183 12.9347C5.52176 12.9389 5.66142 12.9252 5.80135 12.9286L5.80163 12.9289Z" fill="#DE3A31"/>
<path d="M10.5772 17.4653C10.5772 17.0711 10.5772 16.6766 10.5772 16.2827C10.4856 16.3341 10.3891 16.3856 10.2826 16.3937C10.164 16.3928 10.07 16.3099 9.98905 16.2329C9.31915 15.5649 8.65647 14.89 7.9888 14.2198C7.88364 14.1116 7.79517 13.9778 7.77597 13.825C7.75511 13.6884 7.79879 13.5524 7.86277 13.4331C7.52838 13.4367 7.1937 13.4322 6.85958 13.4275C6.40834 13.4406 5.95683 13.43 5.50559 13.435C5.42658 13.442 5.34757 13.4573 5.27273 13.4837C5.13029 13.5363 5.03738 13.677 5.01011 13.822C4.99453 13.9224 5.06075 14.0092 5.12863 14.0749C6.06616 15.0085 6.99701 15.9494 7.939 16.8786C8.61641 17.5557 9.293 18.2339 9.97125 18.9102C10.0472 18.9893 10.1791 19.0321 10.2736 18.9589C10.4637 18.8084 10.5591 18.5644 10.5758 18.3274C10.5838 18.04 10.5897 17.7527 10.5777 17.4656L10.5772 17.4653Z" fill="#DE3A31"/>
<path d="M11.9999 0C5.37259 0 0 5.37259 0 11.9999C0 18.6271 5.37259 23.9997 11.9999 23.9997C18.6271 23.9997 23.9997 18.6271 23.9997 11.9999C23.9997 5.37259 18.6274 0 11.9999 0ZM19.5076 19.5076C18.532 20.4833 17.3964 21.2489 16.1322 21.7836C14.8241 22.3369 13.4337 22.6173 11.9999 22.6173C10.566 22.6173 9.17558 22.3369 7.86748 21.7836C6.60334 21.2489 5.46773 20.483 4.49209 19.5076C3.51644 18.532 2.75084 17.3964 2.21614 16.1322C1.6628 14.8241 1.38237 13.4337 1.38237 11.9999C1.38237 10.566 1.6628 9.17558 2.21614 7.86748C2.75084 6.60334 3.51672 5.46773 4.49209 4.49209C5.46773 3.51644 6.60334 2.75084 7.86748 2.21614C9.17558 1.6628 10.566 1.38237 11.9999 1.38237C13.4337 1.38237 14.8241 1.6628 16.1322 2.21614C17.3964 2.75084 18.532 3.51672 19.5076 4.49209C20.4833 5.46773 21.2489 6.60334 21.7836 7.86748C22.3369 9.17558 22.6173 10.566 22.6173 11.9999C22.6173 13.4337 22.3369 14.8241 21.7836 16.1322C21.2489 17.3964 20.4833 18.532 19.5076 19.5076Z" fill="#DE3A31"/>
</g>
</g>
<defs>
<clipPath id="clip0_16483_18898">
<rect width="24" height="24" fill="white"/>
</clipPath>
<clipPath id="clip1_16483_18898">
<rect width="24" height="24" fill="white"/>
</clipPath>
</defs>
</svg>
