<svg width="24" height="24" viewBox="0 0 24 24" fill="none" xmlns="http://www.w3.org/2000/svg">
<path d="M21 2C21.1377 2 21.269 2.02785 21.3884 2.07823L21.7092 2.29502C21.8815 2.46831 21.9907 2.70438 21.9994 2.96589C21.9998 2.97721 22 2.98858 22 3L22 7C22 7.55229 21.5523 8 21 8.00001C20.4477 8.00001 20 7.55229 20 7.00001L20 5.41422L13.7071 11.7071C13.3166 12.0976 12.6834 12.0976 12.2929 11.7071C11.9024 11.3166 11.9024 10.6834 12.2929 10.2929L18.5858 4L17 4.00001C16.4477 4.00001 16 3.55229 16 3.00001C16 2.44772 16.4477 2.00001 17 2.00001L21 2Z" fill="#181C2F"/>
<path d="M7 4C4.23858 4 2 6.23858 2 9V17C2 19.7614 4.23858 22 7 22H15C17.7614 22 20 19.7614 20 17V13C20 12.4477 19.5523 12 19 12C18.4477 12 18 12.4477 18 13V17C18 18.6569 16.6569 20 15 20H7C5.34315 20 4 18.6569 4 17V9C4 7.34315 5.34315 6 7 6H12C12.5523 6 13 5.55228 13 5C13 4.44772 12.5523 4 12 4H7Z" fill="#181C2F"/>
</svg>
