<svg width="20" height="20" viewBox="0 0 20 20" fill="none" xmlns="http://www.w3.org/2000/svg">
<path d="M9.00018 9.5C9.00018 10.3284 8.32861 11 7.50018 11C6.67176 11 6.00018 10.3284 6.00018 9.5C6.00018 8.67157 6.67176 8 7.50018 8C8.32861 8 9.00018 8.67157 9.00018 9.5Z" fill="#1B1D22"/>
<path d="M12.5002 11C13.3286 11 14.0002 10.3284 14.0002 9.5C14.0002 8.67157 13.3286 8 12.5002 8C11.6718 8 11.0002 8.67157 11.0002 9.5C11.0002 10.3284 11.6718 11 12.5002 11Z" fill="#1B1D22"/>
<path d="M9.00018 5.5C9.00018 6.32843 8.32861 7 7.50018 7C6.67176 7 6.00018 6.32843 6.00018 5.5C6.00018 4.67157 6.67176 4 7.50018 4C8.32861 4 9.00018 4.67157 9.00018 5.5Z" fill="#1B1D22"/>
<path d="M12.5002 7C13.3286 7 14.0002 6.32843 14.0002 5.5C14.0002 4.67157 13.3286 4 12.5002 4C11.6718 4 11.0002 4.67157 11.0002 5.5C11.0002 6.32843 11.6718 7 12.5002 7Z" fill="#1B1D22"/>
<path fill-rule="evenodd" clip-rule="evenodd" d="M6.07689 0.00294553C5.98563 -0.0040747 5.89383 0.00146829 5.80408 0.0194193L0.804077 1.01942C0.262517 1.12773 -0.0886997 1.65456 0.0196121 2.19612C0.127924 2.73768 0.654749 3.08889 1.19631 2.98058L2.00018 2.81981V17C2.00018 18.6569 3.34333 20 5.00018 20H15.0002C16.657 20 18.0002 18.6569 18.0002 17V2.92603L18.9235 2.99705C19.4742 3.03941 19.9549 2.62735 19.9972 2.0767C20.0396 1.52604 19.6275 1.0453 19.0769 1.00295L6.07689 0.00294553ZM16.0002 2.77218L6.06104 2.00763L4.00018 2.41981V17C4.00018 17.5523 4.4479 18 5.00018 18H6.00018V16C6.00018 14.3431 7.34333 13 9.00018 13H11.0002C12.657 13 14.0002 14.3431 14.0002 16V18H15.0002C15.5525 18 16.0002 17.5523 16.0002 17V2.77218ZM12.0002 18H8.00018V16C8.00018 15.4477 8.4479 15 9.00018 15H11.0002C11.5525 15 12.0002 15.4477 12.0002 16V18Z" fill="#1B1D22"/>
</svg>
