<svg width="16" height="20" viewBox="0 0 16 20" fill="none" xmlns="http://www.w3.org/2000/svg">
<path d="M12 5.35205C12 6.18048 11.3284 6.85205 10.5 6.85205C9.67157 6.85205 9 6.18048 9 5.35205C9 4.52362 9.67157 3.85205 10.5 3.85205C11.3284 3.85205 12 4.52362 12 5.35205Z" fill="#1B1D22"/>
<path d="M10.5 11.8521C11.3284 11.8521 12 11.1805 12 10.3521C12 9.52362 11.3284 8.85205 10.5 8.85205C9.67157 8.85205 9 9.52362 9 10.3521C9 11.1805 9.67157 11.8521 10.5 11.8521Z" fill="#1B1D22"/>
<path d="M7 5.35205C7 6.18048 6.32843 6.85205 5.5 6.85205C4.67157 6.85205 4 6.18048 4 5.35205C4 4.52362 4.67157 3.85205 5.5 3.85205C6.32843 3.85205 7 4.52362 7 5.35205Z" fill="#1B1D22"/>
<path d="M5.5 11.8521C6.32843 11.8521 7 11.1805 7 10.3521C7 9.52362 6.32843 8.85205 5.5 8.85205C4.67157 8.85205 4 9.52362 4 10.3521C4 11.1805 4.67157 11.8521 5.5 11.8521Z" fill="#1B1D22"/>
<path fill-rule="evenodd" clip-rule="evenodd" d="M3.21374 0.00777841C1.47714 -0.116265 0 1.25913 0 3.00015V16.8522C0 18.5091 1.34315 19.8522 3 19.8522H13C14.6569 19.8522 16 18.5091 16 16.8522V3.71444C16 2.14053 14.7837 0.834201 13.2137 0.722064L3.21374 0.00777841ZM2 3.00015C2 2.41981 2.49238 1.96135 3.07125 2.0027L13.0712 2.71698C13.5946 2.75436 14 3.1898 14 3.71444V16.8522C14 17.4045 13.5523 17.8522 13 17.8522H12V15.8521C12 14.1952 10.6569 12.8521 9 12.8521H7C5.34315 12.8521 4 14.1952 4 15.8521V17.8522H3C2.44772 17.8522 2 17.4045 2 16.8522V3.00015ZM6 15.8521C6 15.2998 6.44772 14.8521 7 14.8521H9C9.55228 14.8521 10 15.2998 10 15.8521V17.8521H6V15.8521Z" fill="#1B1D22"/>
</svg>
