<svg width="24" height="24" viewBox="0 0 24 24" fill="none" xmlns="http://www.w3.org/2000/svg">
<path d="M4 5C4 3.34315 5.34315 2 7 2H17C18.6569 2 20 3.34315 20 5V18.5536C20 20.8571 17.5116 22.3012 15.5116 21.1584L12.4961 19.4353C12.1887 19.2596 11.8113 19.2596 11.5039 19.4353L8.48842 21.1584C6.48845 22.3012 4 20.8571 4 18.5536V5ZM7 4C6.44772 4 6 4.44772 6 5V18.5536C6 19.3215 6.82948 19.8028 7.49614 19.4219L10.5116 17.6988C11.4339 17.1717 12.5661 17.1717 13.4884 17.6988L16.5039 19.4219C17.1705 19.8028 18 19.3215 18 18.5536V5C18 4.44772 17.5523 4 17 4H7Z" fill="#1B1D22"/>
</svg>
