<svg width="24" height="24" viewBox="0 0 24 24" fill="none" xmlns="http://www.w3.org/2000/svg">
<path d="M21.3525 10.7245C21.8234 8.83189 20.3916 7.0001 18.4412 7.0001H7.48135L6.99545 5.18668C6.64402 3.87513 5.45549 2.96313 4.09767 2.96313H2.99994C2.44765 2.96313 1.99994 3.41085 1.99994 3.96313C1.99994 4.51542 2.44765 4.96314 2.99994 4.96314L4.09767 4.96313C4.55027 4.96313 4.94645 5.26713 5.06359 5.70432L7.50444 14.8137C7.85587 16.1252 9.0444 17.0372 10.4022 17.0372H17.4366C18.8145 17.0372 20.0151 16.0987 20.3478 14.7616L21.3525 10.7245Z" fill="#1B1D22"/>
<path d="M11 20.0001C11 21.1047 10.1046 22.0001 9 22.0001C7.89543 22.0001 7 21.1047 7 20.0001C7 18.8955 7.89543 18.0001 9 18.0001C10.1046 18.0001 11 18.8955 11 20.0001Z" fill="#1B1D22"/>
<path d="M20 20.0001C20 21.1047 19.1046 22.0001 18 22.0001C16.8954 22.0001 16 21.1047 16 20.0001C16 18.8955 16.8954 18.0001 18 18.0001C19.1046 18.0001 20 18.8955 20 20.0001Z" fill="#1B1D22"/>
</svg>
