<svg width="24" height="24" viewBox="0 0 24 24" fill="none" xmlns="http://www.w3.org/2000/svg">
<path d="M16 11.5C16 10.9477 15.5523 10.5 15 10.5C14.4477 10.5 14 10.9477 14 11.5V13.5C14 14.0523 14.4477 14.5 15 14.5C15.5523 14.5 16 14.0523 16 13.5V11.5Z" fill="#1B1D22"/>
<path d="M5.12132 5.5C3.39746 5.5 2 6.89746 2 8.62132C2 9.44915 2.32885 10.2431 2.91421 10.8284L3.17157 11.0858C3.95262 11.8668 3.95262 13.1332 3.17157 13.9142L2.91421 14.1716C2.32885 14.7569 2 15.5509 2 16.3787C2 18.1025 3.39746 19.5 5.12132 19.5H18.8787C20.6025 19.5 22 18.1025 22 16.3787C22 15.5509 21.6711 14.7569 21.0858 14.1716L20.8284 13.9142C20.0474 13.1332 20.0474 11.8668 20.8284 11.0858L21.0858 10.8284C21.6711 10.2431 22 9.44915 22 8.62132C22 6.89746 20.6025 5.5 18.8787 5.5H5.12132ZM16 16.5C16 15.9477 15.5523 15.5 15 15.5C14.4477 15.5 14 15.9477 14 16.5V17.5H5.12132C4.50203 17.5 4 16.998 4 16.3787C4 16.0813 4.11814 15.7961 4.32843 15.5858L4.58579 15.3284C6.14788 13.7663 6.14788 11.2337 4.58579 9.67157L4.32843 9.41421C4.11814 9.20393 4 8.91871 4 8.62132C4 8.00203 4.50203 7.5 5.12132 7.5H14V8.5C14 9.05228 14.4477 9.5 15 9.5C15.5523 9.5 16 9.05228 16 8.5V7.5H18.8787C19.498 7.5 20 8.00203 20 8.62132C20 8.91871 19.8819 9.20393 19.6716 9.41421L19.4142 9.67157C17.8521 11.2337 17.8521 13.7663 19.4142 15.3284L19.6716 15.5858C19.8819 15.7961 20 16.0813 20 16.3787C20 16.998 19.498 17.5 18.8787 17.5H16V16.5Z" fill="#1B1D22"/>
</svg>
