<svg width="16" height="16" viewBox="0 0 16 16" fill="none" xmlns="http://www.w3.org/2000/svg">
<path d="M1.3335 7.99992C1.3335 4.31802 4.31826 1.33325 8.00016 1.33325C11.6821 1.33325 14.6668 4.31802 14.6668 7.99992C14.6668 11.6818 11.6821 14.6666 8.00016 14.6666C4.31826 14.6666 1.3335 11.6818 1.3335 7.99992ZM10.4716 5.52851C10.2112 5.26816 9.78911 5.26816 9.52876 5.52851L8.00016 7.05711L6.47157 5.52851C6.21122 5.26816 5.78911 5.26816 5.52876 5.52851C5.26841 5.78886 5.26841 6.21097 5.52876 6.47132L7.05735 7.99992L5.52876 9.52851C5.26841 9.78886 5.26841 10.211 5.52876 10.4713C5.78911 10.7317 6.21122 10.7317 6.47157 10.4713L8.00016 8.94273L9.52876 10.4713C9.78911 10.7317 10.2112 10.7317 10.4716 10.4713C10.7319 10.211 10.7319 9.78886 10.4716 9.52851L8.94297 7.99992L10.4716 6.47132C10.7319 6.21097 10.7319 5.78886 10.4716 5.52851Z" fill="#DB1439"/>
</svg>
