<svg width="24" height="24" viewBox="0 0 24 24" fill="none" xmlns="http://www.w3.org/2000/svg">
<path d="M12.5 12H11V9H12.5C13.3284 9 14 9.67157 14 10.5C14 11.3284 13.3284 12 12.5 12Z" fill="#1B1D22"/>
<path fill-rule="evenodd" clip-rule="evenodd" d="M12 22C17.5228 22 22 17.5228 22 12C22 6.47715 17.5228 2 12 2C6.47715 2 2 6.47715 2 12C2 17.5228 6.47715 22 12 22ZM12.5 7H10C9.44772 7 9 7.44772 9 8V16C9 16.5523 9.44772 17 10 17C10.5523 17 11 16.5523 11 16V14H12.5C14.433 14 16 12.433 16 10.5C16 8.567 14.433 7 12.5 7Z" fill="#1B1D22"/>
</svg>
