<svg width="24" height="24" viewBox="0 0 24 24" fill="none" xmlns="http://www.w3.org/2000/svg">
<path d="M12.003 22C17.5245 21.9984 22 17.5218 22 12C22 6.47715 17.5228 2 12 2C6.47715 2 2 6.47715 2 12C2 17.5216 6.47514 21.998 11.9963 22H12.003ZM6.19053 17.5C7.64755 15.9617 9.71172 15 12 15C14.2883 15 16.3525 15.9617 17.8095 17.5C16.3514 19.0396 14.2878 20 12 20C9.71216 20 7.64862 19.0396 6.19053 17.5ZM12 13C10.3431 13 9 11.6569 9 10C9 8.34315 10.3431 7 12 7C13.6569 7 15 8.34315 15 10C15 11.6569 13.6569 13 12 13Z" fill="#1B1D22"/>
</svg>
