<svg width="24" height="24" viewBox="0 0 24 24" fill="none" xmlns="http://www.w3.org/2000/svg">
<path d="M12 4C9.23858 4 7 6.23858 7 9V14.6029C7 16.3592 7.92149 17.9867 9.42752 18.8903L11.5145 20.1425C11.9881 20.4267 12.1416 21.0409 11.8575 21.5145C11.5733 21.9881 10.9591 22.1416 10.4855 21.8575L8.39853 20.6053C6.95369 19.7384 5.89314 18.3956 5.36868 16.845C5.0981 16.9452 4.80545 17 4.5 17C3.11929 17 2 15.8807 2 14.5V11.5C2 10.1193 3.11929 9 4.5 9C4.67123 9 4.83844 9.01722 5 9.05001V9C5 5.13401 8.13401 2 12 2C15.866 2 19 5.13401 19 9V9.05001C19.1616 9.01722 19.3288 9 19.5 9C20.8807 9 22 10.1193 22 11.5V14.5C22 15.8807 20.8807 17 19.5 17C18.1193 17 17 15.8807 17 14.5V9C17 6.23858 14.7614 4 12 4ZM5 14.5V11.5C5 11.2239 4.77614 11 4.5 11C4.22386 11 4 11.2239 4 11.5V14.5C4 14.7761 4.22386 15 4.5 15C4.77614 15 5 14.7761 5 14.5ZM19 11.5V14.5C19 14.7761 19.2239 15 19.5 15C19.7761 15 20 14.7761 20 14.5V11.5C20 11.2239 19.7761 11 19.5 11C19.2239 11 19 11.2239 19 11.5Z" fill="#1B1D22"/>
<path d="M14.7071 14.707C15.0976 14.3165 15.0976 13.6833 14.7071 13.2928C14.3166 12.9023 13.6834 12.9023 13.2929 13.2928C12.5788 14.0068 11.4212 14.0068 10.7071 13.2928C10.3166 12.9023 9.68342 12.9023 9.29289 13.2928C8.90237 13.6833 8.90237 14.3165 9.29289 14.707C10.788 16.2021 13.212 16.2021 14.7071 14.707Z" fill="#1B1D22"/>
<path d="M11 9C11 9.55228 10.5523 10 10 10C9.44772 10 9 9.55228 9 9C9 8.44772 9.44772 8 10 8C10.5523 8 11 8.44772 11 9Z" fill="#1B1D22"/>
<path d="M14 10C14.5523 10 15 9.55228 15 9C15 8.44772 14.5523 8 14 8C13.4477 8 13 8.44772 13 9C13 9.55228 13.4477 10 14 10Z" fill="#1B1D22"/>
</svg>
