<svg width="24" height="24" viewBox="0 0 24 24" fill="none" xmlns="http://www.w3.org/2000/svg">
<path d="M7 14C6.44772 14 6 14.4477 6 15C6 15.5523 6.44772 16 7 16H9C9.55228 16 10 15.5523 10 15C10 14.4477 9.55228 14 9 14H7Z" fill="#1B1D22"/>
<path d="M7 4C4.23858 4 2 6.23858 2 9V15C2 17.7614 4.23858 20 7 20H17C19.7614 20 22 17.7614 22 15V9C22 6.23858 19.7614 4 17 4H7ZM4 9C4 7.34315 5.34315 6 7 6H17C18.6569 6 20 7.34315 20 9V15C20 16.6569 18.6569 18 17 18H7C5.34315 18 4 16.6569 4 15V9Z" fill="#1B1D22"/>
</svg>
