<svg width="24" height="24" viewBox="0 0 24 24" fill="none" xmlns="http://www.w3.org/2000/svg">
<path d="M14 11.303C14 9.32419 11.4336 8.54713 10.3359 10.1936L10.168 10.4455C9.86161 10.9051 9.98579 11.5259 10.4453 11.8323C10.9048 12.1386 11.5257 12.0145 11.8321 11.5549L12 11.303V17.0002C12 17.5525 12.4477 18.0002 13 18.0002C13.5523 18.0002 14 17.5525 14 17.0002V11.303Z" fill="#1B1D22"/>
<path d="M2 7C2 4.23858 4.23858 2 7 2H17C19.7614 2 22 4.23858 22 7V17C22 19.7614 19.7614 22 17 22H7C4.23858 22 2 19.7614 2 17V7ZM17 4H7C5.69378 4 4.58254 4.83481 4.17071 6H19.8293C19.4175 4.83481 18.3062 4 17 4ZM20 8H4V17C4 18.6569 5.34315 20 7 20H17C18.6569 20 20 18.6569 20 17V8Z" fill="#1B1D22"/>
</svg>
