<svg width="24" height="24" viewBox="0 0 24 24" fill="none" xmlns="http://www.w3.org/2000/svg">
<path d="M10 10C10 8.89543 10.8954 8 12 8C13.1046 8 14 8.89543 14 10C14 11.1046 13.1046 12 12 12C11.4477 12 11 12.4477 11 13V15C11 15.5523 11.4477 16 12 16C12.5523 16 13 15.5523 13 15V13.874C14.7252 13.4299 16 11.8638 16 10C16 7.79086 14.2091 6 12 6C9.79086 6 8 7.79086 8 10C8 10.5523 8.44772 11 9 11C9.55228 11 10 10.5523 10 10Z" fill="#1B1D22"/>
<path d="M13 18C13 18.5523 12.5523 19 12 19C11.4477 19 11 18.5523 11 18C11 17.4477 11.4477 17 12 17C12.5523 17 13 17.4477 13 18Z" fill="#1B1D22"/>
<path d="M12 2C6.47715 2 2 6.47715 2 12C2 17.5228 6.47715 22 12 22C17.5228 22 22 17.5228 22 12C22 6.47715 17.5228 2 12 2ZM4 12C4 7.58172 7.58172 4 12 4C16.4183 4 20 7.58172 20 12C20 16.4183 16.4183 20 12 20C7.58172 20 4 16.4183 4 12Z" fill="#1B1D22"/>
</svg>
