<svg width="24" height="24" viewBox="0 0 24 24" fill="none" xmlns="http://www.w3.org/2000/svg">
<path fill-rule="evenodd" clip-rule="evenodd" d="M2.01205 1C1.45311 1 1 1.45311 1 2.01205C1 2.57099 1.45311 3.0241 2.01205 3.0241H3.51353L4.04931 5.97092C4.05133 5.98332 4.05357 5.99565 4.05604 6.0079L5.42936 13.5612C5.43139 13.5736 5.43364 13.586 5.43612 13.5984L6.05547 17.0048C5.51217 17.5334 5.1747 18.2725 5.1747 19.0904C5.1747 20.6973 6.47739 22 8.08433 22C9.69128 22 10.994 20.6973 10.994 19.0904C10.994 18.7816 10.9459 18.484 10.8568 18.2048H15.1794C15.0903 18.484 15.0422 18.7816 15.0422 19.0904C15.0422 20.6973 16.3449 22 17.9518 22C19.5588 22 20.8614 20.6973 20.8614 19.0904C20.8614 17.4845 19.5605 16.1825 17.9551 16.1807L17.9518 16.1807L8.08433 16.1807L7.96292 16.1807L7.6409 14.4096H18.3409C18.9335 14.4096 19.5072 14.2017 19.9621 13.822C20.417 13.4424 20.7242 12.9151 20.8302 12.3321L21.9837 5.98827C22.0373 5.69301 21.9572 5.38916 21.7649 5.15876C21.5727 4.92836 21.288 4.79518 20.9879 4.79518H5.89282L5.4672 2.45426C5.393 2.04619 5.17794 1.67709 4.8595 1.41133C4.54106 1.14557 4.13945 1 3.72468 1H2.01205ZM6.26084 6.81927L7.27289 12.3855H18.3409C18.4594 12.3855 18.5742 12.3439 18.6652 12.268C18.7561 12.1921 18.8176 12.0866 18.8388 11.97L19.7753 6.81927H6.26084ZM7.19879 19.0904C7.19879 18.6013 7.59526 18.2048 8.08433 18.2048C8.57341 18.2048 8.96988 18.6013 8.96988 19.0904C8.96988 19.5794 8.57341 19.9759 8.08433 19.9759C7.59526 19.9759 7.19879 19.5794 7.19879 19.0904ZM17.9518 18.2048C17.4627 18.2048 17.0663 18.6013 17.0663 19.0904C17.0663 19.5794 17.4627 19.9759 17.9518 19.9759C18.4409 19.9759 18.8373 19.5794 18.8373 19.0904C18.8373 18.6013 18.4409 18.2048 17.9518 18.2048Z" fill="#262626"/>
</svg>
