<svg width="20" height="20" viewBox="0 0 20 20" fill="none" xmlns="http://www.w3.org/2000/svg">
<path d="M10 8.33317C10.4603 8.33317 10.8334 8.70627 10.8334 9.1665V13.3332C10.8334 13.7934 10.4603 14.1665 10 14.1665C9.53978 14.1665 9.16669 13.7934 9.16669 13.3332V9.1665C9.16669 8.70627 9.53978 8.33317 10 8.33317Z" fill="white"/>
<path d="M10 7.49984C10.4603 7.49984 10.8334 7.12674 10.8334 6.6665C10.8334 6.20627 10.4603 5.83317 10 5.83317C9.53978 5.83317 9.16669 6.20627 9.16669 6.6665C9.16669 7.12674 9.53978 7.49984 10 7.49984Z" fill="white"/>
<path d="M1.66669 9.99984C1.66669 5.39746 5.39765 1.6665 10 1.6665C14.6024 1.6665 18.3334 5.39746 18.3334 9.99984C18.3334 14.6022 14.6024 18.3332 10 18.3332C5.39765 18.3332 1.66669 14.6022 1.66669 9.99984ZM10 3.33317C6.31812 3.33317 3.33335 6.31794 3.33335 9.99984C3.33335 13.6817 6.31812 16.6665 10 16.6665C13.6819 16.6665 16.6667 13.6817 16.6667 9.99984C16.6667 6.31794 13.6819 3.33317 10 3.33317Z" fill="white"/>
</svg>
