<svg width="24" height="24" viewBox="0 0 24 24" fill="none" xmlns="http://www.w3.org/2000/svg">
<path d="M22 7C22 7.87232 21.7766 8.69246 21.3839 9.40634C20.8831 10.3167 20.107 11.0543 19.1677 11.5069C19.1411 11.5198 19.1143 11.5324 19.0874 11.5448C18.4521 11.837 17.7451 12 17 12C14.9496 12 13.1875 10.7659 12.416 8.99991C12.1484 8.38747 12 7.71107 12 7C12 4.23862 14.2386 2 17 2C19.7614 2 22 4.23858 22 7ZM17 4.25C16.5858 4.25 16.25 4.58579 16.25 5V6.25H15C14.5858 6.25 14.25 6.58579 14.25 7C14.25 7.41421 14.5858 7.75 15 7.75H16.25V9C16.25 9.41421 16.5858 9.75 17 9.75C17.4142 9.75 17.75 9.41421 17.75 9V7.75H19C19.4142 7.75 19.75 7.41421 19.75 7C19.75 6.58579 19.4142 6.25 19 6.25H17.75V5C17.75 4.58579 17.4142 4.25 17 4.25Z" fill="#181C2F"/>
<path d="M10 6.99991H7.48141L6.99551 5.18649C6.64408 3.87494 5.45555 2.96295 4.09773 2.96295H3C2.44771 2.96295 2 3.41067 2 3.96295C2 4.51524 2.44771 4.96295 3 4.96295L4.09773 4.96295C4.55034 4.96295 4.94651 5.26695 5.06366 5.70413L7.5045 14.8135C7.85593 16.125 9.04446 17.037 10.4023 17.037H17.4367C18.8145 17.037 20.0152 16.0985 20.3479 14.7615L20.8193 12.8672C20.1271 13.3187 19.3501 13.651 18.5174 13.8351L18.4071 14.2785C18.2962 14.7242 17.896 15.037 17.4367 15.037H10.4023C9.94967 15.037 9.55349 14.733 9.43635 14.2958L8.01731 8.99991H10.2899C10.1013 8.36623 10 7.69485 10 6.99991Z" fill="#181C2F"/>
<path d="M9.00003 22C10.1046 22 11 21.1046 11 20C11 18.8954 10.1046 18 9.00003 18C7.89546 18 7.00003 18.8954 7.00003 20C7.00003 21.1046 7.89546 22 9.00003 22Z" fill="#181C2F"/>
<path d="M18 22C19.1046 22 20 21.1046 20 20C20 18.8954 19.1046 18 18 18C16.8955 18 16 18.8954 16 20C16 21.1046 16.8955 22 18 22Z" fill="#181C2F"/>
</svg>
