<svg width="20" height="20" viewBox="0 0 20 20" fill="none" xmlns="http://www.w3.org/2000/svg">
<path d="M8.74996 4.16667C8.48766 4.16667 8.24067 4.29016 8.08329 4.5L7.13329 5.76667C6.70837 6.33323 6.0415 6.66667 5.33329 6.66667C4.22872 6.66667 3.33329 7.5621 3.33329 8.66667V13.3333C3.33329 14.714 4.45258 15.8333 5.83329 15.8333H14.1666C15.5473 15.8333 16.6666 14.714 16.6666 13.3333V8.66667C16.6666 7.5621 15.7712 6.66667 14.6666 6.66667C13.9584 6.66667 13.2915 6.33323 12.8666 5.76667L11.9166 4.5C11.7592 4.29016 11.5123 4.16667 11.25 4.16667H8.74996ZM6.74996 3.5C7.2221 2.87049 7.96307 2.5 8.74996 2.5H11.25C12.0369 2.5 12.7778 2.87049 13.25 3.5L14.2 4.76667C14.3101 4.91355 14.483 5 14.6666 5C16.6917 5 18.3333 6.64162 18.3333 8.66667V13.3333C18.3333 15.6345 16.4678 17.5 14.1666 17.5H5.83329C3.53211 17.5 1.66663 15.6345 1.66663 13.3333V8.66667C1.66663 6.64162 3.30825 5 5.33329 5C5.5169 5 5.68979 4.91355 5.79996 4.76667L6.74996 3.5Z" fill="#1B1D22"/>
<path d="M9.99996 9.16667C9.07948 9.16667 8.33329 9.91286 8.33329 10.8333C8.33329 11.7538 9.07948 12.5 9.99996 12.5C10.9204 12.5 11.6666 11.7538 11.6666 10.8333C11.6666 9.91286 10.9204 9.16667 9.99996 9.16667ZM6.66663 10.8333C6.66663 8.99238 8.15901 7.5 9.99996 7.5C11.8409 7.5 13.3333 8.99238 13.3333 10.8333C13.3333 12.6743 11.8409 14.1667 9.99996 14.1667C8.15901 14.1667 6.66663 12.6743 6.66663 10.8333Z" fill="#1B1D22"/>
<path d="M2.49996 3.33333C2.49996 2.8731 2.87306 2.5 3.33329 2.5H4.16663C4.62686 2.5 4.99996 2.8731 4.99996 3.33333C4.99996 3.79357 4.62686 4.16667 4.16663 4.16667H3.33329C2.87306 4.16667 2.49996 3.79357 2.49996 3.33333Z" fill="#1B1D22"/>
</svg>
