<svg width="24" height="24" viewBox="0 0 24 24" fill="none" xmlns="http://www.w3.org/2000/svg">
<path d="M2 7C2 4.23858 4.23858 2 7 2H17C19.7614 2 22 4.23858 22 7V13C22 15.7614 19.7614 18 17 18H12.4142L8.70711 21.7071C8.42111 21.9931 7.99099 22.0787 7.61732 21.9239C7.24364 21.7691 7 21.4045 7 21V18C4.23858 18 2 15.7614 2 13V7ZM9 10C9 9.44771 8.55229 9 8 9C7.44772 9 7 9.44771 7 10C7 10.5523 7.44772 11 8 11C8.55229 11 9 10.5523 9 10ZM13 10C13 9.44771 12.5523 9 12 9C11.4477 9 11 9.44771 11 10C11 10.5523 11.4477 11 12 11C12.5523 11 13 10.5523 13 10ZM17 10C17 9.44771 16.5523 9 16 9C15.4477 9 15 9.44771 15 10C15 10.5523 15.4477 11 16 11C16.5523 11 17 10.5523 17 10Z" fill="#1B1D22"/>
</svg>
