<svg width="24" height="24" viewBox="0 0 24 24" fill="none" xmlns="http://www.w3.org/2000/svg">
<path d="M8 10C8 7.79086 9.79086 6 12 6C14.2091 6 16 7.79086 16 10C16 12.2091 14.2091 14 12 14C9.79086 14 8 12.2091 8 10ZM12 8C10.8954 8 10 8.89543 10 10C10 11.1046 10.8954 12 12 12C13.1046 12 14 11.1046 14 10C14 8.89543 13.1046 8 12 8Z" fill="#1B1D22"/>
<path d="M12 22C17.5228 22 22 17.5228 22 12C22 6.47715 17.5228 2 12 2C6.47715 2 2 6.47715 2 12C2 17.5228 6.47715 22 12 22ZM16.2587 18.7735C15.0255 19.5505 13.5653 20 12 20C10.4347 20 8.97447 19.5505 7.74126 18.7735C8.82925 17.6771 10.3353 17 12 17C13.6647 17 15.1708 17.6771 16.2587 18.7735ZM17.8095 17.5C16.3525 15.9617 14.2883 15 12 15C9.7117 15 7.64754 15.9617 6.19052 17.5C4.83276 16.0664 4 14.1304 4 12C4 7.58172 7.58172 4 12 4C16.4183 4 20 7.58172 20 12C20 14.1304 19.1672 16.0664 17.8095 17.5Z" fill="#1B1D22"/>
</svg>
