<svg width="24" height="24" viewBox="0 0 24 24" fill="none" xmlns="http://www.w3.org/2000/svg">
<path d="M11.0012 15.9511C10.244 15.8763 9.53339 15.7184 8.86925 15.4975L7.8944 17.4472C7.64741 17.9412 7.04674 18.1414 6.55276 17.8944C6.05878 17.6474 5.85856 17.0468 6.10555 16.5528L7.04169 14.6805C6.32729 14.2744 5.68513 13.8009 5.11507 13.2991L3.70711 14.7071C3.31658 15.0976 2.68342 15.0976 2.29289 14.7071C1.90237 14.3166 1.90237 13.6834 2.29289 13.2929L3.71959 11.8662C2.96981 10.972 2.43201 10.1001 2.10555 9.44719C1.85856 8.95321 2.05878 8.35254 2.55276 8.10555C3.04674 7.85856 3.64741 8.05878 3.8944 8.55276C4.83389 10.4317 7.60205 14 12 14C16.3979 14 19.1661 10.4317 20.1055 8.55276C20.3525 8.05878 20.9532 7.85856 21.4472 8.10555C21.9412 8.35254 22.1414 8.95321 21.8944 9.44719C21.5679 10.1001 21.0302 10.972 20.2804 11.8661L21.7071 13.2929C22.0976 13.6834 22.0976 14.3166 21.7071 14.7071C21.3166 15.0976 20.6834 15.0976 20.2929 14.7071L18.8849 13.2991C18.3149 13.8009 17.6727 14.2744 16.9583 14.6805L17.8945 16.5528C18.1414 17.0468 17.9412 17.6474 17.4472 17.8944C16.9533 18.1414 16.3526 17.9412 16.1056 17.4472L15.1307 15.4975C14.4666 15.7184 13.756 15.8763 12.9988 15.9511C12.9996 15.9673 13 15.9836 13 16V18C13 18.5523 12.5523 19 12 19C11.4477 19 11 18.5523 11 18V16C11 15.9836 11.0004 15.9673 11.0012 15.9511Z" fill="#1B1D22"/>
</svg>
