<svg width="20" height="20" viewBox="0 0 20 20" fill="none" xmlns="http://www.w3.org/2000/svg">
<path d="M10.8334 6.66675C10.8334 6.20651 10.4603 5.83342 10.0001 5.83342C9.53984 5.83342 9.16675 6.20651 9.16675 6.66675V10.1431C9.16675 10.8061 9.43014 11.442 9.89898 11.9108L11.9108 13.9227C12.2363 14.2481 12.7639 14.2481 13.0893 13.9227C13.4148 13.5972 13.4148 13.0696 13.0893 12.7442L11.0775 10.7323C10.9212 10.576 10.8334 10.3641 10.8334 10.1431V6.66675Z" fill="#3F414E"/>
<path d="M18.3334 10.0001C18.3334 14.6025 14.6025 18.3334 10.0001 18.3334C5.39771 18.3334 1.66675 14.6025 1.66675 10.0001C1.66675 5.39771 5.39771 1.66675 10.0001 1.66675C14.6025 1.66675 18.3334 5.39771 18.3334 10.0001ZM16.6667 10.0001C16.6667 6.31818 13.682 3.33341 10.0001 3.33341C6.31818 3.33341 3.33341 6.31818 3.33341 10.0001C3.33341 13.682 6.31818 16.6667 10.0001 16.6667C13.682 16.6667 16.6667 13.682 16.6667 10.0001Z" fill="#3F414E"/>
</svg>
