<svg width="24" height="24" viewBox="0 0 24 24" fill="none" xmlns="http://www.w3.org/2000/svg">
<path d="M4 12C4 7.58172 7.58172 4 12 4C14.9599 4 17.5462 5.60786 18.93 7.99997L17 7.99997C16.4477 7.99997 16 8.44768 16 8.99997C16 9.55225 16.4477 9.99997 17 9.99997L21 9.99998C21.2652 9.99998 21.5196 9.89462 21.7071 9.70709C21.8946 9.51955 22 9.26519 22 8.99998L22 4.87866C22 4.32638 21.5523 3.87866 21 3.87867C20.4477 3.87867 20 4.32639 20 4.87867L20 5.99937C18.1761 3.57145 15.2723 2 12 2C6.47715 2 2 6.47715 2 12C2 17.5228 6.47715 22 12 22C17.4462 22 22 17.5965 22 13C22 12.4477 21.5523 12 21 12C20.4477 12 20 12.4477 20 13C20 16.3446 16.495 20 12 20C7.58172 20 4 16.4183 4 12Z" fill="#181C2F"/>
</svg>
