<svg width="24" height="24" viewBox="0 0 24 24" fill="none" xmlns="http://www.w3.org/2000/svg">
<path d="M11 20.0001C11 21.1047 10.1046 22.0001 9 22.0001C7.89543 22.0001 7 21.1047 7 20.0001C7 18.8955 7.89543 18.0001 9 18.0001C10.1046 18.0001 11 18.8955 11 20.0001Z" fill="#1B1D22"/>
<path d="M20 20.0001C20 21.1047 19.1046 22.0001 18 22.0001C16.8954 22.0001 16 21.1047 16 20.0001C16 18.8955 16.8954 18.0001 18 18.0001C19.1046 18.0001 20 18.8955 20 20.0001Z" fill="#1B1D22"/>
<path d="M18.4413 7.0001C20.3917 7.0001 21.8235 8.83189 21.3525 10.7245L20.3479 14.7616C20.0152 16.0987 18.8145 17.0372 17.4367 17.0372H10.4023C9.04446 17.0372 7.85593 16.1252 7.5045 14.8137L5.06366 5.70432C4.94651 5.26713 4.55034 4.96313 4.09773 4.96313L3 4.96314C2.44771 4.96314 2 4.51542 2 3.96313C2 3.41085 2.44771 2.96313 3 2.96313L4.09773 2.96313C5.45555 2.96314 6.64408 3.87513 6.99551 5.18668L7.48141 7.0001H18.4413ZM8.01731 9.00009L9.43635 14.296C9.55349 14.7332 9.94967 15.0372 10.4023 15.0372H17.4367C17.896 15.0372 18.2962 14.7244 18.4071 14.2787L19.4117 10.2416C19.5687 9.61069 19.0914 9.0001 18.4413 9.00009H8.01731Z" fill="#1B1D22"/>
</svg>
