<svg width="24" height="24" viewBox="0 0 24 24" fill="none" xmlns="http://www.w3.org/2000/svg">
<path d="M8 11C8.55228 11 9 10.5523 9 10C9 9.44772 8.55228 9 8 9C7.44772 9 7 9.44772 7 10C7 10.5523 7.44772 11 8 11Z" fill="#1B1D22"/>
<path d="M13 10C13 10.5523 12.5523 11 12 11C11.4477 11 11 10.5523 11 10C11 9.44772 11.4477 9 12 9C12.5523 9 13 9.44772 13 10Z" fill="#1B1D22"/>
<path d="M16 11C16.5523 11 17 10.5523 17 10C17 9.44772 16.5523 9 16 9C15.4477 9 15 9.44772 15 10C15 10.5523 15.4477 11 16 11Z" fill="#1B1D22"/>
<path d="M7 2C4.23858 2 2 4.23858 2 7V13C2 15.7614 4.23858 18 7 18V21C7 21.4045 7.24364 21.7691 7.61732 21.9239C7.99099 22.0787 8.42111 21.9931 8.70711 21.7071L12.4142 18H17C19.7614 18 22 15.7614 22 13V7C22 4.23858 19.7614 2 17 2H7ZM4 7C4 5.34315 5.34315 4 7 4H17C18.6569 4 20 5.34315 20 7V13C20 14.6569 18.6569 16 17 16H12C11.7348 16 11.4804 16.1054 11.2929 16.2929L9 18.5858V17C9 16.4477 8.55228 16 8 16H7C5.34315 16 4 14.6569 4 13V7Z" fill="#1B1D22"/>
</svg>
