<svg width="24" height="24" viewBox="0 0 24 24" fill="none" xmlns="http://www.w3.org/2000/svg">
<path d="M2 12C2 6.47715 6.47715 2 12 2C17.5228 2 22 6.47715 22 12C22 17.5228 17.5228 22 12 22C6.47715 22 2 17.5228 2 12ZM16.7474 9.66437C17.1143 9.25159 17.0772 8.61952 16.6644 8.2526C16.2516 7.88568 15.6195 7.92286 15.2526 8.33565L10.6667 13.4948L8.74742 11.3356C8.3805 10.9229 7.74843 10.8857 7.33565 11.2526C6.92286 11.6195 6.88568 12.2516 7.2526 12.6644L9.91927 15.6644C10.109 15.8779 10.381 16 10.6667 16C10.9523 16 11.2243 15.8779 11.4141 15.6644L16.7474 9.66437Z" fill="#181C2F"/>
</svg>
