<svg width="24" height="24" viewBox="0 0 24 24" fill="none" xmlns="http://www.w3.org/2000/svg">
<path d="M13 13C13.5523 13 14 12.5523 14 12C14 11.4477 13.5523 11 13 11C12.4477 11 12 11.4477 12 12C12 12.5523 12.4477 13 13 13Z" fill="#1B1D22"/>
<path fill-rule="evenodd" clip-rule="evenodd" d="M10.2196 2.02441C9.9232 1.95771 9.61256 2.02935 9.37533 2.21912C9.1381 2.40889 9 2.69621 9 3.00001V4H5C4.44772 4 4 4.44772 4 5V18H3C2.44772 18 2 18.4477 2 19C2 19.5523 2.44772 20 3 20H9V21C9 21.3081 9.14198 21.5989 9.38485 21.7884C9.62772 21.9779 9.94438 22.0449 10.2432 21.97L18.1008 20H21C21.5523 20 22 19.5523 22 19C22 18.4477 21.5523 18 21 18H20V5.82559C20 4.89023 19.3517 4.07979 18.4392 3.8744L10.2196 2.02441ZM9 18V6H6V18H9ZM11 19.7183L18 17.9634V5.82559L11 4.2501V19.7183Z" fill="#1B1D22"/>
</svg>
