<svg width="14" height="16" viewBox="0 0 14 16" fill="none" xmlns="http://www.w3.org/2000/svg">
<path d="M5.83333 7.98816L4.75592 6.91074C4.43049 6.58531 3.90285 6.58531 3.57741 6.91074C3.25197 7.23618 3.25197 7.76382 3.57741 8.08926L6.07691 10.5888C6.07889 10.5907 6.08088 10.5927 6.08288 10.5947C6.23268 10.7417 6.43781 10.8327 6.66417 10.8333L6.66667 10.8333L6.66917 10.8333C6.78125 10.833 6.88812 10.8105 6.98565 10.7701C7.08394 10.7294 7.17603 10.6692 7.25592 10.5893L9.75592 8.08926C10.0814 7.76382 10.0814 7.23618 9.75592 6.91074C9.43049 6.58531 8.90285 6.58531 8.57741 6.91074L7.5 7.98816L7.5 0.833333C7.5 0.373096 7.1269 0 6.66667 0C6.20643 0 5.83333 0.373096 5.83333 0.833333V7.98816Z" fill="white"/>
<path d="M0.833333 10.8333C1.29357 10.8333 1.66667 11.2064 1.66667 11.6667V13.3333C1.66667 13.7936 2.03976 14.1667 2.5 14.1667H10.8333C11.2936 14.1667 11.6667 13.7936 11.6667 13.3333V11.6667C11.6667 11.2064 12.0398 10.8333 12.5 10.8333C12.9602 10.8333 13.3333 11.2064 13.3333 11.6667V13.3333C13.3333 14.714 12.214 15.8333 10.8333 15.8333H2.5C1.11929 15.8333 0 14.714 0 13.3333V11.6667C0 11.2064 0.373096 10.8333 0.833333 10.8333Z" fill="white"/>
</svg>
