<svg width="18" height="20" viewBox="0 0 18 20" fill="none" xmlns="http://www.w3.org/2000/svg">
<path d="M1 0C1.55228 0 2 0.447715 2 1V5.79056C2 6.52424 2.26886 7.23249 2.75573 7.78135L3.24809 8.3364C3.4231 8.5337 3.51309 8.79214 3.49846 9.05547L3.06889 16.7877C3.04826 17.159 3.25028 17.5072 3.58295 17.6735C3.84549 17.8048 4.15451 17.8048 4.41704 17.6735C4.74971 17.5072 4.95173 17.159 4.9311 16.7877L4.50154 9.05547C4.48691 8.79214 4.5769 8.5337 4.75191 8.3364L5.24427 7.78135C5.73114 7.23249 6 6.52424 6 5.79056V1C6 0.447715 6.44772 0 7 0C7.55228 0 8 0.447715 8 1V5.79056C8 7.01336 7.5519 8.19377 6.74046 9.10854L6.5213 9.3556L6.92802 16.6767C6.9929 17.8446 6.35762 18.9393 5.31147 19.4623C4.48588 19.8751 3.51412 19.8751 2.68853 19.4623C1.64238 18.9393 1.00709 17.8446 1.07197 16.6767L1.4787 9.3556L1.25954 9.10854C0.448098 8.19377 0 7.01336 0 5.79056V1C0 0.447715 0.447715 0 1 0Z" fill="#1B1D22"/>
<path d="M10.6885 2.3203C11.2301 1.13959 12.2609 0 14 0C15.7391 0 16.7699 1.13959 17.3115 2.3203C17.8422 3.47714 18 4.83501 18 5.8C18 7.01669 17.5542 8.19119 16.7468 9.10139L16.5213 9.35559L16.928 16.6767C16.9929 17.8445 16.3576 18.9392 15.3115 19.4623C14.4859 19.8751 13.5141 19.8751 12.6885 19.4623C11.6424 18.9392 11.0071 17.8445 11.072 16.6767L11.4787 9.35559L11.2532 9.10139C10.4458 8.19119 10 7.01668 10 5.8C10 4.83501 10.1578 3.47714 10.6885 2.3203ZM12.5064 3.15422C12.1388 3.95555 12 4.99767 12 5.8C12 6.52757 12.2666 7.22993 12.7494 7.77422L13.2481 8.33641C13.4231 8.53371 13.5131 8.79215 13.4985 9.05547L13.0689 16.7876C13.0483 17.159 13.2503 17.5071 13.583 17.6734C13.8455 17.8047 14.1545 17.8047 14.417 17.6734C14.7497 17.5071 14.9517 17.159 14.9311 16.7876L14.5015 9.05547C14.4869 8.79215 14.5769 8.53371 14.7519 8.33642L15.2506 7.77422C15.7334 7.22993 16 6.52757 16 5.8C16 4.99767 15.8612 3.95555 15.4936 3.15422C15.137 2.37676 14.6678 2 14 2C13.3322 2 12.863 2.37676 12.5064 3.15422Z" fill="#1B1D22"/>
<path d="M5 1C5 0.447715 4.55228 0 4 0C3.44772 0 3 0.447715 3 1V5C3 5.55228 3.44772 6 4 6C4.55228 6 5 5.55228 5 5V1Z" fill="#1B1D22"/>
</svg>
