<svg width="16" height="16" viewBox="0 0 16 16" fill="none" xmlns="http://www.w3.org/2000/svg">
<path d="M14.4445 2.16992C14.3032 2.04345 14.1148 1.98314 13.9263 2.00408L7.9263 2.67075C7.6716 2.69905 7.45566 2.87084 7.37083 3.11267C7.28601 3.35449 7.3473 3.62353 7.52851 3.80474L9.05711 5.33334L7.99992 6.39053L7.13799 5.5286C7.00278 5.39338 6.81601 5.32274 6.62516 5.33462C6.43431 5.34651 6.25775 5.43977 6.14035 5.59071L1.47368 11.5907C1.27826 11.842 1.28773 12.1963 1.49628 12.4368C1.70484 12.6773 2.05431 12.7368 2.33068 12.5788L6.55524 10.1648L7.52851 11.1381C7.78886 11.3984 8.21097 11.3984 8.47132 11.1381L11.9999 7.60948L13.5285 9.13807C13.7192 9.32874 14.0059 9.38578 14.255 9.28259C14.5042 9.1794 14.6666 8.93631 14.6666 8.66667V2.66667C14.6666 2.47704 14.5858 2.29639 14.4445 2.16992ZM9.45214 3.84275L13.3333 3.41151V7.05719L12.4713 6.19527C12.211 5.93492 11.7889 5.93492 11.5285 6.19527L7.99992 9.72386L7.13799 8.86193C6.92541 8.64935 6.59685 8.60535 6.33583 8.75451L4.59512 9.7492L6.72918 7.00541L7.52851 7.80474C7.78886 8.06509 8.21097 8.06509 8.47132 7.80474L10.4713 5.80474C10.7317 5.54439 10.7317 5.12228 10.4713 4.86193L9.45214 3.84275Z" fill="#AD7D0F"/>
</svg>
