<svg width="24" height="24" viewBox="0 0 24 24" fill="none" xmlns="http://www.w3.org/2000/svg">
<path d="M16.5 13.0002C17.3284 13.0002 18 12.3287 18 11.5002C18 10.6718 17.3284 10.0002 16.5 10.0002C15.6716 10.0002 15 10.6718 15 11.5002C15 12.3287 15.6716 13.0002 16.5 13.0002Z" fill="#1B1D22"/>
<path d="M9.32416 3.00723C10.3 2.27539 11.6217 2.2072 12.6676 2.83476L20.5435 7.56026C21.4471 8.10243 22 9.07895 22 10.1327V19.0004C22 20.6572 20.6569 22.0004 19 22.0004H5C3.34315 22.0004 2 20.6572 2 19.0004V10.0004C2 9.05608 2.44458 8.16692 3.2 7.60036L9.32416 3.00723ZM11.6387 4.54974C11.29 4.34056 10.8494 4.36328 10.5242 4.60723L4.4 9.20036C4.14819 9.38921 4 9.6856 4 10.0004V19.0004C4 19.5526 4.44772 20.0004 5 20.0004H6V16.0002C6 14.3434 7.34315 13.0002 9 13.0002H11C12.6569 13.0002 14 14.3434 14 16.0002V20.0004H19C19.5523 20.0004 20 19.5526 20 19.0004V10.1327C20 9.78147 19.8157 9.45597 19.5145 9.27524L11.6387 4.54974ZM12 20.0004V16.0002C12 15.448 11.5523 15.0002 11 15.0002H9C8.44772 15.0002 8 15.448 8 16.0002V20.0004H12Z" fill="#1B1D22"/>
</svg>
