<svg width="24" height="24" viewBox="0 0 24 24" fill="none" xmlns="http://www.w3.org/2000/svg">
<path d="M9.9864 3.16456C10.0772 2.61978 9.70917 2.10456 9.1644 2.01376C8.61963 1.92297 8.1044 2.29099 8.01361 2.83576L7.31957 7H3C2.44772 7 2 7.44772 2 8C2 8.55228 2.44772 9 3 9H6.98624L5.98624 15H3C2.44772 15 2 15.4477 2 16C2 16.5523 2.44772 17 3 17H5.6529L5.01361 20.8358C4.92281 21.3805 5.29083 21.8958 5.8356 21.9865C6.38037 22.0773 6.8956 21.7093 6.9864 21.1646L7.68049 17H13.6529L13.0136 20.8358C12.9228 21.3805 13.2908 21.8958 13.8356 21.9865C14.3804 22.0773 14.8956 21.7093 14.9864 21.1646L15.6805 17H21C21.5523 17 22 16.5523 22 16C22 15.4477 21.5523 15 21 15H16.0138L17.0138 9H21C21.5523 9 22 8.55228 22 8C22 7.44772 21.5523 7 21 7H17.3472L17.9864 3.16456C18.0772 2.61978 17.7092 2.10456 17.1644 2.01376C16.6196 1.92297 16.1044 2.29099 16.0136 2.83576L15.3196 7H9.34716L9.9864 3.16456ZM14.9862 9L13.9862 15H8.01382L9.01382 9H14.9862Z" fill="#1B1D22"/>
</svg>
