<svg width="20" height="20" viewBox="0 0 20 20" fill="none" xmlns="http://www.w3.org/2000/svg">
<path d="M10 5.7429C10.4602 5.7429 10.8333 6.116 10.8333 6.57623V10.7429C10.8333 11.2031 10.4602 11.5762 10 11.5762C9.53976 11.5762 9.16667 11.2031 9.16667 10.7429L9.16667 6.57623C9.16667 6.116 9.53976 5.7429 10 5.7429Z" fill="#3F414E"/>
<path d="M10.8333 13.2429C10.8333 13.7031 10.4602 14.0762 10 14.0762C9.53976 14.0762 9.16667 13.7031 9.16667 13.2429C9.16667 12.7827 9.53976 12.4096 10 12.4096C10.4602 12.4096 10.8333 12.7827 10.8333 13.2429Z" fill="#3F414E"/>
<path d="M11.325 2.255C10.5143 1.74833 9.48568 1.74833 8.675 2.255L3.675 5.38C2.94405 5.83685 2.5 6.63803 2.5 7.5V13.0462C2.5 13.9931 3.03501 14.8588 3.88197 15.2823L8.88197 17.7823C9.58578 18.1342 10.4142 18.1342 11.118 17.7823L16.118 15.2823C16.965 14.8588 17.5 13.9931 17.5 13.0462V7.5C17.5 6.63802 17.056 5.83685 16.325 5.38L11.325 2.255ZM9.55833 3.66833C9.82856 3.49944 10.1714 3.49944 10.4417 3.66833L15.4417 6.79333C15.6853 6.94562 15.8333 7.21268 15.8333 7.5V13.0462C15.8333 13.3618 15.655 13.6504 15.3727 13.7916L10.3727 16.2916C10.1381 16.4089 9.86193 16.4089 9.62732 16.2916L4.62732 13.7916C4.345 13.6504 4.16667 13.3618 4.16667 13.0462V7.5C4.16667 7.21267 4.31468 6.94562 4.55833 6.79334L9.55833 3.66833Z" fill="#3F414E"/>
</svg>
