<svg width="20" height="20" viewBox="0 0 20 20" fill="none" xmlns="http://www.w3.org/2000/svg">
<path d="M11.5 9.5C11.5 10.3284 10.8284 11 10 11C9.17157 11 8.5 10.3284 8.5 9.5C8.5 8.67157 9.17157 8 10 8C10.8284 8 11.5 8.67157 11.5 9.5Z" fill="#1B1D22"/>
<path d="M10 7C10.8284 7 11.5 6.32843 11.5 5.5C11.5 4.67157 10.8284 4 10 4C9.17157 4 8.5 4.67157 8.5 5.5C8.5 6.32843 9.17157 7 10 7Z" fill="#1B1D22"/>
<path fill-rule="evenodd" clip-rule="evenodd" d="M7 0C5.34315 0 4 1.34315 4 3V5H3C1.34315 5 0 6.34315 0 8V17C0 18.6569 1.34315 20 3 20H17C18.6569 20 20 18.6569 20 17V8C20 6.34315 18.6569 5 17 5H16V3C16 1.34315 14.6569 0 13 0H7ZM13 18C13.5523 18 14 17.5523 14 17V3C14 2.44772 13.5523 2 13 2H7C6.44772 2 6 2.44772 6 3V17C6 17.5523 6.44772 18 7 18V16C7 14.3431 8.34315 13 10 13C11.6569 13 13 14.3431 13 16V18ZM11 16C11 15.4477 10.5523 15 10 15C9.44771 15 9 15.4477 9 16V18H11V16ZM17 18H15.8293C15.9398 17.6872 16 17.3506 16 17V7H17C17.5523 7 18 7.44772 18 8V17C18 17.5523 17.5523 18 17 18ZM4.17071 18H3C2.44772 18 2 17.5523 2 17V8C2 7.44772 2.44772 7 3 7H4V17C4 17.3506 4.06015 17.6872 4.17071 18Z" fill="#1B1D22"/>
</svg>
