<svg width="24" height="24" viewBox="0 0 24 24" fill="none" xmlns="http://www.w3.org/2000/svg">
<path d="M12.6676 2.83476C11.6217 2.2072 10.3 2.27539 9.32416 3.00723L3.2 7.60036C2.44458 8.16692 2 9.05608 2 10.0004V19.0004C2 20.6572 3.34315 22.0004 5 22.0004H6V16.0002C6 14.3434 7.34315 13.0002 9 13.0002H11C12.6569 13.0002 14 14.3434 14 16.0002V22.0002L19 22.0004C20.6569 22.0004 22 20.6572 22 19.0004V10.1327C22 9.07895 21.4471 8.10243 20.5435 7.56026L12.6676 2.83476ZM16.5 13.0002C15.6716 13.0002 15 12.3287 15 11.5002C15 10.6718 15.6716 10.0002 16.5 10.0002C17.3284 10.0002 18 10.6718 18 11.5002C18 12.3287 17.3284 13.0002 16.5 13.0002Z" fill="#1B1D22"/>
<path d="M12 22.0004H8V16.0002C8 15.448 8.44772 15.0002 9 15.0002H11C11.5523 15.0002 12 15.448 12 16.0002V22.0004Z" fill="#1B1D22"/>
</svg>
