<svg width="24" height="24" viewBox="0 0 24 24" fill="none" xmlns="http://www.w3.org/2000/svg">
<path d="M10.41 2.8144C11.3828 2.2064 12.6172 2.2064 13.59 2.8144L19.59 6.5644C20.4671 7.11262 21 8.07403 21 9.1084V15.7638C21 16.9002 20.358 17.9389 19.3416 18.4471L13.3416 21.4471C12.4971 21.8694 11.5029 21.8694 10.6584 21.4471L4.65836 18.4471C3.64201 17.9389 3 16.9002 3 15.7638V9.1084C3 8.07403 3.53286 7.11262 4.41 6.5644L10.41 2.8144ZM12 6.99988C11.4477 6.99988 11 7.44759 11 7.99988V12.9999C11 13.5522 11.4477 13.9999 12 13.9999C12.5523 13.9999 13 13.5522 13 12.9999V7.99988C13 7.44759 12.5523 6.99988 12 6.99988ZM13 15.9999C13 15.4476 12.5523 14.9999 12 14.9999C11.4477 14.9999 11 15.4476 11 15.9999C11 16.5522 11.4477 16.9999 12 16.9999C12.5523 16.9999 13 16.5522 13 15.9999Z" fill="#1B1D22"/>
</svg>
