<svg width="16" height="16" viewBox="0 0 16 16" fill="none" xmlns="http://www.w3.org/2000/svg">
<path d="M4.67844 3.80395C3.87363 4.53927 3.33333 5.68199 3.33333 7.33301C3.33333 8.87806 4.28418 10.3835 5.45017 11.5495C6.02307 12.1224 6.62133 12.5859 7.12304 12.9019C7.37429 13.0601 7.59216 13.1755 7.7629 13.249C7.90258 13.3091 7.97684 13.3262 7.99793 13.3311L8 13.3316L8.00207 13.3311C8.02316 13.3262 8.09742 13.3091 8.2371 13.249C8.40784 13.1755 8.62571 13.0601 8.87696 12.9019C9.37867 12.5859 9.97693 12.1224 10.5498 11.5495C11.7158 10.3835 12.6667 8.87806 12.6667 7.33301C12.6667 5.68199 12.1264 4.53927 11.3216 3.80395C10.5067 3.05948 9.34772 2.66634 8 2.66634C6.65228 2.66634 5.49326 3.05948 4.67844 3.80395ZM3.77909 2.8196C4.89455 1.80044 6.4022 1.33301 8 1.33301C9.5978 1.33301 11.1054 1.80044 12.2209 2.8196C13.3464 3.8479 14 5.37184 14 7.33301C14 9.40014 12.7569 11.228 11.4926 12.4923C10.8504 13.1346 10.1744 13.6605 9.58749 14.0301C9.29441 14.2147 9.01436 14.3661 8.76417 14.4737C8.53495 14.5724 8.25947 14.6663 8 14.6663C7.74053 14.6663 7.46505 14.5724 7.23583 14.4737C6.98564 14.3661 6.70559 14.2147 6.41251 14.0301C5.82558 13.6605 5.1496 13.1346 4.50736 12.4923C3.24306 11.228 2 9.40014 2 7.33301C2 5.37184 2.65361 3.8479 3.77909 2.8196Z" fill="#1B1D22"/>
<path d="M8 5.99967C7.26362 5.99967 6.66667 6.59663 6.66667 7.33301C6.66667 8.06939 7.26362 8.66634 8 8.66634C8.73638 8.66634 9.33333 8.06939 9.33333 7.33301C9.33333 6.59663 8.73638 5.99967 8 5.99967ZM5.33333 7.33301C5.33333 5.86025 6.52724 4.66634 8 4.66634C9.47276 4.66634 10.6667 5.86025 10.6667 7.33301C10.6667 8.80577 9.47276 9.99967 8 9.99967C6.52724 9.99967 5.33333 8.80577 5.33333 7.33301Z" fill="#1B1D22"/>
</svg>
