<svg width="20" height="20" viewBox="0 0 20 20" fill="none" xmlns="http://www.w3.org/2000/svg">
<path fill-rule="evenodd" clip-rule="evenodd" d="M3.15301 0C1.93591 0 1.00099 1.07797 1.17311 2.28284L1.8874 7.28284C2.02815 8.26814 2.87199 9 3.8673 9H16C16.5523 9 17 8.55229 17 8C17 7.44772 16.5523 7 16 7H11.8474C11.8472 6.90683 11.8405 6.81239 11.8269 6.71716L11.1126 1.71716C10.9718 0.73186 10.128 0 9.1327 0H3.15301ZM9.84699 7L9.1327 2L3.15301 2L3.8673 7H3.99979C3.99972 7 3.99986 7 3.99979 7L9.84699 7Z" fill="#1B1D22"/>
<path fill-rule="evenodd" clip-rule="evenodd" d="M1 10C0.447715 10 0 10.4477 0 11C0 11.5523 0.447715 12 1 12H2V19C2 19.5523 2.44772 20 3 20C3.55228 20 4 19.5523 4 19V12H12V18C12 19.1046 12.8954 20 14 20H17C18.1046 20 19 19.1046 19 18V12C19.5523 12 20 11.5523 20 11C20 10.4477 19.5523 10 19 10H1ZM14 18V12H17V18H14Z" fill="#1B1D22"/>
</svg>
