<svg width="32" height="32" viewBox="0 0 32 32" fill="none" xmlns="http://www.w3.org/2000/svg">
<path d="M20 15.5C20 14.9477 19.5523 14.5 19 14.5C18.4477 14.5 18 14.9477 18 15.5V17.5C18 18.0523 18.4477 18.5 19 18.5C19.5523 18.5 20 18.0523 20 17.5V15.5Z" fill="#1B1D22"/>
<path d="M9.12132 9.5C7.39746 9.5 6 10.8975 6 12.6213C6 13.4491 6.32885 14.2431 6.91421 14.8284L7.17157 15.0858C7.95262 15.8668 7.95262 17.1332 7.17157 17.9142L6.91421 18.1716C6.32885 18.7569 6 19.5509 6 20.3787C6 22.1025 7.39746 23.5 9.12132 23.5H22.8787C24.6025 23.5 26 22.1025 26 20.3787C26 19.5509 25.6711 18.7569 25.0858 18.1716L24.8284 17.9142C24.0474 17.1332 24.0474 15.8668 24.8284 15.0858L25.0858 14.8284C25.6711 14.2431 26 13.4491 26 12.6213C26 10.8975 24.6025 9.5 22.8787 9.5H9.12132ZM20 20.5C20 19.9477 19.5523 19.5 19 19.5C18.4477 19.5 18 19.9477 18 20.5V21.5H9.12132C8.50203 21.5 8 20.998 8 20.3787C8 20.0813 8.11814 19.7961 8.32843 19.5858L8.58579 19.3284C10.1479 17.7663 10.1479 15.2337 8.58579 13.6716L8.32843 13.4142C8.11814 13.2039 8 12.9187 8 12.6213C8 12.002 8.50203 11.5 9.12132 11.5H18V12.5C18 13.0523 18.4477 13.5 19 13.5C19.5523 13.5 20 13.0523 20 12.5V11.5H22.8787C23.498 11.5 24 12.002 24 12.6213C24 12.9187 23.8819 13.2039 23.6716 13.4142L23.4142 13.6716C21.8521 15.2337 21.8521 17.7663 23.4142 19.3284L23.6716 19.5858C23.8819 19.7961 24 20.0813 24 20.3787C24 20.998 23.498 21.5 22.8787 21.5H20V20.5Z" fill="#1B1D22"/>
</svg>
