<svg width="12" height="12" viewBox="0 0 12 12" fill="none" xmlns="http://www.w3.org/2000/svg">
<path d="M6.125 5.83333H5.25V4.08333H6.125C6.60825 4.08333 7 4.47508 7 4.95833C7 5.44158 6.60825 5.83333 6.125 5.83333Z" fill="#4361EE"/>
<path fill-rule="evenodd" clip-rule="evenodd" d="M5.83333 11.6667C9.05499 11.6667 11.6667 9.05499 11.6667 5.83333C11.6667 2.61167 9.05499 0 5.83333 0C2.61167 0 0 2.61167 0 5.83333C0 9.05499 2.61167 11.6667 5.83333 11.6667ZM6.125 2.91667H4.66667C4.3445 2.91667 4.08333 3.17783 4.08333 3.5V8.16667C4.08333 8.48883 4.3445 8.75 4.66667 8.75C4.98883 8.75 5.25 8.48883 5.25 8.16667V7H6.125C7.25258 7 8.16667 6.08591 8.16667 4.95833C8.16667 3.83075 7.25258 2.91667 6.125 2.91667Z" fill="#4361EE"/>
</svg>
