<svg width="24" height="24" viewBox="0 0 24 24" fill="none" xmlns="http://www.w3.org/2000/svg">
<path d="M9 7C6.79086 7 5 8.79086 5 11C5 13.2091 6.79086 15 9 15C11.2091 15 13 13.2091 13 11C13 8.79086 11.2091 7 9 7ZM7 11C7 9.89543 7.89543 9 9 9C10.1046 9 11 9.89543 11 11C11 12.1046 10.1046 13 9 13C7.89543 13 7 12.1046 7 11Z" fill="#181C2F"/>
<path d="M9 4C5.13401 4 2 7.13401 2 11V15C2 16.6569 3.34315 18 5 18H20V19C20 19.5523 20.4477 20 21 20C21.5523 20 22 19.5523 22 19V15C22 13.8954 21.1046 13 20 13H16V11C16 7.13401 12.866 4 9 4ZM14 11V15C14 15.5523 13.5523 16 13 16H5C4.44772 16 4 15.5523 4 15V11C4 8.23858 6.23858 6 9 6C11.7614 6 14 8.23858 14 11ZM16 15H20V16H15.8293C15.9398 15.6872 16 15.3506 16 15Z" fill="#181C2F"/>
</svg>
