<svg width="18" height="18" viewBox="0 0 18 18" fill="none" xmlns="http://www.w3.org/2000/svg">
<path d="M0 4C0 1.79086 1.79086 0 4 0H14C16.2091 0 18 1.79086 18 4V14C18 16.2091 16.2091 18 14 18H4C1.79086 18 0 16.2091 0 14V4Z" fill="#E8ECFD"/>
<path d="M4 7C4 6.17157 4.67157 5.5 5.5 5.5H12.5C13.3284 5.5 14 6.17157 14 7V8.00006H12.4126C12.3951 7.80147 12.3108 7.60378 12.1464 7.4394C11.7894 7.08238 11.2106 7.08238 10.8536 7.4394L10.5 7.79295L10.1464 7.4394C9.78942 7.08238 9.21058 7.08238 8.85355 7.4394C8.68917 7.60378 8.60494 7.80147 8.58743 8.00006H4V7Z" fill="#4361EE"/>
<path d="M4 9.00006V11C4 11.8284 4.67157 12.5 5.5 12.5H12.5C13.3284 12.5 14 11.8284 14 11V9.00006H11.309L11.9472 10.2764C12.0707 10.5234 11.9706 10.8238 11.7236 10.9473C11.4766 11.0708 11.1763 10.9706 11.0528 10.7237L10.5 9.61808L9.94722 10.7237C9.82372 10.9706 9.52339 11.0708 9.2764 10.9473C9.02941 10.8238 8.92929 10.5234 9.05279 10.2764L9.69098 9.00006H4Z" fill="#4361EE"/>
</svg>
