<svg width="24" height="24" viewBox="0 0 24 24" fill="none" xmlns="http://www.w3.org/2000/svg">
<path fill-rule="evenodd" clip-rule="evenodd" d="M19.0278 6.78767C19.4083 7.72773 19.6028 8.7349 19.6002 9.75153C19.6004 12.9674 20.2855 14.7791 20.7905 15.6634C20.9264 15.9171 20.9985 16.2014 21 16.4909C21.0016 16.7986 20.9234 17.1013 20.7733 17.3685C20.6232 17.6357 20.4066 17.8579 20.1451 18.0127C19.8837 18.1674 19.5868 18.2494 19.2843 18.2502L19.2818 18.2502H15.9243C15.8646 19.2198 15.4595 20.1376 14.7803 20.8285C14.0429 21.5787 13.0428 22.0001 12 22.0001C10.9572 22.0001 9.95707 21.5787 9.21969 20.8285C8.54045 20.1376 8.13539 19.2198 8.07573 18.2502H4.71825L4.71572 18.2502C4.41319 18.2494 4.11622 18.1674 3.85478 18.0126C3.59333 17.8578 3.37664 17.6355 3.22657 17.3683C3.0765 17.1011 2.99836 16.7983 3.00003 16.4906C3.00169 16.1835 3.08275 15.8823 3.23505 15.6172C3.74029 14.7324 4.40056 12.9651 4.40056 9.75016C4.39813 8.734 4.59264 7.72731 4.97296 6.78767C5.35364 5.84716 5.91299 4.99231 6.61898 4.2721C7.32496 3.55189 8.1637 2.98047 9.08714 2.59058C10.0106 2.20069 11.0006 2 12.0004 2C13.0002 2 13.9902 2.20069 14.9136 2.59058C15.837 2.98047 16.6758 3.55189 17.3818 4.2721C18.0877 4.99231 18.6471 5.84716 19.0278 6.78767ZM9.04214 16.2502H5.13349C5.7742 14.9676 6.36628 12.922 6.36649 9.75188C6.40985 9.22388 6.55541 8.04415 6.79081 7.54916C7.07301 6.85195 7.48767 6.21824 8.01102 5.68434C8.53438 5.15044 9.15615 4.72684 9.8407 4.43781C10.5253 4.14878 11.2591 4 12.0003 4C12.7415 4 13.4754 4.14878 14.1599 4.43781C14.8445 4.72684 15.4663 5.15044 15.9896 5.68434C16.513 6.21824 16.9276 6.85195 17.2098 7.54916C17.492 8.24637 17.6362 8.99337 17.6342 9.74737V9.80732V9.9003C17.6342 13.0715 18.226 14.9674 18.8665 16.2502H14.9578C14.9549 16.2501 14.9519 16.2501 14.949 16.2501C14.946 16.2501 14.943 16.2501 14.9401 16.2502H9.05993C9.05697 16.2501 9.054 16.2501 9.05103 16.2501C9.04807 16.2501 9.0451 16.2501 9.04214 16.2502ZM10.0494 18.2502C10.1037 18.6884 10.2996 19.0987 10.6098 19.4143C10.9785 19.7894 11.4786 20.0001 12 20.0001C12.5214 20.0001 13.0215 19.7894 13.3902 19.4143C13.7004 19.0987 13.8963 18.6884 13.9506 18.2502H10.0494ZM20.7641 15.6158L20.7905 15.6634C20.782 15.6474 20.7732 15.6315 20.7641 15.6158Z" fill="#262626"/>
</svg>
