<svg width="24" height="24" viewBox="0 0 24 24" fill="none" xmlns="http://www.w3.org/2000/svg">
<path d="M12 7C9.79086 7 8 8.79086 8 11C8 13.2091 9.79086 15 12 15C14.2091 15 16 13.2091 16 11C16 8.79086 14.2091 7 12 7Z" fill="#1B1D22"/>
<path d="M5.02719 6.45671C6.7913 5.10277 9.24974 4 12 4C14.7503 4 17.2087 5.10277 18.9728 6.45671C19.8571 7.13538 20.5918 7.89576 21.1143 8.64861C21.6181 9.37462 22 10.2031 22 11C22 11.7969 21.6181 12.6254 21.1143 13.3514C20.5918 14.1042 19.8571 14.8646 18.9728 15.5433C17.2087 16.8972 14.7503 18 12 18C9.24974 18 6.7913 16.8972 5.02719 15.5433C4.14293 14.8646 3.40818 14.1042 2.88572 13.3514C2.38188 12.6254 2 11.7969 2 11C2 10.2031 2.38188 9.37462 2.88572 8.64861C3.40818 7.89576 4.14293 7.13538 5.02719 6.45671ZM4 11C4 11.2031 4.1218 11.6246 4.52881 12.2111C4.9172 12.7708 5.50047 13.3854 6.24488 13.9567C7.73814 15.1028 9.7797 16 12 16C14.2203 16 16.2619 15.1028 17.7551 13.9567C18.4995 13.3854 19.0828 12.7708 19.4712 12.2111C19.8782 11.6246 20 11.2031 20 11C20 10.7969 19.8782 10.3754 19.4712 9.78889C19.0828 9.22924 18.4995 8.61462 17.7551 8.04329C16.2619 6.89723 14.2203 6 12 6C9.7797 6 7.73814 6.89723 6.24488 8.04329C5.50047 8.61462 4.9172 9.22924 4.52881 9.78889C4.1218 10.3754 4 10.7969 4 11Z" fill="#1B1D22"/>
</svg>
