<svg width="18" height="20" viewBox="0 0 18 20" fill="none" xmlns="http://www.w3.org/2000/svg">
<path d="M14 10.5C14 11.3284 13.3284 12 12.5 12C11.6716 12 11 11.3284 11 10.5C11 9.67157 11.6716 9 12.5 9C13.3284 9 14 9.67157 14 10.5Z" fill="#1B1D22"/>
<path d="M12.5 8C13.3284 8 14 7.32843 14 6.5C14 5.67157 13.3284 5 12.5 5C11.6716 5 11 5.67157 11 6.5C11 7.32843 11.6716 8 12.5 8Z" fill="#1B1D22"/>
<path fill-rule="evenodd" clip-rule="evenodd" d="M0 3C0 1.34315 1.34315 0 3 0H8.63733C8.99707 0 9.35387 0.0647008 9.6907 0.191013L16.0534 2.57701C17.2243 3.01611 18 4.13547 18 5.386V17C18 18.6569 16.6569 20 15 20H3C1.34315 20 0 18.6569 0 17V3ZM2 3C2 2.44772 2.44772 2 3 2H8.63733C8.75724 2 8.87618 2.02157 8.98845 2.06367L15.3511 4.44967C15.7414 4.59604 16 4.96916 16 5.386V17C16 17.5523 15.5523 18 15 18H11V16C11 14.3431 9.65685 13 8 13H6C4.34315 13 3 14.3431 3 16V18C2.44772 18 2 17.5523 2 17V12H8C8.55228 12 9 11.5523 9 11C9 10.4477 8.55228 10 8 10H2V7H8C8.55228 7 9 6.55228 9 6C9 5.44772 8.55228 5 8 5H2V3ZM5 18H9V16C9 15.4477 8.55228 15 8 15H6C5.44772 15 5 15.4477 5 16V18Z" fill="#1B1D22"/>
</svg>
