<svg width="24" height="24" viewBox="0 0 24 24" fill="none" xmlns="http://www.w3.org/2000/svg">
<path d="M15.5858 3.41422L14.7071 4.2929L17.7071 7.2929L18.5858 6.41422C19.3668 5.63317 19.3668 4.36684 18.5858 3.58579L18.4142 3.41422C17.6332 2.63317 16.3668 2.63317 15.5858 3.41422Z" fill="#1B1D22"/>
<path d="M5.58579 13.4142L13.2929 5.70711L16.2929 8.70711L8.58579 16.4142C8.21071 16.7893 7.70201 17 7.17157 17H6C5.44772 17 5 16.5523 5 16V14.8284C5 14.298 5.21071 13.7893 5.58579 13.4142Z" fill="#1B1D22"/>
<path d="M5 20C4.44772 20 4 20.4477 4 21C4 21.5523 4.44772 22 5 22H17C17.5523 22 18 21.5523 18 21C18 20.4477 17.5523 20 17 20H5Z" fill="#1B1D22"/>
</svg>
