<svg width="24" height="24" viewBox="0 0 24 24" fill="none" xmlns="http://www.w3.org/2000/svg">
<path d="M14 11C15.1046 11 16 10.1046 16 9C16 7.89543 15.1046 7 14 7C12.8955 7 12 7.89543 12 9C12 10.1046 12.8955 11 14 11Z" fill="#1B1D22"/>
<path d="M2.00003 16.9926C1.99999 16.9979 1.99999 17.0031 2.00003 17.0083V18C2.00003 20.2091 3.79089 22 6.00003 22H18C20.2092 22 22 20.2091 22 18V6C22 3.79086 20.2092 2 18 2H6.00003C3.79089 2 2.00003 3.79086 2.00003 6V16.9926ZM6.00003 4H18C19.1046 4 20 4.89543 20 6V12.6561C18.0543 11.1933 15.2844 11.3366 13.5002 13.086L13.3263 12.9121C11.4789 11.0647 8.52054 10.9511 6.53685 12.6514L4.00003 14.8258V6C4.00003 4.89543 4.89546 4 6.00003 4ZM20 15.4142V18C20 18.4466 19.8536 18.8591 19.6062 19.192L14.9145 14.5003C16.0887 13.3641 17.9616 13.3758 19.1214 14.5355L20 15.4142ZM17.5858 20H6.00003C4.89546 20 4.00003 19.1046 4.00003 18V17.4599L7.83843 14.1699C9.02865 13.1497 10.8037 13.2179 11.9121 14.3263L17.5858 20Z" fill="#1B1D22"/>
</svg>
