<svg width="56" height="56" viewBox="0 0 56 56" fill="none" xmlns="http://www.w3.org/2000/svg">
<path d="M51.3334 27.9998C51.3334 40.8865 40.8867 51.3332 28.0001 51.3332C15.1134 51.3332 4.66675 40.8865 4.66675 27.9998C4.66675 15.1132 15.1134 4.6665 28.0001 4.6665C40.8867 4.6665 51.3334 15.1132 51.3334 27.9998ZM22.2324 16.6093C21.4737 17.0153 21.0001 17.806 21.0001 18.6665V37.3332C21.0001 38.1937 21.4737 38.9844 22.2324 39.3904C22.9911 39.7965 23.9117 39.752 24.6277 39.2746L38.6277 29.9413C39.2768 29.5085 39.6667 28.78 39.6667 27.9998C39.6667 27.2197 39.2768 26.4911 38.6277 26.0584L24.6277 16.7251C23.9117 16.2477 22.9911 16.2032 22.2324 16.6093Z" fill="white"/>
</svg>
