<svg width="20" height="20" viewBox="0 0 20 20" fill="none" xmlns="http://www.w3.org/2000/svg">
<path d="M5.44541 6.16795L4.5344 6.77529C4.90152 4.09737 7.20015 2 10.0179 2H10.2676C13.0868 2 15.4927 4.03811 15.9561 6.81886L16.0137 7.1644C16.1045 7.70917 16.6197 8.07719 17.1645 7.98639C17.7093 7.8956 18.0773 7.38037 17.9865 6.8356L17.9289 6.49007C17.3047 2.74494 14.0644 0 10.2676 0H10.0179C6.17451 0 3.04056 2.86629 2.54994 6.52197L1.83216 5.4453C1.5258 4.98577 0.904935 4.8616 0.445406 5.16795C-0.0141225 5.47431 -0.138297 6.09517 0.168056 6.5547L2.16806 9.5547C2.47441 10.0142 3.09528 10.1384 3.55481 9.83205L6.55481 7.83205C7.01434 7.5257 7.13851 6.90483 6.83216 6.4453C6.5258 5.98577 5.90493 5.8616 5.44541 6.16795Z" fill="#1B1D22"/>
<path d="M13.4454 12.168C12.9859 12.4743 12.8617 13.0952 13.1681 13.5547C13.4744 14.0142 14.0953 14.1384 14.5548 13.8321L15.4658 13.2247C15.0987 15.9026 12.8001 18 9.98227 18H9.73257C6.91346 18 4.50755 15.9619 4.04409 13.1811L3.9865 12.8356C3.8957 12.2908 3.38048 11.9228 2.83571 12.0136C2.29094 12.1044 1.92292 12.6196 2.01371 13.1644L2.0713 13.5099C2.69549 17.2551 5.93578 20 9.73257 20H9.98227C13.8257 20 16.9597 17.1337 17.4503 13.478L18.1681 14.5547C18.4744 15.0142 19.0953 15.1384 19.5548 14.8321C20.0143 14.5257 20.1385 13.9048 19.8322 13.4453L17.8322 10.4453C17.5258 9.98578 16.9049 9.8616 16.4454 10.168L13.4454 12.168Z" fill="#1B1D22"/>
</svg>
