<svg width="390" height="2" viewBox="0 0 390 2" fill="none" xmlns="http://www.w3.org/2000/svg">
<g clip-path="url(#clip0_33542_20140)">
<rect width="390" height="2" fill="#FCFCFB"/>
<rect x="11.3555" y="-8" width="7.30802" height="20.3028" transform="rotate(45 11.3555 -8)" fill="#9193DF"/>
<rect x="41.3555" y="-8" width="7.30802" height="20.3028" transform="rotate(45 41.3555 -8)" fill="#9193DF"/>
<rect x="71.3555" y="-8" width="7.30802" height="20.3028" transform="rotate(45 71.3555 -8)" fill="#9193DF"/>
<rect x="101.355" y="-8" width="7.30802" height="20.3028" transform="rotate(45 101.355 -8)" fill="#9193DF"/>
<rect x="131.355" y="-8" width="7.30802" height="20.3028" transform="rotate(45 131.355 -8)" fill="#9193DF"/>
<rect x="161.355" y="-8" width="7.30802" height="20.3028" transform="rotate(45 161.355 -8)" fill="#9193DF"/>
<rect x="191.355" y="-8" width="7.30802" height="20.3028" transform="rotate(45 191.355 -8)" fill="#9193DF"/>
<rect x="221.355" y="-8" width="7.30802" height="20.3028" transform="rotate(45 221.355 -8)" fill="#9193DF"/>
<rect x="251.355" y="-8" width="7.30802" height="20.3028" transform="rotate(45 251.355 -8)" fill="#9193DF"/>
<rect x="281.355" y="-8" width="7.30802" height="20.3028" transform="rotate(45 281.355 -8)" fill="#9193DF"/>
<rect x="311.355" y="-8" width="7.30802" height="20.3028" transform="rotate(45 311.355 -8)" fill="#9193DF"/>
<rect x="341.355" y="-8" width="7.30802" height="20.3028" transform="rotate(45 341.355 -8)" fill="#9193DF"/>
<rect x="371.355" y="-8" width="7.30802" height="20.3028" transform="rotate(45 371.355 -8)" fill="#9193DF"/>
<rect x="26.3555" y="-8" width="7.30802" height="20.3028" transform="rotate(45 26.3555 -8)" fill="#FA7A89"/>
<rect x="56.3555" y="-8" width="7.30802" height="20.3028" transform="rotate(45 56.3555 -8)" fill="#FA7A89"/>
<rect x="86.3555" y="-8" width="7.30802" height="20.3028" transform="rotate(45 86.3555 -8)" fill="#FA7A89"/>
<rect x="116.355" y="-8" width="7.30802" height="20.3028" transform="rotate(45 116.355 -8)" fill="#FA7A89"/>
<rect x="146.355" y="-8" width="7.30802" height="20.3028" transform="rotate(45 146.355 -8)" fill="#FA7A89"/>
<rect x="176.355" y="-8" width="7.30802" height="20.3028" transform="rotate(45 176.355 -8)" fill="#FA7A89"/>
<rect x="206.355" y="-8" width="7.30802" height="20.3028" transform="rotate(45 206.355 -8)" fill="#FA7A89"/>
<rect x="236.355" y="-8" width="7.30802" height="20.3028" transform="rotate(45 236.355 -8)" fill="#FA7A89"/>
<rect x="266.355" y="-8" width="7.30802" height="20.3028" transform="rotate(45 266.355 -8)" fill="#FA7A89"/>
<rect x="296.355" y="-8" width="7.30802" height="20.3028" transform="rotate(45 296.355 -8)" fill="#FA7A89"/>
<rect x="326.355" y="-8" width="7.30802" height="20.3028" transform="rotate(45 326.355 -8)" fill="#FA7A89"/>
<rect x="356.355" y="-8" width="7.30802" height="20.3028" transform="rotate(45 356.355 -8)" fill="#FA7A89"/>
<rect x="386.355" y="-8" width="7.30802" height="20.3028" transform="rotate(45 386.355 -8)" fill="#FA7A89"/>
</g>
<defs>
<clipPath id="clip0_33542_20140">
<rect width="390" height="2" fill="white"/>
</clipPath>
</defs>
</svg>
