<svg width="20" height="20" viewBox="0 0 20 20" fill="none" xmlns="http://www.w3.org/2000/svg">
<path d="M5.83317 2.08333C3.53198 2.08333 1.6665 3.94881 1.6665 6.24999V6.34116C1.6665 7.06913 1.98943 7.72168 2.49984 8.16338V16.25C2.49984 17.6307 3.61913 18.75 4.99984 18.75H14.9998C16.3806 18.75 17.4998 17.6307 17.4998 16.25V8.16338C18.0103 7.72168 18.3332 7.06913 18.3332 6.34116V6.24999C18.3332 3.94881 16.4677 2.08333 14.1665 2.08333H5.83317ZM15.8332 8.74743V16.25C15.8332 16.7102 15.4601 17.0833 14.9998 17.0833H10.8332V13.75C10.8332 12.3693 9.71388 11.25 8.33317 11.25H7.49984C6.11913 11.25 4.99984 12.3693 4.99984 13.75V17.0833C4.5396 17.0833 4.1665 16.7102 4.1665 16.25V8.74743C4.5307 8.72693 4.87837 8.58404 5.15232 8.34052L6.24984 7.36496L7.01756 8.04738C7.64904 8.60869 8.60063 8.60869 9.23211 8.04738L9.99984 7.36496L10.7676 8.04738C11.399 8.60869 12.3506 8.60869 12.9821 8.04738L13.7498 7.36496L14.8474 8.34052C15.1213 8.58404 15.469 8.72693 15.8332 8.74743ZM3.33317 6.24999C3.33317 4.86928 4.45246 3.74999 5.83317 3.74999H14.1665C15.5472 3.74999 16.6665 4.86928 16.6665 6.24999V6.34116C16.6665 6.74533 16.3434 7.07404 15.9415 7.08313L14.8571 6.11928C14.2256 5.55796 13.274 5.55796 12.6426 6.11928L11.8748 6.8017L11.1071 6.11928C10.4756 5.55796 9.52404 5.55796 8.89256 6.11928L8.12484 6.8017L7.35711 6.11928C6.72563 5.55796 5.77404 5.55796 5.14256 6.11928L4.05822 7.08313C3.65624 7.07404 3.33317 6.74533 3.33317 6.34116V6.24999ZM9.1665 17.0833H6.6665V13.75C6.6665 13.2898 7.0396 12.9167 7.49984 12.9167H8.33317C8.79341 12.9167 9.1665 13.2898 9.1665 13.75V17.0833Z" fill="#4361EE"/>
</svg>
