<svg width="24" height="24" viewBox="0 0 24 24" fill="none" xmlns="http://www.w3.org/2000/svg">
<path fill-rule="evenodd" clip-rule="evenodd" d="M15.7929 3.29289C16.1834 2.90237 16.8166 2.90237 17.2071 3.29289L21.7071 7.79289C22.0976 8.18342 22.0976 8.81658 21.7071 9.20711L17.2071 13.7071C16.8166 14.0976 16.1834 14.0976 15.7929 13.7071C15.4024 13.3166 15.4024 12.6834 15.7929 12.2929L18.5858 9.5H15.7499C13.9761 9.50015 12.2526 10.0896 10.8501 11.1756C9.4476 12.2617 8.44564 13.7829 8.00161 15.5003C7.86336 16.035 7.31783 16.3564 6.78313 16.2181C6.24842 16.0799 5.92703 15.5344 6.06528 14.9997C6.62027 12.8531 7.8726 10.9518 9.62554 9.59432C11.3785 8.23685 13.5327 7.50017 15.7498 7.5H18.5858L15.7929 4.70711C15.4024 4.31658 15.4024 3.68342 15.7929 3.29289ZM3 4C3.55228 4 4 4.44772 4 5V19.25H18C18.5523 19.25 19 19.6977 19 20.25C19 20.8023 18.5523 21.25 18 21.25H3.75C3.28587 21.25 2.84075 21.0656 2.51256 20.7374C2.18437 20.4092 2 19.9641 2 19.5V5C2 4.44772 2.44772 4 3 4Z" fill="#262626"/>
</svg>
