<svg width="24" height="24" viewBox="0 0 24 24" fill="none" xmlns="http://www.w3.org/2000/svg">
<path d="M6 2C4.34315 2 3 3.34315 3 5V15C3 16.6569 4.34315 18 6 18H7V19C7 20.6569 8.34315 22 10 22H18C19.6569 22 21 20.6569 21 19V9C21 7.34315 19.6569 6 18 6H17V5C17 3.34315 15.6569 2 14 2H6ZM15 6H10C8.34315 6 7 7.34315 7 9V16H6C5.44772 16 5 15.5523 5 15V5C5 4.44772 5.44772 4 6 4H14C14.5523 4 15 4.44772 15 5V6ZM9 19V9C9 8.44772 9.44772 8 10 8H18C18.5523 8 19 8.44772 19 9V19C19 19.5523 18.5523 20 18 20H10C9.44772 20 9 19.5523 9 19Z" fill="#1B1D22"/>
</svg>
