<svg width="24" height="24" viewBox="0 0 24 24" fill="none" xmlns="http://www.w3.org/2000/svg">
<path d="M11 13.3924V2.13257L6.57574 2.76461C5.09779 2.97574 4 4.2415 4 5.73445V15.8392C4 16.9158 4.57686 17.9098 5.51158 18.4439L10.5116 21.3011C10.9138 21.531 11.356 21.6606 11.8033 21.6899C10.6825 20.4487 10 18.8041 10 17C10 15.6803 10.3652 14.446 11 13.3924Z" fill="#1B1D22"/>
<path d="M12 17C12 17.7111 12.1484 18.3875 12.416 18.9999C12.7651 19.7989 13.3169 20.4889 14.0064 21.0051C14.8409 21.6299 15.8772 22 17 22C19.7614 22 22 19.7614 22 17C22 15.3642 21.2144 13.9118 20 12.9996C19.1643 12.3719 18.1256 12 17 12C15.3644 12 13.9122 12.7853 13 13.9995C12.3721 14.8353 12 15.8742 12 17ZM20.0762 15.4802L16.7428 19.4802C16.6003 19.6512 16.3892 19.75 16.1667 19.75C15.9441 19.75 15.733 19.6512 15.5905 19.4802L13.9238 17.4802C13.6586 17.1619 13.7016 16.689 14.0198 16.4239C14.3381 16.1587 14.811 16.2017 15.0762 16.5199L16.1667 17.8285L18.9238 14.5199C19.189 14.2017 19.6619 14.1587 19.9801 14.4239C20.2983 14.689 20.3413 15.1619 20.0762 15.4802Z" fill="#1B1D22"/>
<path d="M20 10.6736C19.0907 10.2417 18.0736 10 17 10C15.5128 10 14.1338 10.4638 13 11.2547V2.13257L17.4243 2.76461C18.9022 2.97574 20 4.2415 20 5.73445V10.6736Z" fill="#1B1D22"/>
</svg>
