<svg width="24" height="24" viewBox="0 0 24 24" fill="none" xmlns="http://www.w3.org/2000/svg">
<path d="M6.85858 4.74456L11 4.15293V13.3924C11.5095 12.5469 12.1926 11.8179 13 11.2547V4.15293L17.1414 4.74456C17.6341 4.81494 18 5.23686 18 5.73451V10.0709C18.7061 10.1719 19.3783 10.3783 20 10.6736V5.73451C20 4.24156 18.9022 2.9758 17.4243 2.76466L12.7071 2.09078C12.2381 2.02378 11.7619 2.02378 11.2929 2.09078L6.57574 2.76466C5.09779 2.97579 4 4.24156 4 5.73451V15.8393C4 16.9158 4.57686 17.9099 5.51158 18.444L10.5116 21.3011C10.9139 21.531 11.3561 21.6606 11.8034 21.69C11.0794 20.8883 10.5384 19.9184 10.2459 18.8458L6.50386 16.7075C6.19229 16.5295 6 16.1981 6 15.8393V5.73451C6 5.23686 6.36593 4.81494 6.85858 4.74456Z" fill="#1B1D22"/>
<path d="M12 17C12 15.8742 12.3721 14.8353 13 13.9995C13.9122 12.7853 15.3644 12 17 12C17.3425 12 17.6769 12.0344 18 12.1C18.7389 12.25 19.4186 12.5629 20 12.9996C21.2144 13.9118 22 15.3642 22 17C22 19.7614 19.7614 22 17 22C15.8773 22 14.841 21.6299 14.0064 21.0052C12.7883 20.0933 12 18.6387 12 17ZM20.0762 15.4802C20.3413 15.1619 20.2983 14.689 19.9801 14.4239C19.6619 14.1587 19.189 14.2017 18.9238 14.5199L16.1667 17.8285L15.0762 16.5199C14.811 16.2017 14.3381 16.1587 14.0198 16.4239C13.7016 16.689 13.6586 17.1619 13.9238 17.4802L15.5905 19.4802C15.733 19.6512 15.9441 19.75 16.1667 19.75C16.3892 19.75 16.6003 19.6512 16.7428 19.4802L20.0762 15.4802Z" fill="#1B1D22"/>
</svg>
