<svg width="20" height="20" viewBox="0 0 20 20" fill="none" xmlns="http://www.w3.org/2000/svg">
<path d="M10.0159 8.33329C10.005 8.33351 9.99405 8.33351 9.98312 8.33329H9.45611L9.31722 9.16663H10.4168C10.647 9.16663 10.8335 8.98008 10.8335 8.74996C10.8335 8.51984 10.647 8.33329 10.4168 8.33329H10.0159Z" fill="#4361EE"/>
<path d="M10.0192 11.6666C10.0069 11.6664 9.99464 11.6664 9.98241 11.6666H8.90055L9.03944 10.8333H11.2502C11.4803 10.8333 11.6668 11.0198 11.6668 11.25C11.6668 11.4801 11.4803 11.6666 11.2502 11.6666H10.0192Z" fill="#4361EE"/>
<path d="M8.10428 2.19401C9.19524 1.2589 10.8051 1.2589 11.896 2.19401L12.5475 2.75239C12.7056 2.88788 12.9433 2.87082 13.0804 2.71413C14.3247 1.29209 16.6668 2.17212 16.6668 4.06169V15.938C16.6668 17.8276 14.3247 18.7076 13.0804 17.2856C12.9433 17.1289 12.7056 17.1118 12.5475 17.2473L11.896 17.8057C10.8051 18.7408 9.19524 18.7408 8.10428 17.8057L7.45284 17.2473C7.29476 17.1118 7.05705 17.1289 6.91995 17.2856C5.67566 18.7076 3.3335 17.8276 3.3335 15.938V4.06169C3.3335 2.17212 5.67566 1.29209 6.91995 2.71413C7.05705 2.87082 7.29476 2.88788 7.45284 2.75239L8.10428 2.19401ZM10.7895 5.92125C10.3778 5.71542 9.87728 5.88228 9.67145 6.29393L9.4851 6.66663H8.75017C8.3428 6.66663 7.99514 6.96114 7.92817 7.36296L7.09484 12.363C7.05457 12.6046 7.12265 12.8517 7.28099 13.0386C7.43932 13.2255 7.67188 13.3333 7.91684 13.3333H8.74996C8.75021 13.6387 8.919 13.9327 9.2108 14.0786C9.62245 14.2845 10.123 14.1176 10.3288 13.7059L10.5152 13.3333H11.2502C12.4008 13.3333 13.3335 12.4006 13.3335 11.25C13.3335 10.5094 12.9471 9.85917 12.365 9.4897C12.4524 9.25982 12.5002 9.01048 12.5002 8.74996C12.5002 7.88926 11.9782 7.15047 11.2336 6.83283C11.3072 6.47247 11.1341 6.09357 10.7895 5.92125Z" fill="#4361EE"/>
</svg>
