<svg width="4" height="20" viewBox="0 0 4 20" fill="none" xmlns="http://www.w3.org/2000/svg">
<path d="M-1.26364e-06 18C-1.21536e-06 16.8954 0.895429 16 2 16C3.10457 16 4 16.8954 4 18C4 19.1046 3.10457 20 2 20C0.895429 20 -1.31192e-06 19.1046 -1.26364e-06 18Z" fill="#1B1D22"/>
<path d="M-9.13951e-07 10C-8.65669e-07 8.89543 0.89543 8 2 8C3.10457 8 4 8.89543 4 10C4 11.1046 3.10457 12 2 12C0.89543 12 -9.62233e-07 11.1046 -9.13951e-07 10Z" fill="#1B1D22"/>
<path d="M2 -8.74228e-08C0.895431 -1.83987e-07 -3.91405e-08 0.895429 -8.74228e-08 2C-1.35705e-07 3.10457 0.89543 4 2 4C3.10457 4 4 3.10457 4 2C4 0.89543 3.10457 9.14176e-09 2 -8.74228e-08Z" fill="#1B1D22"/>
</svg>
