<svg width="20" height="20" viewBox="0 0 20 20" fill="none" xmlns="http://www.w3.org/2000/svg">
<path d="M5.5 8.60547C6.32843 8.60547 7 7.9339 7 7.10547C7 6.27704 6.32843 5.60547 5.5 5.60547C4.67157 5.60547 4 6.27704 4 7.10547C4 7.9339 4.67157 8.60547 5.5 8.60547Z" fill="#1B1D22"/>
<path d="M16 7.10547C16 7.9339 15.3284 8.60547 14.5 8.60547C13.6716 8.60547 13 7.9339 13 7.10547C13 6.27704 13.6716 5.60547 14.5 5.60547C15.3284 5.60547 16 6.27704 16 7.10547Z" fill="#1B1D22"/>
<path fill-rule="evenodd" clip-rule="evenodd" d="M7.01933 19.6053L7 19.6055H4L3.98067 19.6053H3C1.34315 19.6053 0 18.2621 0 16.6053V3.00432C0 0.716863 2.45733 -0.729042 4.45693 0.381844L9.0015 2.90661C9.07026 0.675992 11.486 -0.71314 13.4569 0.381844L18.4569 3.15962C19.4093 3.68873 20 4.69259 20 5.78209V16.6053C20 18.2621 18.6569 19.6053 17 19.6053H16.0193C16.0129 19.6054 16.0065 19.6055 16 19.6055H13C12.9935 19.6055 12.9871 19.6054 12.9807 19.6053H7.01933ZM2 3.00432C2 2.24183 2.81911 1.75986 3.48564 2.13016L8.48564 4.90794C8.80311 5.08431 9 5.41893 9 5.78209V17.6053H8V15.1055C8 13.7248 6.88071 12.6055 5.5 12.6055C4.11929 12.6055 3 13.7248 3 15.1055V17.6053C2.44772 17.6053 2 17.1576 2 16.6053V3.00432ZM15 17.6053H14V15.1055C14 14.8293 14.2239 14.6055 14.5 14.6055C14.7761 14.6055 15 14.8293 15 15.1055V17.6053ZM17 17.6053C17.5523 17.6053 18 17.1576 18 16.6053V5.78209C18 5.41893 17.8031 5.08431 17.4856 4.90794L12.4856 2.13016C11.8191 1.75986 11 2.24183 11 3.00432V17.6053H12V15.1055C12 13.7248 13.1193 12.6055 14.5 12.6055C15.8807 12.6055 17 13.7248 17 15.1055V17.6053ZM6 15.1055V17.6053H5V15.1055C5 14.8293 5.22386 14.6055 5.5 14.6055C5.77614 14.6055 6 14.8293 6 15.1055Z" fill="#1B1D22"/>
</svg>

