<svg width="16" height="16" viewBox="0 0 16 16" fill="none" xmlns="http://www.w3.org/2000/svg">
<path d="M6.34225 6.22375C6.39582 5.9023 6.67395 5.66669 6.99984 5.66669H7.58779L7.73687 5.36853C7.90153 5.03921 8.30198 4.90573 8.6313 5.07039C8.907 5.20824 9.04544 5.51136 8.98659 5.79965C9.58229 6.05376 9.99984 6.6448 9.99984 7.33335C9.99984 7.54177 9.96159 7.74124 9.89172 7.92515C10.3574 8.22072 10.6665 8.74094 10.6665 9.33335C10.6665 10.2538 9.92032 11 8.99984 11H8.41183L8.26277 11.2981C8.09811 11.6275 7.69766 11.7609 7.36834 11.5963C7.13491 11.4796 6.99987 11.2444 6.99967 11H6.33318C6.13721 11 5.95116 10.9138 5.8245 10.7643C5.69783 10.6147 5.64336 10.4171 5.67558 10.2238L6.34225 6.22375ZM7.9862 7.00002H7.56459L7.45348 7.66669H8.33318C8.51727 7.66669 8.66651 7.51745 8.66651 7.33335C8.66651 7.14926 8.51727 7.00002 8.33318 7.00002H8.01241C8.00368 7.00019 7.99495 7.00019 7.9862 7.00002ZM8.99984 9.66669C9.18394 9.66669 9.33318 9.51745 9.33318 9.33335C9.33318 9.14926 9.18394 9.00002 8.99984 9.00002H7.23126L7.12015 9.66669H7.98564C7.99542 9.66647 8.00522 9.66647 8.01504 9.66669H8.99984Z" fill="#1B1D22"/>
<path d="M6.48313 2.08859C7.3559 1.34051 8.64377 1.34051 9.51654 2.08859L10.0377 2.5353C10.1642 2.64369 10.3543 2.63004 10.464 2.50469C11.4594 1.36706 13.3332 2.07108 13.3332 3.58274V13.0838C13.3332 14.5955 11.4594 15.2995 10.464 14.1619C10.3543 14.0365 10.1642 14.0229 10.0377 14.1313L9.51654 14.578C8.64377 15.3261 7.3559 15.3261 6.48313 14.578L5.96198 14.1313C5.83552 14.0229 5.64535 14.0365 5.53567 14.1619C4.54024 15.2995 2.6665 14.5955 2.6665 13.0838V3.58273C2.6665 2.07108 4.54024 1.36706 5.53567 2.50469C5.64535 2.63004 5.83552 2.64369 5.96198 2.5353L6.48313 2.08859ZM8.64882 3.10093C8.27537 2.78084 7.7243 2.78084 7.35086 3.10093L6.8297 3.54764C6.14817 4.13181 5.12333 4.05824 4.53223 3.3827C4.34752 3.1716 3.99984 3.30224 3.99984 3.58273V13.0838C3.99984 13.3643 4.34752 13.495 4.53223 13.2839C5.12333 12.6083 6.14817 12.5347 6.8297 13.1189L7.35086 13.5656C7.7243 13.8857 8.27537 13.8857 8.64882 13.5656L9.16997 13.1189C9.85151 12.5347 10.8763 12.6083 11.4674 13.2839C11.6522 13.495 11.9998 13.3643 11.9998 13.0838V3.58274C11.9998 3.30224 11.6522 3.1716 11.4674 3.3827C10.8763 4.05823 9.85151 4.13181 9.16997 3.54764L8.64882 3.10093Z" fill="#1B1D22"/>
</svg>
