<svg width="24" height="24" viewBox="0 0 24 24" fill="none" xmlns="http://www.w3.org/2000/svg">
<path d="M9 12C9 11.4477 8.55228 11 8 11C7.44772 11 7 11.4477 7 12V16C7 16.5523 7.44772 17 8 17C8.55228 17 9 16.5523 9 16V12Z" fill="#1B1D22"/>
<path d="M16 11C16.5523 11 17 11.4477 17 12V16C17 16.5523 16.5523 17 16 17C15.4477 17 15 16.5523 15 16V12C15 11.4477 15.4477 11 16 11Z" fill="#1B1D22"/>
<path d="M13 12C13 11.4477 12.5523 11 12 11C11.4477 11 11 11.4477 11 12V16C11 16.5523 11.4477 17 12 17C12.5523 17 13 16.5523 13 16V12Z" fill="#1B1D22"/>
<path d="M20 17V8H21C21.5523 8 22 7.55228 22 7C22 6.44772 21.5523 6 21 6H16.9C16.4367 3.71776 14.419 2 12 2C9.58104 2 7.56329 3.71776 7.10002 6H3C2.44772 6 2 6.44772 2 7C2 7.55228 2.44772 8 3 8H4V17C4 19.7614 6.23858 22 9 22H15C17.7614 22 20 19.7614 20 17ZM6 8H18V17C18 18.6569 16.6569 20 15 20H9C7.34315 20 6 18.6569 6 17V8ZM12 4C13.3062 4 14.4175 4.83481 14.8293 6H9.17071C9.58254 4.83481 10.6938 4 12 4Z" fill="#1B1D22"/>
</svg>
