<svg width="16" height="20" viewBox="0 0 16 20" fill="none" xmlns="http://www.w3.org/2000/svg">
<path d="M2 0C1.44772 0 1 0.447715 1 1C1 1.55228 1.44772 2 2 2H4V5.38197L1.65836 6.55279C0.642006 7.06096 0 8.09975 0 9.23607V12C0 12.5523 0.447715 13 1 13H7V19C7 19.5523 7.44772 20 8 20C8.55229 20 9 19.5523 9 19V13H15C15.5523 13 16 12.5523 16 12V9.23607C16 8.09975 15.358 7.06096 14.3416 6.55279L12 5.38197V2H14C14.5523 2 15 1.55228 15 1C15 0.447715 14.5523 0 14 0H2ZM14 11H2V9.23607C2 8.8573 2.214 8.51103 2.55279 8.34164L5.44721 6.89443C5.786 6.72504 6 6.37877 6 6V2H10V6C10 6.37877 10.214 6.72504 10.5528 6.89443L13.4472 8.34164C13.786 8.51103 14 8.8573 14 9.23607V11Z" fill="#1B1D22"/>
</svg>
